SplineFontDB: 3.2
FontName: Asap-Bold
FullName: Asap Bold
FamilyName: Asap
Weight: Bold
Copyright: Copyright (c) 2011-2015, Omnibus-Type (www.omnibus-type.com omnibus.type@gmail.com)
Version: 001.007
ItalicAngle: 0
UnderlinePosition: -100
UnderlineWidth: 50
Ascent: 800
Descent: 200
InvalidEm: 0
sfntRevision: 0x000101ca
LayerCount: 2
Layer: 0 0 "Back" 1
Layer: 1 0 "Fore" 0
XUID: [1021 452 676651032 1659574]
StyleMap: 0x0020
FSType: 8
OS2Version: 3
OS2_WeightWidthSlopeOnly: 0
OS2_UseTypoMetrics: 0
CreationTime: 1422899744
ModificationTime: 1644082678
PfmFamily: 17
TTFWeight: 700
TTFWidth: 5
LineGap: 0
VLineGap: 0
Panose: 2 15 8 4 3 1 2 6 2 3
OS2TypoAscent: 1020
OS2TypoAOffset: 0
OS2TypoDescent: -242
OS2TypoDOffset: 0
OS2TypoLinegap: 0
OS2WinAscent: 1020
OS2WinAOffset: 0
OS2WinDescent: 242
OS2WinDOffset: 0
HheadAscent: 1020
HheadAOffset: 0
HheadDescent: -242
HheadDOffset: 0
OS2SubXSize: 650
OS2SubYSize: 600
OS2SubXOff: 0
OS2SubYOff: 75
OS2SupXSize: 650
OS2SupYSize: 600
OS2SupXOff: 0
OS2SupYOff: 350
OS2StrikeYSize: 50
OS2StrikeYPos: 313
OS2CapHeight: 700
OS2XHeight: 523
OS2Vendor: 'OMNI'
OS2CodePages: 20000193.00000000
OS2UnicodeRanges: 20000007.00000000.00000000.00000000
Lookup: 1 0 0 "'aalt' Access All Alternates lookup 0" { "'aalt' Access All Alternates lookup 0 subtable"  } ['aalt' ('DFLT' <'dflt' > 'grek' <'dflt' > 'latn' <'AZE ' 'CAT ' 'CRT ' 'ESP ' 'KAZ ' 'MOL ' 'NLD ' 'PLK ' 'ROM ' 'TAT ' 'TRK ' 'dflt' > ) ]
Lookup: 6 0 0 "'locl' Localized Forms in Latin lookup 1" { "'locl' Localized Forms in Latin lookup 1 contextual 0"  "'locl' Localized Forms in Latin lookup 1 contextual 1"  } ['locl' ('latn' <'AZE ' 'CAT ' 'CRT ' 'ESP ' 'KAZ ' 'MOL ' 'PLK ' 'ROM ' 'TAT ' 'TRK ' 'dflt' > ) ]
Lookup: 1 0 0 "'locl' Localized Forms in Latin lookup 2" { "'locl' Localized Forms in Latin lookup 2 subtable"  } ['locl' ('latn' <'TRK ' > ) ]
Lookup: 1 0 0 "'locl' Localized Forms in Latin lookup 3" { "'locl' Localized Forms in Latin lookup 3 subtable"  } ['locl' ('latn' <'AZE ' > ) ]

StartChar: A
Encoding: 65 65 1
Width: 613
GlyphClass: 2
Flags: MW
HStem: -2 21G 141 132<230 380 230 423 187 380> 682 20G<281 333 333 347.5>
VStem: 0 613<13 22.5>
AnchorPoint: "Anchor-1" 307 700 basechar 0
AnchorPoint: "Anchor-0" 310 0 basechar 0
LayerCount: 2
Fore
SplineSet
333 702 m 2
 362 702 384 697 390 681 c 2
 610 38 l 2
 612 31 613 25 613 20 c 0
 613 6 598 -2 563 -2 c 2
 519 -2 l 2
 490 -2 468 3 463 19 c 2
 423 141 l 1
 187 141 l 1
 147 19 l 2
 142 4 125 -2 101 -2 c 2
 61 -2 l 2
 19 -2 0 6 0 20 c 0
 0 25 2 31 4 38 c 2
 224 681 l 2
 230 697 252 702 281 702 c 2
 333 702 l 2
308 515 m 1
 304 515 l 1
 300 494 297 472 289 451 c 2
 230 273 l 1
 380 273 l 1
 323 451 l 2
 316 472 312 494 308 515 c 1
EndSplineSet
Substitution2: "Single Substitution lookup 21 subtable" ordfeminine
Substitution2: "'aalt' Access All Alternates lookup 0 subtable" ordfeminine
Position2: "'cpsp' Capital Spacing lookup 0 subtable" dx=5 dy=0 dh=10 dv=0
EndChar

StartChar: Aacute
Encoding: 193 193 2
Width: 613
GlyphClass: 2
Flags: MW
HStem: -2 21G 141 132<230 380 230 423 187 380> 682 20G<281 333 333 347.5> 752 159<256 407>
VStem: 0 613<13 22.5>
AnchorPoint: "Anchor-1" 313 877 basechar 0
AnchorPoint: "Anchor-0" 310 0 basechar 0
LayerCount: 2
Fore
SplineSet
387 911 m 0
 427 911 447 908 447 897 c 0
 447 885 440 883 343 777 c 0
 332 765 315 752 268 752 c 0
 244 752 237 756 237 767 c 0
 237 778 256 803 302 884 c 0
 314 905 347 911 387 911 c 0
333 702 m 2
 362 702 384 697 390 681 c 2
 610 38 l 2
 612 31 613 25 613 20 c 0
 613 6 598 -2 563 -2 c 2
 519 -2 l 2
 490 -2 468 3 463 19 c 2
 423 141 l 1
 187 141 l 1
 147 19 l 2
 142 4 125 -2 101 -2 c 2
 61 -2 l 2
 19 -2 0 6 0 20 c 0
 0 25 2 31 4 38 c 2
 224 681 l 2
 230 697 252 702 281 702 c 2
 333 702 l 2
308 515 m 1
 304 515 l 1
 300 494 297 472 289 451 c 2
 230 273 l 1
 380 273 l 1
 323 451 l 2
 316 472 312 494 308 515 c 1
EndSplineSet
Position2: "'cpsp' Capital Spacing lookup 0 subtable" dx=5 dy=0 dh=10 dv=0
EndChar

StartChar: Acircumflex
Encoding: 194 194 3
Width: 613
GlyphClass: 2
Flags: MW
HStem: -2 21G 141 132<230 380 230 423 187 380> 682 20G<281 333 333 347.5> 749 146<183 313 190 313 302 403 302 425>
VStem: 0 613<13 22.5>
AnchorPoint: "Anchor-1" 457 793 basechar 0
AnchorPoint: "Anchor-0" 310 0 basechar 0
LayerCount: 2
Fore
SplineSet
313 895 m 2
 342 895 363 894 374 876 c 2
 439 774 l 2
 443 768 445 763 445 759 c 0
 445 752 438 749 425 749 c 2
 403 749 l 2
 374 749 348 754 335 773 c 2
 307 813 l 1
 279 774 l 2
 264 753 241 749 212 749 c 2
 190 749 l 2
 176 749 170 752 170 759 c 0
 170 763 172 768 176 774 c 2
 241 876 l 2
 252 894 273 895 302 895 c 2
 313 895 l 2
333 702 m 2
 362 702 384 697 390 681 c 2
 610 38 l 2
 612 31 613 25 613 20 c 0
 613 6 598 -2 563 -2 c 2
 519 -2 l 2
 490 -2 468 3 463 19 c 2
 423 141 l 1
 187 141 l 1
 147 19 l 2
 142 4 125 -2 101 -2 c 2
 61 -2 l 2
 19 -2 0 6 0 20 c 0
 0 25 2 31 4 38 c 2
 224 681 l 2
 230 697 252 702 281 702 c 2
 333 702 l 2
308 515 m 1
 304 515 l 1
 300 494 297 472 289 451 c 2
 230 273 l 1
 380 273 l 1
 323 451 l 2
 316 472 312 494 308 515 c 1
EndSplineSet
Position2: "'cpsp' Capital Spacing lookup 0 subtable" dx=5 dy=0 dh=10 dv=0
EndChar

StartChar: Adieresis
Encoding: 196 196 4
Width: 613
GlyphClass: 2
Flags: MW
HStem: -2 21G 141 132<230 380 230 423 187 380> 682 20G<281 333 333 347.5> 755 124<196 238 376 418>
VStem: 157 120<787 847 776.5 857.5> 337 120<787 847 776.5 857.5>
AnchorPoint: "Anchor-1" 313 877 basechar 0
AnchorPoint: "Anchor-0" 310 0 basechar 0
LayerCount: 2
Fore
SplineSet
217 879 m 0
 259 879 277 868 277 847 c 2
 277 787 l 2
 277 766 259 755 217 755 c 0
 175 755 157 766 157 787 c 2
 157 847 l 2
 157 868 175 879 217 879 c 0
397 879 m 0
 439 879 457 868 457 847 c 2
 457 787 l 2
 457 766 439 755 397 755 c 0
 355 755 337 766 337 787 c 2
 337 847 l 2
 337 868 355 879 397 879 c 0
333 702 m 2
 362 702 384 697 390 681 c 2
 610 38 l 2
 612 31 613 25 613 20 c 0
 613 6 598 -2 563 -2 c 2
 519 -2 l 2
 490 -2 468 3 463 19 c 2
 423 141 l 1
 187 141 l 1
 147 19 l 2
 142 4 125 -2 101 -2 c 2
 61 -2 l 2
 19 -2 0 6 0 20 c 0
 0 25 2 31 4 38 c 2
 224 681 l 2
 230 697 252 702 281 702 c 2
 333 702 l 2
308 515 m 1
 304 515 l 1
 300 494 297 472 289 451 c 2
 230 273 l 1
 380 273 l 1
 323 451 l 2
 316 472 312 494 308 515 c 1
EndSplineSet
Position2: "'cpsp' Capital Spacing lookup 0 subtable" dx=5 dy=0 dh=10 dv=0
EndChar

StartChar: Agrave
Encoding: 192 192 5
Width: 613
GlyphClass: 2
Flags: MW
HStem: -2 21G 141 132<230 380 230 423 187 380> 682 20G<281 333 333 347.5> 752 159<213 364>
VStem: 0 613<13 22.5>
AnchorPoint: "Anchor-1" 304 877 basechar 0
AnchorPoint: "Anchor-0" 310 0 basechar 0
LayerCount: 2
Fore
SplineSet
233 911 m 0
 273 911 306 905 318 884 c 0
 364 803 383 778 383 767 c 0
 383 756 376 752 352 752 c 0
 305 752 288 765 277 777 c 0
 180 883 173 885 173 897 c 0
 173 908 193 911 233 911 c 0
333 702 m 2
 362 702 384 697 390 681 c 2
 610 38 l 2
 612 31 613 25 613 20 c 0
 613 6 598 -2 563 -2 c 2
 519 -2 l 2
 490 -2 468 3 463 19 c 2
 423 141 l 1
 187 141 l 1
 147 19 l 2
 142 4 125 -2 101 -2 c 2
 61 -2 l 2
 19 -2 0 6 0 20 c 0
 0 25 2 31 4 38 c 2
 224 681 l 2
 230 697 252 702 281 702 c 2
 333 702 l 2
308 515 m 1
 304 515 l 1
 300 494 297 472 289 451 c 2
 230 273 l 1
 380 273 l 1
 323 451 l 2
 316 472 312 494 308 515 c 1
EndSplineSet
Position2: "'cpsp' Capital Spacing lookup 0 subtable" dx=5 dy=0 dh=10 dv=0
EndChar

StartChar: uni1EA2
Encoding: 7842 7842 6
Width: 613
GlyphClass: 2
Flags: MW
HStem: -2 21G 141 132<230 380 230 423 187 380> 682 20G<281 333 333 347.5> 867 61<302.5 320>
VStem: 344 87<830 852>
AnchorPoint: "Anchor-1" 308 877 basechar 0
AnchorPoint: "Anchor-0" 310 0 basechar 0
LayerCount: 2
Fore
SplineSet
344 845 m 0
 344 859 328 867 312 867 c 0
 290 867 279 855 270 855 c 0
 262 855 240 882 240 897 c 0
 240 910 285 928 320 928 c 0
 392 928 431 898 431 849 c 0
 431 796 349 747 331 747 c 0
 307 747 277 762 277 770 c 0
 277 787 344 815 344 845 c 0
333 702 m 2
 362 702 384 697 390 681 c 2
 610 38 l 2
 612 31 613 25 613 20 c 0
 613 6 598 -2 563 -2 c 2
 519 -2 l 2
 490 -2 468 3 463 19 c 2
 423 141 l 1
 187 141 l 1
 147 19 l 2
 142 4 125 -2 101 -2 c 2
 61 -2 l 2
 19 -2 0 6 0 20 c 0
 0 25 2 31 4 38 c 2
 224 681 l 2
 230 697 252 702 281 702 c 2
 333 702 l 2
308 515 m 1
 304 515 l 1
 300 494 297 472 289 451 c 2
 230 273 l 1
 380 273 l 1
 323 451 l 2
 316 472 312 494 308 515 c 1
EndSplineSet
Position2: "'cpsp' Capital Spacing lookup 0 subtable" dx=5 dy=0 dh=10 dv=0
EndChar

StartChar: Amacron
Encoding: 256 256 7
Width: 613
GlyphClass: 2
Flags: MW
HStem: -2 21G 141 132<230 380 230 423 187 380> 682 20G<281 333 333 347.5> 774 95<189.5 415 200 415>
VStem: 0 613<13 22.5>
AnchorPoint: "Anchor-1" 306 877 basechar 0
AnchorPoint: "Anchor-0" 310 0 basechar 0
LayerCount: 2
Fore
SplineSet
415 869 m 2
 436 869 445 857 445 829 c 2
 445 814 l 2
 445 786 436 774 415 774 c 2
 200 774 l 2
 179 774 170 786 170 814 c 2
 170 829 l 2
 170 857 179 869 200 869 c 2
 415 869 l 2
333 702 m 2
 362 702 384 697 390 681 c 2
 610 38 l 2
 612 31 613 25 613 20 c 0
 613 6 598 -2 563 -2 c 2
 519 -2 l 2
 490 -2 468 3 463 19 c 2
 423 141 l 1
 187 141 l 1
 147 19 l 2
 142 4 125 -2 101 -2 c 2
 61 -2 l 2
 19 -2 0 6 0 20 c 0
 0 25 2 31 4 38 c 2
 224 681 l 2
 230 697 252 702 281 702 c 2
 333 702 l 2
308 515 m 1
 304 515 l 1
 300 494 297 472 289 451 c 2
 230 273 l 1
 380 273 l 1
 323 451 l 2
 316 472 312 494 308 515 c 1
EndSplineSet
Position2: "'cpsp' Capital Spacing lookup 0 subtable" dx=5 dy=0 dh=10 dv=0
EndChar

StartChar: Aring
Encoding: 197 197 8
Width: 613
GlyphClass: 2
Flags: MW
HStem: -2 21G 141 132<230 380 230 423 187 380> 682 20G<281 333 333 347.5> 727 62<297 317 297 335> 862 64<297 317>
VStem: 208 63<815 835 815 854> 344 63<815 835>
AnchorPoint: "Anchor-1" 308 877 basechar 0
AnchorPoint: "Anchor-0" 310 0 basechar 0
LayerCount: 2
Fore
SplineSet
307 926 m 0
 363 926 407 882 407 826 c 0
 407 770 363 727 307 727 c 0xfe
 251 727 208 770 208 826 c 0
 208 882 251 926 307 926 c 0
307 862 m 0
 287 862 271 845 271 825 c 0
 271 805 287 789 307 789 c 0xfe
 327 789 344 805 344 825 c 0
 344 845 327 862 307 862 c 0
333 702 m 2
 362 702 384 697 390 681 c 2
 610 38 l 2
 612 31 613 25 613 20 c 0
 613 6 598 -2 563 -2 c 2
 519 -2 l 2
 490 -2 468 3 463 19 c 2
 423 141 l 1
 187 141 l 1
 147 19 l 2
 142 4 125 -2 101 -2 c 2
 61 -2 l 2
 19 -2 0 6 0 20 c 0
 0 25 2 31 4 38 c 2
 224 681 l 2
 230 697 252 702 281 702 c 2
 333 702 l 2
308 515 m 1
 304 515 l 1
 300 494 297 472 289 451 c 2
 230 273 l 1
 380 273 l 1
 323 451 l 2
 316 472 312 494 308 515 c 1
EndSplineSet
Position2: "'cpsp' Capital Spacing lookup 0 subtable" dx=5 dy=0 dh=10 dv=0
EndChar

StartChar: Aringacute
Encoding: 506 506 9
Width: 613
GlyphClass: 2
Flags: MW
HStem: -2 21G 141 132<230 380 230 423 187 380> 732 64<297 317> 812 119<280 407>
VStem: 208 63<689 705 685 724> 344 63<688.5 705>
AnchorPoint: "Anchor-1" 308 747 basechar 0
AnchorPoint: "Anchor-0" 0 0 basechar 0
LayerCount: 2
Fore
SplineSet
292 812 m 0
 268 812 261 816 261 827 c 1
 277 864 287 881 302 904 c 0
 314 925 347 931 387 931 c 0
 427 931 447 928 447 917 c 0
 447 909 442 907 367 837 c 0
 356 825 339 812 292 812 c 0
610 38 m 2
 612 31 613 25 613 20 c 0
 613 6 598 -2 563 -2 c 2
 519 -2 l 2
 490 -2 468 3 463 19 c 2
 423 141 l 1
 187 141 l 1
 147 19 l 2
 142 4 125 -2 101 -2 c 2
 61 -2 l 2
 19 -2 0 6 0 20 c 0
 0 25 2 31 4 38 c 2
 216 657 l 1
 211 669 208 682 208 696 c 0
 208 752 251 796 307 796 c 0
 363 796 407 752 407 696 c 0xfc
 407 681 404 668 399 656 c 1
 610 38 l 2
307 732 m 0xfc
 287 732 271 715 271 695 c 0
 271 675 287 659 307 659 c 0
 327 659 344 675 344 695 c 0
 344 715 327 732 307 732 c 0xfc
230 273 m 1
 380 273 l 1
 323 451 l 2
 316 472 312 494 308 515 c 1
 304 515 l 1
 300 494 297 472 289 451 c 2
 230 273 l 1
EndSplineSet
Position2: "'cpsp' Capital Spacing lookup 0 subtable" dx=5 dy=0 dh=10 dv=0
EndChar

StartChar: Atilde
Encoding: 195 195 10
Width: 613
GlyphClass: 2
Flags: MW
HStem: -2 21G 141 132<230 380 230 423 187 380> 682 20G<281 333 333 347.5> 754.99 116.01 759 116.02
VStem: 0 613<13 22.5>
AnchorPoint: "Anchor-1" 311 877 basechar 0
AnchorPoint: "Anchor-0" 310 0 basechar 0
LayerCount: 2
Fore
SplineSet
228 871 m 0xf4
 262 871 336 844 369 842 c 0
 377 842 389 844 402 858 c 0
 417 877 428 877 442 873 c 2
 453 870 l 2
 477 863 479 843 473 829 c 0
 460 793 421 759 364 759 c 0xec
 330 759 256 786 223 788 c 0
 215 788 202 786 190 772 c 0
 175 753 164 753 150 757 c 2
 139 760 l 2
 114 767 113 787 119 801 c 0
 132 837 171 871 228 871 c 0xf4
333 702 m 2
 362 702 384 697 390 681 c 2
 610 38 l 2
 612 31 613 25 613 20 c 0
 613 6 598 -2 563 -2 c 2
 519 -2 l 2
 490 -2 468 3 463 19 c 2
 423 141 l 1
 187 141 l 1
 147 19 l 2
 142 4 125 -2 101 -2 c 2
 61 -2 l 2
 19 -2 0 6 0 20 c 0
 0 25 2 31 4 38 c 2
 224 681 l 2
 230 697 252 702 281 702 c 2
 333 702 l 2
308 515 m 1
 304 515 l 1
 300 494 297 472 289 451 c 2
 230 273 l 1
 380 273 l 1
 323 451 l 2
 316 472 312 494 308 515 c 1
EndSplineSet
Position2: "'cpsp' Capital Spacing lookup 0 subtable" dx=5 dy=0 dh=10 dv=0
EndChar

StartChar: B
Encoding: 66 66 11
Width: 593
GlyphClass: 2
Flags: MW
HStem: 0 131<95 321 223 321 223 321> 290 131<223 292 292 305 223 292> 570 130<223 294 223 223>
VStem: 69 154<131 290 421 570> 385 158<489 520.5> 413 158<186 238>
LayerCount: 2
Fore
SplineSet
307 700 m 2xf8
 476 700 543 628 543 523 c 0xf8
 543 455 495 396 435 371 c 1
 436 367 l 1
 516 351 571 280 571 203 c 0xf4
 571 74 490 0 321 0 c 2
 109 0 l 2
 81 0 69 12 69 40 c 2
 69 660 l 2
 69 688 81 700 109 700 c 2
 307 700 l 2xf8
294 570 m 2
 223 570 l 1
 223 421 l 1
 292 421 l 2
 352 421 385 454 385 496 c 0
 385 545 355 570 294 570 c 2
305 290 m 2
 223 290 l 1
 223 131 l 1
 321 131 l 2
 379 131 413 160 413 212 c 0xf4
 413 264 374 290 305 290 c 2
EndSplineSet
Position2: "'cpsp' Capital Spacing lookup 0 subtable" dx=5 dy=0 dh=10 dv=0
EndChar

StartChar: C
Encoding: 67 67 12
Width: 619
GlyphClass: 2
Flags: MW
HStem: -8 131<316.5 414> 576 132<317 423 268 423.5>
VStem: 45 158<276 426 276 471>
AnchorPoint: "Anchor-1" 368 700 basechar 0
AnchorPoint: "Anchor-0" 373 0 basechar 0
LayerCount: 2
Fore
SplineSet
379 708 m 0
 467 708 588 680 588 638 c 0
 588 610 548 544 523 544 c 0
 511 544 471 576 376 576 c 0
 258 576 203 501 203 351 c 0
 203 201 259 123 374 123 c 0
 469 123 523 163 538 163 c 0
 570 163 597 93 597 76 c 0
 597 16 454 -8 374 -8 c 0
 150 -8 45 105 45 352 c 0
 45 590 157 708 379 708 c 0
EndSplineSet
Position2: "'cpsp' Capital Spacing lookup 0 subtable" dx=5 dy=0 dh=10 dv=0
EndChar

StartChar: Ccedilla
Encoding: 199 199 13
Width: 619
GlyphClass: 2
Flags: MW
HStem: -212 73<327 356 326 394.5> -7 130<404 404> 576 132<317 423 268 423.5>
VStem: 45 158<276 426 276 471> 371 103<-127.5 -109.5>
AnchorPoint: "Anchor-1" 368 700 basechar 0
AnchorPoint: "Anchor-0" 351 -203 basechar 0
LayerCount: 2
Fore
SplineSet
597 76 m 0
 597 23 486 -2 404 -7 c 1
 397 -36 l 1
 432 -41 474 -61 474 -112 c 0
 474 -180 434 -212 355 -212 c 0
 299 -212 224 -194 224 -162 c 0
 224 -128 249 -118 256 -118 c 0
 279 -118 305 -139 347 -139 c 0
 365 -139 371 -133 371 -122 c 0
 371 -97 318 -98 318 -74 c 0
 318 -70 319 -65 338 -7 c 1
 139 5 45 119 45 352 c 0
 45 590 157 708 379 708 c 0
 467 708 588 680 588 638 c 0
 588 610 548 544 523 544 c 0
 511 544 471 576 376 576 c 0
 258 576 203 501 203 351 c 0
 203 201 259 123 374 123 c 0
 469 123 523 163 538 163 c 0
 570 163 597 93 597 76 c 0
EndSplineSet
Position2: "'cpsp' Capital Spacing lookup 0 subtable" dx=5 dy=0 dh=10 dv=0
EndChar

StartChar: D
Encoding: 68 68 14
Width: 695
GlyphClass: 2
Flags: MW
HStem: 0 131<95 333 224 333 224 333> 569 131<224 333 224 224>
VStem: 69 155<131 569 131 660 131 674> 495 158<279 421>
AnchorPoint: "Anchor-1" 333 700 basechar 0
AnchorPoint: "Anchor-0" 331 0 basechar 0
LayerCount: 2
Fore
SplineSet
333 700 m 2
 539 700 653 576 653 350 c 0
 653 124 539 0 333 0 c 2
 109 0 l 2
 81 0 69 12 69 40 c 2
 69 660 l 2
 69 688 81 700 109 700 c 2
 333 700 l 2
333 569 m 2
 224 569 l 1
 224 131 l 1
 333 131 l 2
 440 131 495 208 495 350 c 0
 495 492 440 569 333 569 c 2
EndSplineSet
Position2: "'cpsp' Capital Spacing lookup 0 subtable" dx=5 dy=0 dh=10 dv=0
EndChar

StartChar: E
Encoding: 69 69 15
Width: 546
GlyphClass: 2
Flags: MW
HStem: 0 131<95 476 223 476 223 476> 293 131<223 448 223 448> 569 131<223 475 223 223>
VStem: 69 154<131 293 424 569>
AnchorPoint: "Anchor-1" 295 700 basechar 0
AnchorPoint: "Anchor-0" 287 0 basechar 0
LayerCount: 2
Fore
SplineSet
475 700 m 2
 496 700 505 685 505 650 c 2
 505 619 l 2
 505 584 496 569 475 569 c 2
 223 569 l 1
 223 424 l 1
 448 424 l 2
 469 424 478 409 478 374 c 2
 478 343 l 2
 478 308 469 293 448 293 c 2
 223 293 l 1
 223 131 l 1
 476 131 l 2
 497 131 506 116 506 81 c 2
 506 50 l 2
 506 15 497 0 476 0 c 2
 109 0 l 2
 81 0 69 12 69 40 c 2
 69 660 l 2
 69 688 81 700 109 700 c 2
 475 700 l 2
EndSplineSet
Position2: "'cpsp' Capital Spacing lookup 0 subtable" dx=5 dy=0 dh=10 dv=0
EndChar

StartChar: Eacute
Encoding: 201 201 16
Width: 546
GlyphClass: 2
Flags: MW
HStem: 0 131<95 476 223 476 223 476> 293 131<223 448 223 448> 569 131<223 475 223 223> 752 159<244 395>
VStem: 69 154<131 293 424 569>
AnchorPoint: "Anchor-1" 301 877 basechar 0
AnchorPoint: "Anchor-0" 287 0 basechar 0
LayerCount: 2
Fore
SplineSet
375 911 m 0
 415 911 435 908 435 897 c 0
 435 885 428 883 331 777 c 0
 320 765 303 752 256 752 c 0
 232 752 225 756 225 767 c 0
 225 778 244 803 290 884 c 0
 302 905 335 911 375 911 c 0
475 700 m 2
 496 700 505 685 505 650 c 2
 505 619 l 2
 505 584 496 569 475 569 c 2
 223 569 l 1
 223 424 l 1
 448 424 l 2
 469 424 478 409 478 374 c 2
 478 343 l 2
 478 308 469 293 448 293 c 2
 223 293 l 1
 223 131 l 1
 476 131 l 2
 497 131 506 116 506 81 c 2
 506 50 l 2
 506 15 497 0 476 0 c 2
 109 0 l 2
 81 0 69 12 69 40 c 2
 69 660 l 2
 69 688 81 700 109 700 c 2
 475 700 l 2
EndSplineSet
Position2: "'cpsp' Capital Spacing lookup 0 subtable" dx=5 dy=0 dh=10 dv=0
EndChar

StartChar: Ecircumflex
Encoding: 202 202 17
Width: 546
GlyphClass: 2
Flags: MW
HStem: 0 131<95 476 223 476 223 476> 293 131<223 448 223 448> 569 131<223 475 223 223> 749 146<171 301 178 301 290 391 290 413>
VStem: 69 154<131 293 424 569>
AnchorPoint: "Anchor-1" 445 793 basechar 0
AnchorPoint: "Anchor-0" 287 0 basechar 0
LayerCount: 2
Fore
SplineSet
301 895 m 2
 330 895 351 894 362 876 c 2
 427 774 l 2
 431 768 433 763 433 759 c 0
 433 752 426 749 413 749 c 2
 391 749 l 2
 362 749 336 754 323 773 c 2
 295 813 l 1
 267 774 l 2
 252 753 229 749 200 749 c 2
 178 749 l 2
 164 749 158 752 158 759 c 0
 158 763 160 768 164 774 c 2
 229 876 l 2
 240 894 261 895 290 895 c 2
 301 895 l 2
475 700 m 2
 496 700 505 685 505 650 c 2
 505 619 l 2
 505 584 496 569 475 569 c 2
 223 569 l 1
 223 424 l 1
 448 424 l 2
 469 424 478 409 478 374 c 2
 478 343 l 2
 478 308 469 293 448 293 c 2
 223 293 l 1
 223 131 l 1
 476 131 l 2
 497 131 506 116 506 81 c 2
 506 50 l 2
 506 15 497 0 476 0 c 2
 109 0 l 2
 81 0 69 12 69 40 c 2
 69 660 l 2
 69 688 81 700 109 700 c 2
 475 700 l 2
EndSplineSet
Position2: "'cpsp' Capital Spacing lookup 0 subtable" dx=5 dy=0 dh=10 dv=0
EndChar

StartChar: Edieresis
Encoding: 203 203 18
Width: 546
GlyphClass: 2
Flags: MW
HStem: 0 131<95 476 223 476 223 476> 293 131<223 448 223 448> 569 131<223 475 223 223> 755 124<184 226 364 406>
VStem: 69 154<131 293 424 569> 145 120<787 847 776.5 857.5> 325 120<787 847 776.5 857.5>
AnchorPoint: "Anchor-1" 301 877 basechar 0
AnchorPoint: "Anchor-0" 287 0 basechar 0
LayerCount: 2
Fore
SplineSet
205 879 m 0xf6
 247 879 265 868 265 847 c 2
 265 787 l 2
 265 766 247 755 205 755 c 0
 163 755 145 766 145 787 c 2
 145 847 l 2
 145 868 163 879 205 879 c 0xf6
385 879 m 0
 427 879 445 868 445 847 c 2
 445 787 l 2
 445 766 427 755 385 755 c 0
 343 755 325 766 325 787 c 2
 325 847 l 2
 325 868 343 879 385 879 c 0
475 700 m 2
 496 700 505 685 505 650 c 2
 505 619 l 2
 505 584 496 569 475 569 c 2
 223 569 l 1
 223 424 l 1
 448 424 l 2
 469 424 478 409 478 374 c 2
 478 343 l 2
 478 308 469 293 448 293 c 2
 223 293 l 1
 223 131 l 1
 476 131 l 2
 497 131 506 116 506 81 c 2
 506 50 l 2
 506 15 497 0 476 0 c 2
 109 0 l 2
 81 0 69 12 69 40 c 2
 69 660 l 2
 69 688 81 700 109 700 c 2xea
 475 700 l 2
EndSplineSet
Position2: "'cpsp' Capital Spacing lookup 0 subtable" dx=5 dy=0 dh=10 dv=0
EndChar

StartChar: Egrave
Encoding: 200 200 19
Width: 546
GlyphClass: 2
Flags: MW
HStem: 0 131<95 476 223 476 223 476> 293 131<223 448 223 448> 569 131<223 475 223 223> 752 159<201 352>
VStem: 69 154<131 293 424 569>
AnchorPoint: "Anchor-1" 292 877 basechar 0
AnchorPoint: "Anchor-0" 287 0 basechar 0
LayerCount: 2
Fore
SplineSet
221 911 m 0
 261 911 294 905 306 884 c 0
 352 803 371 778 371 767 c 0
 371 756 364 752 340 752 c 0
 293 752 276 765 265 777 c 0
 168 883 161 885 161 897 c 0
 161 908 181 911 221 911 c 0
475 700 m 2
 496 700 505 685 505 650 c 2
 505 619 l 2
 505 584 496 569 475 569 c 2
 223 569 l 1
 223 424 l 1
 448 424 l 2
 469 424 478 409 478 374 c 2
 478 343 l 2
 478 308 469 293 448 293 c 2
 223 293 l 1
 223 131 l 1
 476 131 l 2
 497 131 506 116 506 81 c 2
 506 50 l 2
 506 15 497 0 476 0 c 2
 109 0 l 2
 81 0 69 12 69 40 c 2
 69 660 l 2
 69 688 81 700 109 700 c 2
 475 700 l 2
EndSplineSet
Position2: "'cpsp' Capital Spacing lookup 0 subtable" dx=5 dy=0 dh=10 dv=0
EndChar

StartChar: uni1EBA
Encoding: 7866 7866 20
Width: 546
GlyphClass: 2
Flags: MW
HStem: 0 131<95 476 223 476 223 476> 293 131<223 448 223 448> 569 131<223 475 223 223> 867 61<290.5 308>
VStem: 69 154<131 293 424 569> 332 87<830 852>
AnchorPoint: "Anchor-1" 296 877 basechar 0
AnchorPoint: "Anchor-0" 287 0 basechar 0
LayerCount: 2
Fore
SplineSet
332 845 m 0
 332 859 316 867 300 867 c 0
 278 867 267 855 258 855 c 0
 250 855 228 882 228 897 c 0
 228 910 273 928 308 928 c 0
 380 928 419 898 419 849 c 0
 419 796 337 747 319 747 c 0
 295 747 265 762 265 770 c 0
 265 787 332 815 332 845 c 0
475 700 m 2
 496 700 505 685 505 650 c 2
 505 619 l 2
 505 584 496 569 475 569 c 2
 223 569 l 1
 223 424 l 1
 448 424 l 2
 469 424 478 409 478 374 c 2
 478 343 l 2
 478 308 469 293 448 293 c 2
 223 293 l 1
 223 131 l 1
 476 131 l 2
 497 131 506 116 506 81 c 2
 506 50 l 2
 506 15 497 0 476 0 c 2
 109 0 l 2
 81 0 69 12 69 40 c 2
 69 660 l 2
 69 688 81 700 109 700 c 2
 475 700 l 2
EndSplineSet
Position2: "'cpsp' Capital Spacing lookup 0 subtable" dx=5 dy=0 dh=10 dv=0
EndChar

StartChar: Emacron
Encoding: 274 274 21
Width: 546
GlyphClass: 2
Flags: MW
HStem: 0 131<95 476 223 476 223 476> 293 131<223 448 223 448> 569 131<223 475 223 223> 774 95<177.5 403 188 403>
VStem: 69 154<131 293 424 569>
AnchorPoint: "Anchor-1" 294 877 basechar 0
AnchorPoint: "Anchor-0" 287 0 basechar 0
LayerCount: 2
Fore
SplineSet
403 869 m 2
 424 869 433 857 433 829 c 2
 433 814 l 2
 433 786 424 774 403 774 c 2
 188 774 l 2
 167 774 158 786 158 814 c 2
 158 829 l 2
 158 857 167 869 188 869 c 2
 403 869 l 2
475 700 m 2
 496 700 505 685 505 650 c 2
 505 619 l 2
 505 584 496 569 475 569 c 2
 223 569 l 1
 223 424 l 1
 448 424 l 2
 469 424 478 409 478 374 c 2
 478 343 l 2
 478 308 469 293 448 293 c 2
 223 293 l 1
 223 131 l 1
 476 131 l 2
 497 131 506 116 506 81 c 2
 506 50 l 2
 506 15 497 0 476 0 c 2
 109 0 l 2
 81 0 69 12 69 40 c 2
 69 660 l 2
 69 688 81 700 109 700 c 2
 475 700 l 2
EndSplineSet
Position2: "'cpsp' Capital Spacing lookup 0 subtable" dx=5 dy=0 dh=10 dv=0
EndChar

StartChar: uni1EBC
Encoding: 7868 7868 22
Width: 546
GlyphClass: 2
Flags: MW
HStem: 0 131<95 476 223 476 223 476> 293 131<223 448 223 448> 569 131<223 475 223 223> 754.99 116.01 759 116.02
VStem: 69 154<131 293 424 569>
AnchorPoint: "Anchor-1" 299 877 basechar 0
AnchorPoint: "Anchor-0" 287 0 basechar 0
LayerCount: 2
Fore
SplineSet
216 871 m 0xf4
 250 871 324 844 357 842 c 0
 365 842 377 844 390 858 c 0
 405 877 416 877 430 873 c 2
 441 870 l 2
 465 863 467 843 461 829 c 0
 448 793 409 759 352 759 c 0xec
 318 759 244 786 211 788 c 0
 203 788 190 786 178 772 c 0
 163 753 152 753 138 757 c 2
 127 760 l 2
 102 767 101 787 107 801 c 0
 120 837 159 871 216 871 c 0xf4
475 700 m 2
 496 700 505 685 505 650 c 2
 505 619 l 2
 505 584 496 569 475 569 c 2
 223 569 l 1
 223 424 l 1
 448 424 l 2
 469 424 478 409 478 374 c 2
 478 343 l 2
 478 308 469 293 448 293 c 2
 223 293 l 1
 223 131 l 1
 476 131 l 2
 497 131 506 116 506 81 c 2
 506 50 l 2
 506 15 497 0 476 0 c 2
 109 0 l 2
 81 0 69 12 69 40 c 2
 69 660 l 2
 69 688 81 700 109 700 c 2
 475 700 l 2
EndSplineSet
Position2: "'cpsp' Capital Spacing lookup 0 subtable" dx=5 dy=0 dh=10 dv=0
EndChar

StartChar: F
Encoding: 70 70 23
Width: 503
GlyphClass: 2
Flags: MW
HStem: -2 21G<108 129 129 163> 292 131<223 436 223 436> 569 131<223 443 223 223>
VStem: 69 154<30 292 423 569>
LayerCount: 2
Fore
SplineSet
443 700 m 2
 464 700 473 685 473 650 c 2
 473 619 l 2
 473 584 464 569 443 569 c 2
 223 569 l 1
 223 423 l 1
 436 423 l 2
 457 423 466 408 466 373 c 2
 466 342 l 2
 466 307 457 292 436 292 c 2
 223 292 l 1
 223 30 l 2
 223 9 205 -2 163 -2 c 2
 129 -2 l 2
 87 -2 69 9 69 30 c 2
 69 660 l 2
 69 688 81 700 109 700 c 2
 443 700 l 2
EndSplineSet
Position2: "'cpsp' Capital Spacing lookup 0 subtable" dx=5 dy=0 dh=10 dv=0
EndChar

StartChar: G
Encoding: 71 71 24
Width: 672
GlyphClass: 2
Flags: MW
HStem: -8 131<316.5 388 316.5 409.5> 257 132<353.5 567 364 452> 576 132<317 423 268 423.5>
VStem: 45 158<276 426 276 471> 452 155<130 257 257 257>
AnchorPoint: "Anchor-1" 350 700 basechar 0
AnchorPoint: "Anchor-0" 355 0 basechar 0
LayerCount: 2
Fore
SplineSet
379 708 m 0
 467 708 593 680 593 638 c 0
 593 610 553 544 528 544 c 0
 516 544 471 576 376 576 c 0
 258 576 203 501 203 351 c 0
 203 201 259 123 374 123 c 0
 402 123 425 125 452 130 c 1
 452 257 l 1
 364 257 l 2
 343 257 334 272 334 307 c 2
 334 339 l 2
 334 374 343 389 364 389 c 2
 567 389 l 2
 595 389 607 377 607 349 c 2
 607 71 l 2
 607 2 445 -8 374 -8 c 0
 150 -8 45 105 45 352 c 0
 45 590 157 708 379 708 c 0
EndSplineSet
Position2: "'cpsp' Capital Spacing lookup 0 subtable" dx=5 dy=0 dh=10 dv=0
EndChar

StartChar: H
Encoding: 72 72 25
Width: 733
GlyphClass: 2
Flags: MW
HStem: -2 21G<123 144 144 179 548 569 569 604> 291 132<239 509 239 509> 682 20G<144 179 179 200 569 604 604 625>
VStem: 84 155<30 291 423 670> 509 155<30 291 291 291 423 670>
AnchorPoint: "Anchor-1" 367 700 basechar 0
AnchorPoint: "Anchor-0" 381 0 basechar 0
LayerCount: 2
Fore
SplineSet
604 702 m 2
 646 702 664 691 664 670 c 2
 664 30 l 2
 664 9 646 -2 604 -2 c 2
 569 -2 l 2
 527 -2 509 9 509 30 c 2
 509 291 l 1
 239 291 l 1
 239 30 l 2
 239 9 221 -2 179 -2 c 2
 144 -2 l 2
 102 -2 84 9 84 30 c 2
 84 670 l 2
 84 691 102 702 144 702 c 2
 179 702 l 2
 221 702 239 691 239 670 c 2
 239 423 l 1
 509 423 l 1
 509 670 l 2
 509 691 527 702 569 702 c 2
 604 702 l 2
EndSplineSet
Position2: "'cpsp' Capital Spacing lookup 0 subtable" dx=5 dy=0 dh=10 dv=0
EndChar

StartChar: I
Encoding: 73 73 26
Width: 282
GlyphClass: 2
Flags: MW
HStem: -3 21G<102 123 123 158> 683 20G<123 158 158 179>
VStem: 63 155<30 670>
AnchorPoint: "Anchor-1" 141 700 basechar 0
AnchorPoint: "Anchor-0" 141 0 basechar 0
LayerCount: 2
Fore
SplineSet
158 703 m 2
 200 703 218 691 218 670 c 2
 218 30 l 2
 218 9 200 -3 158 -3 c 2
 123 -3 l 2
 81 -3 63 9 63 30 c 2
 63 670 l 2
 63 691 81 703 123 703 c 2
 158 703 l 2
EndSplineSet
Position2: "'cpsp' Capital Spacing lookup 0 subtable" dx=5 dy=0 dh=10 dv=0
EndChar

StartChar: Idieresis
Encoding: 207 207 27
Width: 282
GlyphClass: 2
Flags: MW
HStem: -3 21G<102 123 123 158> 683 20G<123 158 158 179> 755 124<30 72 210 252>
VStem: -9 120<787 847 776.5 857.5> 63 155<30 670> 171 120<787 847 776.5 857.5>
AnchorPoint: "Anchor-1" 147 877 basechar 0
AnchorPoint: "Anchor-0" 141 0 basechar 0
LayerCount: 2
Fore
SplineSet
51 879 m 0xf4
 93 879 111 868 111 847 c 2
 111 787 l 2
 111 766 93 755 51 755 c 0
 9 755 -9 766 -9 787 c 2
 -9 847 l 2
 -9 868 9 879 51 879 c 0xf4
231 879 m 0
 273 879 291 868 291 847 c 2
 291 787 l 2
 291 766 273 755 231 755 c 0
 189 755 171 766 171 787 c 2
 171 847 l 2
 171 868 189 879 231 879 c 0
158 703 m 2xe8
 200 703 218 691 218 670 c 2
 218 30 l 2
 218 9 200 -3 158 -3 c 2
 123 -3 l 2
 81 -3 63 9 63 30 c 2
 63 670 l 2
 63 691 81 703 123 703 c 2
 158 703 l 2xe8
EndSplineSet
Position2: "'cpsp' Capital Spacing lookup 0 subtable" dx=5 dy=0 dh=10 dv=0
EndChar

StartChar: Imacron
Encoding: 298 298 28
Width: 282
GlyphClass: 2
Flags: MW
HStem: -3 21G<102 123 123 158> 683 20G<123 158 158 179> 774 95<22.5 248 33 248>
VStem: 63 155<30 670>
AnchorPoint: "Anchor-1" 139 877 basechar 0
AnchorPoint: "Anchor-0" 141 0 basechar 0
LayerCount: 2
Fore
SplineSet
248 869 m 2
 269 869 278 857 278 829 c 2
 278 814 l 2
 278 786 269 774 248 774 c 2
 33 774 l 2
 12 774 3 786 3 814 c 2
 3 829 l 2
 3 857 12 869 33 869 c 2
 248 869 l 2
158 703 m 2
 200 703 218 691 218 670 c 2
 218 30 l 2
 218 9 200 -3 158 -3 c 2
 123 -3 l 2
 81 -3 63 9 63 30 c 2
 63 670 l 2
 63 691 81 703 123 703 c 2
 158 703 l 2
EndSplineSet
Position2: "'cpsp' Capital Spacing lookup 0 subtable" dx=5 dy=0 dh=10 dv=0
EndChar

StartChar: J
Encoding: 74 74 29
Width: 402
GlyphClass: 2
Flags: MW
HStem: -8 131<112 127 81 198.5> 683 20G<241 276 276 297>
VStem: 181 155<227 670>
AnchorPoint: "Anchor-1" 261 700 basechar 0
AnchorPoint: "Anchor-0" 0 0 basechar 0
LayerCount: 2
Fore
SplineSet
276 703 m 2
 318 703 336 691 336 670 c 2
 336 202 l 2
 336 75 273 -8 124 -8 c 0
 100 -8 0 -5 0 38 c 0
 0 56 10 128 41 131 c 0
 51 131 65 123 97 123 c 0
 157 123 181 154 181 227 c 2
 181 670 l 2
 181 691 199 703 241 703 c 2
 276 703 l 2
EndSplineSet
Position2: "'cpsp' Capital Spacing lookup 0 subtable" dx=5 dy=0 dh=10 dv=0
EndChar

StartChar: K
Encoding: 75 75 30
Width: 576
GlyphClass: 2
Flags: MW
HStem: -2 21G<108 129 129 164 462.5 477 477 535> 682 20G<129 164 164 185 462 509 509 528.5>
VStem: 69 155<30 320 402 670>
AnchorPoint: "Anchor-1" 308 700 basechar 0
AnchorPoint: "Anchor-0" 298 0 basechar 0
LayerCount: 2
Fore
SplineSet
509 702 m 2
 548 702 565 696 565 687 c 0
 565 682 563 675 557 666 c 2
 364 370 l 1
 583 34 l 2
 589 25 591 18 591 13 c 0
 591 4 574 -2 535 -2 c 2
 477 -2 l 2
 448 -2 425 2 416 17 c 2
 228 321 l 1
 224 320 l 1
 224 30 l 2
 224 9 206 -2 164 -2 c 2
 129 -2 l 2
 87 -2 69 9 69 30 c 2
 69 670 l 2
 69 691 87 702 129 702 c 2
 164 702 l 2
 206 702 224 691 224 670 c 2
 224 402 l 1
 228 401 l 1
 402 683 l 2
 411 698 433 702 462 702 c 2
 509 702 l 2
EndSplineSet
Position2: "'cpsp' Capital Spacing lookup 0 subtable" dx=5 dy=0 dh=10 dv=0
EndChar

StartChar: L
Encoding: 76 76 31
Width: 484
GlyphClass: 2
Flags: MW
HStem: 0 131<95 446 223 446 223 446> 682 20G<129 163 163 184>
VStem: 69 154<131 670 131 670 131 680.5>
AnchorPoint: "Anchor-1" 150 700 basechar 0
AnchorPoint: "Anchor-0" 242 0 basechar 0
LayerCount: 2
Fore
SplineSet
163 702 m 2
 205 702 223 691 223 670 c 2
 223 131 l 1
 446 131 l 2
 467 131 476 116 476 81 c 2
 476 50 l 2
 476 15 467 0 446 0 c 2
 109 0 l 2
 81 0 69 12 69 40 c 2
 69 670 l 2
 69 691 87 702 129 702 c 2
 163 702 l 2
EndSplineSet
Position2: "'cpsp' Capital Spacing lookup 0 subtable" dx=5 dy=0 dh=10 dv=0
EndChar

StartChar: M
Encoding: 77 77 32
Width: 843
GlyphClass: 2
Flags: MW
HStem: -2 21G<108 129 129 158 664 685 685 714> 682 20G<129 182 182 196.5 662 714 714 735>
VStem: 69 149<30 444> 625 149<30 444 444 444>
LayerCount: 2
Fore
SplineSet
714 702 m 2
 756 702 774 691 774 670 c 2
 774 30 l 2
 774 9 756 -2 714 -2 c 2
 685 -2 l 2
 643 -2 625 9 625 30 c 2
 625 444 l 1
 621 445 l 1
 476 186 l 2
 467 174 455 167 436 167 c 2
 407 167 l 2
 388 167 376 174 367 186 c 2
 222 445 l 1
 218 444 l 1
 218 30 l 2
 218 9 200 -2 158 -2 c 2
 129 -2 l 2
 87 -2 69 9 69 30 c 2
 69 670 l 2
 69 691 87 702 129 702 c 2
 182 702 l 2
 211 702 234 695 245 675 c 2
 413 376 l 1
 421 362 l 1
 430 379 l 1
 599 675 l 2
 610 695 633 702 662 702 c 2
 714 702 l 2
EndSplineSet
Position2: "'cpsp' Capital Spacing lookup 0 subtable" dx=5 dy=0 dh=10 dv=0
EndChar

StartChar: N
Encoding: 78 78 33
Width: 719
GlyphClass: 2
Flags: MW
HStem: -2 21G<108 129 129 158 537.5 552 552 590> 682 20G<129 172 172 186.5 561 590 590 611>
VStem: 69 149<30 435> 501 149<270 670>
AnchorPoint: "Anchor-1" 360 700 basechar 0
AnchorPoint: "Anchor-0" 360 0 basechar 0
LayerCount: 2
Fore
SplineSet
590 702 m 2
 632 702 650 691 650 670 c 2
 650 30 l 2
 650 9 632 -2 590 -2 c 2
 552 -2 l 2
 523 -2 501 2 486 25 c 2
 218 435 l 1
 218 30 l 2
 218 9 200 -2 158 -2 c 2
 129 -2 l 2
 87 -2 69 9 69 30 c 2
 69 670 l 2
 69 691 87 702 129 702 c 2
 172 702 l 2
 201 702 223 698 238 675 c 2
 474 311 l 1
 501 270 l 1
 501 670 l 2
 501 691 519 702 561 702 c 2
 590 702 l 2
EndSplineSet
Position2: "'cpsp' Capital Spacing lookup 0 subtable" dx=5 dy=0 dh=10 dv=0
EndChar

StartChar: Ntilde
Encoding: 209 209 34
Width: 719
GlyphClass: 2
Flags: MW
HStem: -2 21G<108 129 129 158 537.5 552 552 590> 682 20G<129 172 172 186.5 561 590 590 611> 754.99 116.01 759 116.02
VStem: 69 149<30 435> 501 149<270 670>
AnchorPoint: "Anchor-1" 364 877 basechar 0
AnchorPoint: "Anchor-0" 360 0 basechar 0
LayerCount: 2
Fore
SplineSet
281 871 m 0xec
 315 871 389 844 422 842 c 0
 430 842 442 844 455 858 c 0
 470 877 481 877 495 873 c 2
 506 870 l 2
 530 863 532 843 526 829 c 0
 513 793 474 759 417 759 c 0xdc
 383 759 309 786 276 788 c 0
 268 788 255 786 243 772 c 0
 228 753 217 753 203 757 c 2
 192 760 l 2
 167 767 166 787 172 801 c 0
 185 837 224 871 281 871 c 0xec
590 702 m 2xdc
 632 702 650 691 650 670 c 2
 650 30 l 2
 650 9 632 -2 590 -2 c 2
 552 -2 l 2
 523 -2 501 2 486 25 c 2
 218 435 l 1
 218 30 l 2
 218 9 200 -2 158 -2 c 2
 129 -2 l 2
 87 -2 69 9 69 30 c 2
 69 670 l 2
 69 691 87 702 129 702 c 2
 172 702 l 2
 201 702 223 698 238 675 c 2
 474 311 l 1
 501 270 l 1
 501 670 l 2
 501 691 519 702 561 702 c 2
 590 702 l 2xdc
EndSplineSet
Position2: "'cpsp' Capital Spacing lookup 0 subtable" dx=5 dy=0 dh=10 dv=0
EndChar

StartChar: O
Encoding: 79 79 35
Width: 731
GlyphClass: 2
Flags: MW
HStem: -8 131<312.5 419.5 312.5 469> 576 132<312.5 419.5>
VStem: 45 158<276.5 423.5 276.5 465.5> 528 158<276.5 423.5>
AnchorPoint: "Anchor-1" 366 700 basechar 0
AnchorPoint: "Anchor-0" 367 0 basechar 0
LayerCount: 2
Fore
SplineSet
366 708 m 0
 572 708 686 581 686 350 c 0
 686 119 572 -8 366 -8 c 0
 160 -8 45 119 45 350 c 0
 45 581 160 708 366 708 c 0
366 576 m 0
 259 576 203 497 203 350 c 0
 203 203 259 123 366 123 c 0
 473 123 528 203 528 350 c 0
 528 497 473 576 366 576 c 0
EndSplineSet
Substitution2: "Single Substitution lookup 21 subtable" ordmasculine
Substitution2: "'aalt' Access All Alternates lookup 0 subtable" ordmasculine
Position2: "'cpsp' Capital Spacing lookup 0 subtable" dx=5 dy=0 dh=10 dv=0
EndChar

StartChar: Ocircumflex
Encoding: 212 212 36
Width: 731
GlyphClass: 2
Flags: MW
HStem: -8 131<312.5 419.5 312.5 469> 576 132<312.5 419.5> 749 146<242 372 249 372 361 462 361 484>
VStem: 45 158<276.5 423.5 276.5 465.5> 528 158<276.5 423.5>
AnchorPoint: "Anchor-1" 516 793 basechar 0
AnchorPoint: "Anchor-0" 367 0 basechar 0
LayerCount: 2
Fore
SplineSet
372 895 m 2
 401 895 422 894 433 876 c 2
 498 774 l 2
 502 768 504 763 504 759 c 0
 504 752 497 749 484 749 c 2
 462 749 l 2
 433 749 407 754 394 773 c 2
 366 813 l 1
 338 774 l 2
 323 753 300 749 271 749 c 2
 249 749 l 2
 235 749 229 752 229 759 c 0
 229 763 231 768 235 774 c 2
 300 876 l 2
 311 894 332 895 361 895 c 2
 372 895 l 2
366 708 m 0
 572 708 686 581 686 350 c 0
 686 119 572 -8 366 -8 c 0
 160 -8 45 119 45 350 c 0
 45 581 160 708 366 708 c 0
366 576 m 0
 259 576 203 497 203 350 c 0
 203 203 259 123 366 123 c 0
 473 123 528 203 528 350 c 0
 528 497 473 576 366 576 c 0
EndSplineSet
Position2: "'cpsp' Capital Spacing lookup 0 subtable" dx=5 dy=0 dh=10 dv=0
EndChar

StartChar: Odieresis
Encoding: 214 214 37
Width: 731
GlyphClass: 2
Flags: MW
HStem: -8 131<312.5 419.5 312.5 469> 576 132<312.5 419.5> 755 124<255 297 435 477>
VStem: 45 158<276.5 423.5 276.5 465.5> 216 120<787 847 776.5 857.5> 396 120<787 847 776.5 857.5> 528 158<276.5 423.5>
AnchorPoint: "Anchor-1" 372 877 basechar 0
AnchorPoint: "Anchor-0" 367 0 basechar 0
LayerCount: 2
Fore
SplineSet
276 879 m 0
 318 879 336 868 336 847 c 2
 336 787 l 2
 336 766 318 755 276 755 c 0
 234 755 216 766 216 787 c 2
 216 847 l 2
 216 868 234 879 276 879 c 0
456 879 m 0
 498 879 516 868 516 847 c 2
 516 787 l 2
 516 766 498 755 456 755 c 0
 414 755 396 766 396 787 c 2
 396 847 l 2
 396 868 414 879 456 879 c 0
366 708 m 0xf2
 572 708 686 581 686 350 c 0
 686 119 572 -8 366 -8 c 0
 160 -8 45 119 45 350 c 0
 45 581 160 708 366 708 c 0xf2
366 576 m 0
 259 576 203 497 203 350 c 0
 203 203 259 123 366 123 c 0
 473 123 528 203 528 350 c 0
 528 497 473 576 366 576 c 0
EndSplineSet
Position2: "'cpsp' Capital Spacing lookup 0 subtable" dx=5 dy=0 dh=10 dv=0
EndChar

StartChar: Omacron
Encoding: 332 332 38
Width: 731
GlyphClass: 2
Flags: MW
HStem: -8 131<312.5 419.5 312.5 469> 576 132<312.5 419.5> 774 95<248.5 474 259 474>
VStem: 45 158<276.5 423.5 276.5 465.5> 528 158<276.5 423.5>
AnchorPoint: "Anchor-1" 365 877 basechar 0
AnchorPoint: "Anchor-0" 367 0 basechar 0
LayerCount: 2
Fore
SplineSet
474 869 m 2
 495 869 504 857 504 829 c 2
 504 814 l 2
 504 786 495 774 474 774 c 2
 259 774 l 2
 238 774 229 786 229 814 c 2
 229 829 l 2
 229 857 238 869 259 869 c 2
 474 869 l 2
366 708 m 0
 572 708 686 581 686 350 c 0
 686 119 572 -8 366 -8 c 0
 160 -8 45 119 45 350 c 0
 45 581 160 708 366 708 c 0
366 576 m 0
 259 576 203 497 203 350 c 0
 203 203 259 123 366 123 c 0
 473 123 528 203 528 350 c 0
 528 497 473 576 366 576 c 0
EndSplineSet
Position2: "'cpsp' Capital Spacing lookup 0 subtable" dx=5 dy=0 dh=10 dv=0
EndChar

StartChar: Oslash
Encoding: 216 216 39
Width: 731
GlyphClass: 2
Flags: MW
HStem: -8 131<340 419.5 340 469> 576 132<312.5 385.5>
VStem: 45 158<333 423.5 333 465.5> 528 158<276.5 374.5>
AnchorPoint: "Anchor-1" 366 700 basechar 0
AnchorPoint: "Anchor-0" 0 0 basechar 0
LayerCount: 2
Fore
SplineSet
366 708 m 0
 444 708 510 689 560 653 c 1
 612 712 l 2
 619 720 626 724 634 724 c 0
 651 724 682 696 682 678 c 0
 682 672 679 665 672 658 c 2
 618 597 l 1
 662 537 686 454 686 350 c 0
 686 119 572 -8 366 -8 c 0
 274 -8 200 17 147 66 c 1
 89 0 l 2
 82 -8 74 -12 67 -12 c 0
 51 -12 19 15 19 34 c 0
 19 40 22 47 29 54 c 2
 95 129 l 1
 62 186 45 260 45 350 c 0
 45 581 160 708 366 708 c 0
366 576 m 0
 259 576 203 497 203 350 c 0
 203 316 206 287 211 260 c 1
 463 544 l 1
 438 565 405 576 366 576 c 0
509 474 m 1
 247 178 l 1
 274 142 314 123 366 123 c 0
 473 123 528 203 528 350 c 0
 528 399 521 441 509 474 c 1
EndSplineSet
Position2: "'cpsp' Capital Spacing lookup 0 subtable" dx=5 dy=0 dh=10 dv=0
EndChar

StartChar: Otilde
Encoding: 213 213 40
Width: 731
GlyphClass: 2
Flags: MW
HStem: -8 131<312.5 419.5 312.5 469> 576 132<312.5 419.5> 754.99 116.01 759 116.02
VStem: 45 158<276.5 423.5 276.5 465.5> 528 158<276.5 423.5>
AnchorPoint: "Anchor-1" 370 877 basechar 0
AnchorPoint: "Anchor-0" 367 0 basechar 0
LayerCount: 2
Fore
SplineSet
287 871 m 0xec
 321 871 395 844 428 842 c 0
 436 842 448 844 461 858 c 0
 476 877 487 877 501 873 c 2
 512 870 l 2
 536 863 538 843 532 829 c 0
 519 793 480 759 423 759 c 0xdc
 389 759 315 786 282 788 c 0
 274 788 261 786 249 772 c 0
 234 753 223 753 209 757 c 2
 198 760 l 2
 173 767 172 787 178 801 c 0
 191 837 230 871 287 871 c 0xec
366 708 m 0
 572 708 686 581 686 350 c 0
 686 119 572 -8 366 -8 c 0
 160 -8 45 119 45 350 c 0
 45 581 160 708 366 708 c 0
366 576 m 0
 259 576 203 497 203 350 c 0
 203 203 259 123 366 123 c 0
 473 123 528 203 528 350 c 0
 528 497 473 576 366 576 c 0
EndSplineSet
Position2: "'cpsp' Capital Spacing lookup 0 subtable" dx=5 dy=0 dh=10 dv=0
EndChar

StartChar: OE
Encoding: 338 338 41
Width: 1021
GlyphClass: 2
Flags: MW
HStem: -8 131<312.5 389.5> 0 131<556.5 937 684 937 684 937> 293 131<684 909 684 909> 569 131<684 936 684 684> 576 132<312.5 390 256 419.5>
VStem: 45 158<276.5 423.5 276.5 465.5> 528 156<276.5 293 131 423.5>
AnchorPoint: "Anchor-1" 511 700 basechar 0
AnchorPoint: "Anchor-0" 0 0 basechar 0
LayerCount: 2
Fore
SplineSet
937 131 m 2x76
 958 131 967 116 967 81 c 2
 967 50 l 2
 967 15 958 0 937 0 c 2
 570 0 l 2x76
 543 0 531 11 530 37 c 1
 481 7 423 -8 356 -8 c 0
 156 -8 45 119 45 350 c 0
 45 581 156 708 356 708 c 0xae
 424 708 481 693 530 662 c 1
 530 688 542 700 570 700 c 2
 936 700 l 2
 957 700 966 685 966 650 c 2
 966 619 l 2
 966 584 957 569 936 569 c 2
 684 569 l 1
 684 424 l 1
 909 424 l 2
 930 424 939 409 939 374 c 2
 939 343 l 2
 939 308 930 293 909 293 c 2
 684 293 l 1
 684 131 l 1
 937 131 l 2x76
366 123 m 0xae
 473 123 528 203 528 350 c 0
 528 497 473 576 366 576 c 0
 259 576 203 497 203 350 c 0
 203 203 259 123 366 123 c 0xae
EndSplineSet
Position2: "'cpsp' Capital Spacing lookup 0 subtable" dx=5 dy=0 dh=10 dv=0
EndChar

StartChar: P
Encoding: 80 80 42
Width: 570
GlyphClass: 2
Flags: MW
HStem: -2 21G<108 129 129 163> 262 132<223 312 312 329 223 312> 569 131<223 312 223 223>
VStem: 69 154<30 262 394 569> 399 158<445 517>
LayerCount: 2
Fore
SplineSet
319 700 m 2
 408 700 557 674 557 481 c 0
 557 288 383 262 329 262 c 2
 223 262 l 1
 223 30 l 2
 223 9 205 -2 163 -2 c 2
 129 -2 l 2
 87 -2 69 9 69 30 c 2
 69 660 l 2
 69 688 81 700 109 700 c 2
 319 700 l 2
312 569 m 2
 223 569 l 1
 223 394 l 1
 312 394 l 2
 350 394 399 409 399 481 c 0
 399 553 350 569 312 569 c 2
EndSplineSet
Position2: "'cpsp' Capital Spacing lookup 0 subtable" dx=5 dy=0 dh=10 dv=0
EndChar

StartChar: Q
Encoding: 81 81 43
Width: 731
GlyphClass: 2
Flags: MW
HStem: 576 132<312.5 419.5>
VStem: 45 158<275 423.5 275 465.5> 528 158<275 423.5>
LayerCount: 2
Fore
SplineSet
366 708 m 0
 572 708 686 581 686 350 c 0
 686 192 630 83 529 31 c 1
 529 27 l 1
 682 -28 l 2
 691 -31 696 -37 696 -44 c 0
 696 -60 673 -146 641 -146 c 0
 631 -146 634 -145 227 16 c 0
 109 62 45 177 45 350 c 0
 45 581 160 708 366 708 c 0
366 576 m 0
 259 576 203 497 203 350 c 0
 203 200 259 119 366 119 c 0
 473 119 528 200 528 350 c 0
 528 497 473 576 366 576 c 0
EndSplineSet
Position2: "'cpsp' Capital Spacing lookup 0 subtable" dx=5 dy=0 dh=10 dv=0
EndChar

StartChar: R
Encoding: 82 82 44
Width: 610
GlyphClass: 2
Flags: MW
HStem: -2 21G 274 133<223 262 223 318> 569 131<223 304 304 311 223 223>
VStem: 69 154<30 274 407 569> 395 158<473.5 516>
AnchorPoint: "Anchor-1" 305 700 basechar 0
AnchorPoint: "Anchor-0" 305 0 basechar 0
LayerCount: 2
Fore
SplineSet
304 700 m 2
 477 700 553 632 553 512 c 0
 553 435 505 379 436 353 c 1
 436 349 l 1
 461 339 491 300 508 257 c 2
 596 37 l 2
 599 29 601 23 601 18 c 0
 601 6 582 -2 541 -2 c 2
 500 -2 l 2
 471 -2 448 3 442 19 c 2
 363 214 l 2
 343 254 327 274 262 274 c 2
 223 274 l 1
 223 30 l 2
 223 9 205 -2 163 -2 c 2
 129 -2 l 2
 87 -2 69 9 69 30 c 2
 69 660 l 2
 69 688 81 700 109 700 c 2
 304 700 l 2
311 569 m 2
 223 569 l 1
 223 407 l 1
 318 407 l 2
 359 407 395 445 395 493 c 0
 395 539 363 569 311 569 c 2
EndSplineSet
Position2: "'cpsp' Capital Spacing lookup 0 subtable" dx=5 dy=0 dh=10 dv=0
EndChar

StartChar: S
Encoding: 83 83 45
Width: 500
GlyphClass: 2
Flags: MW
HStem: -8 131<191 252.5 191 311.5> 576 132<248 320.5>
VStem: 36 158<492.5 531.5 492.5 578> 325 158<164.5 223>
AnchorPoint: "Anchor-1" 250 700 basechar 0
AnchorPoint: "Anchor-0" 250 0 basechar 0
LayerCount: 2
Fore
SplineSet
273 708 m 0
 379 708 453 671 453 638 c 0
 453 611 422 551 398 551 c 0
 385 551 354 576 287 576 c 0
 209 576 194 543 194 520 c 0
 194 465 243 445 301 422 c 0
 383 388 483 347 483 211 c 0
 483 48 366 -8 257 -8 c 0
 105 -8 22 46 22 80 c 0
 22 111 63 169 84 169 c 0
 102 169 151 123 231 123 c 0
 274 123 325 136 325 193 c 0
 325 253 246 270 171 305 c 0
 102 338 36 386 36 506 c 0
 36 650 156 708 273 708 c 0
EndSplineSet
Position2: "'cpsp' Capital Spacing lookup 0 subtable" dx=5 dy=0 dh=10 dv=0
EndChar

StartChar: T
Encoding: 84 84 46
Width: 549
GlyphClass: 2
Flags: MW
HStem: -2 21G<236 257 257 292> 569 131<27.5 511 38 197 352 511 352 352>
VStem: 197 155<30 569>
AnchorPoint: "Anchor-1" 275 700 basechar 0
AnchorPoint: "Anchor-0" 275 0 basechar 0
LayerCount: 2
Fore
SplineSet
511 700 m 2
 532 700 541 685 541 650 c 2
 541 619 l 2
 541 584 532 569 511 569 c 2
 352 569 l 1
 352 30 l 2
 352 9 334 -2 292 -2 c 2
 257 -2 l 2
 215 -2 197 9 197 30 c 2
 197 569 l 1
 38 569 l 2
 17 569 8 584 8 619 c 2
 8 650 l 2
 8 685 17 700 38 700 c 2
 511 700 l 2
EndSplineSet
Position2: "'cpsp' Capital Spacing lookup 0 subtable" dx=5 dy=0 dh=10 dv=0
EndChar

StartChar: U
Encoding: 85 85 47
Width: 712
GlyphClass: 2
Flags: MW
HStem: -8 131<315.5 396.5 315.5 447.5> 682 20G<126 160 160 181 553 586 586 607>
VStem: 66 154<234 244 244 670> 493 153<244 670>
AnchorPoint: "Anchor-1" 356 700 basechar 0
AnchorPoint: "Anchor-0" 356 0 basechar 0
LayerCount: 2
Fore
SplineSet
586 702 m 2
 628 702 646 691 646 670 c 2
 646 234 l 2
 646 80 539 -8 356 -8 c 0
 173 -8 66 80 66 234 c 2
 66 670 l 2
 66 691 84 702 126 702 c 2
 160 702 l 2
 202 702 220 691 220 670 c 2
 220 244 l 2
 220 174 275 123 356 123 c 0
 437 123 493 174 493 244 c 2
 493 670 l 2
 493 691 511 702 553 702 c 2
 586 702 l 2
EndSplineSet
Position2: "'cpsp' Capital Spacing lookup 0 subtable" dx=5 dy=0 dh=10 dv=0
EndChar

StartChar: Udieresis
Encoding: 220 220 48
Width: 712
GlyphClass: 2
Flags: MW
HStem: -8 131<315.5 396.5 315.5 447.5> 682 20G<126 160 160 181 553 586 586 607> 755 124<245 287 425 467>
VStem: 66 154<234 244 244 670> 206 120<787 847 776.5 857.5> 386 120<787 847 776.5 857.5> 493 153<244 670>
AnchorPoint: "Anchor-1" 362 877 basechar 0
AnchorPoint: "Anchor-0" 356 0 basechar 0
LayerCount: 2
Fore
SplineSet
266 879 m 0xec
 308 879 326 868 326 847 c 2
 326 787 l 2
 326 766 308 755 266 755 c 0
 224 755 206 766 206 787 c 2
 206 847 l 2
 206 868 224 879 266 879 c 0xec
446 879 m 0
 488 879 506 868 506 847 c 2
 506 787 l 2
 506 766 488 755 446 755 c 0
 404 755 386 766 386 787 c 2
 386 847 l 2
 386 868 404 879 446 879 c 0
586 702 m 2xf2
 628 702 646 691 646 670 c 2
 646 234 l 2
 646 80 539 -8 356 -8 c 0
 173 -8 66 80 66 234 c 2
 66 670 l 2
 66 691 84 702 126 702 c 2
 160 702 l 2
 202 702 220 691 220 670 c 2
 220 244 l 2
 220 174 275 123 356 123 c 0
 437 123 493 174 493 244 c 2
 493 670 l 2
 493 691 511 702 553 702 c 2
 586 702 l 2xf2
EndSplineSet
Position2: "'cpsp' Capital Spacing lookup 0 subtable" dx=5 dy=0 dh=10 dv=0
EndChar

StartChar: Umacron
Encoding: 362 362 49
Width: 712
GlyphClass: 2
Flags: MW
HStem: -8 131<315.5 396.5 315.5 447.5> 682 20G<126 160 160 181 553 586 586 607> 774 95<238.5 464 249 464>
VStem: 66 154<234 244 244 670> 493 153<244 670>
AnchorPoint: "Anchor-1" 355 877 basechar 0
AnchorPoint: "Anchor-0" 356 0 basechar 0
LayerCount: 2
Fore
SplineSet
464 869 m 2
 485 869 494 857 494 829 c 2
 494 814 l 2
 494 786 485 774 464 774 c 2
 249 774 l 2
 228 774 219 786 219 814 c 2
 219 829 l 2
 219 857 228 869 249 869 c 2
 464 869 l 2
586 702 m 2
 628 702 646 691 646 670 c 2
 646 234 l 2
 646 80 539 -8 356 -8 c 0
 173 -8 66 80 66 234 c 2
 66 670 l 2
 66 691 84 702 126 702 c 2
 160 702 l 2
 202 702 220 691 220 670 c 2
 220 244 l 2
 220 174 275 123 356 123 c 0
 437 123 493 174 493 244 c 2
 493 670 l 2
 493 691 511 702 553 702 c 2
 586 702 l 2
EndSplineSet
Position2: "'cpsp' Capital Spacing lookup 0 subtable" dx=5 dy=0 dh=10 dv=0
EndChar

StartChar: Uring
Encoding: 366 366 50
Width: 712
GlyphClass: 2
Flags: MW
HStem: -8 131<315.5 396.5 315.5 447.5> 682 20G<126 160 160 181 553 586 586 607> 727 62<346 366 346 384> 862 64<346 366>
VStem: 66 154<234 244 244 670> 257 63<815 835 815 854> 393 63<815 835> 493 153<244 670>
AnchorPoint: "Anchor-1" 357 877 basechar 0
AnchorPoint: "Anchor-0" 356 0 basechar 0
LayerCount: 2
Fore
SplineSet
356 926 m 0
 412 926 456 882 456 826 c 0
 456 770 412 727 356 727 c 0xff
 300 727 257 770 257 826 c 0
 257 882 300 926 356 926 c 0
356 862 m 0
 336 862 320 845 320 825 c 0
 320 805 336 789 356 789 c 0xff
 376 789 393 805 393 825 c 0
 393 845 376 862 356 862 c 0
586 702 m 2
 628 702 646 691 646 670 c 2
 646 234 l 2
 646 80 539 -8 356 -8 c 0
 173 -8 66 80 66 234 c 2
 66 670 l 2
 66 691 84 702 126 702 c 2
 160 702 l 2
 202 702 220 691 220 670 c 2
 220 244 l 2
 220 174 275 123 356 123 c 0
 437 123 493 174 493 244 c 2
 493 670 l 2
 493 691 511 702 553 702 c 2
 586 702 l 2
EndSplineSet
Position2: "'cpsp' Capital Spacing lookup 0 subtable" dx=5 dy=0 dh=10 dv=0
EndChar

StartChar: Utilde
Encoding: 360 360 51
Width: 712
GlyphClass: 2
Flags: MW
HStem: -8 131<315.5 396.5 315.5 447.5> 682 20G<126 160 160 181 553 586 586 607> 754.99 116.01 759 116.02
VStem: 66 154<234 244 244 670> 493 153<244 670>
AnchorPoint: "Anchor-1" 360 877 basechar 0
AnchorPoint: "Anchor-0" 356 0 basechar 0
LayerCount: 2
Fore
SplineSet
277 871 m 0xec
 311 871 385 844 418 842 c 0
 426 842 438 844 451 858 c 0
 466 877 477 877 491 873 c 2
 502 870 l 2
 526 863 528 843 522 829 c 0
 509 793 470 759 413 759 c 0xdc
 379 759 305 786 272 788 c 0
 264 788 251 786 239 772 c 0
 224 753 213 753 199 757 c 2
 188 760 l 2
 163 767 162 787 168 801 c 0
 181 837 220 871 277 871 c 0xec
586 702 m 2xdc
 628 702 646 691 646 670 c 2
 646 234 l 2
 646 80 539 -8 356 -8 c 0
 173 -8 66 80 66 234 c 2
 66 670 l 2
 66 691 84 702 126 702 c 2
 160 702 l 2
 202 702 220 691 220 670 c 2
 220 244 l 2
 220 174 275 123 356 123 c 0
 437 123 493 174 493 244 c 2
 493 670 l 2
 493 691 511 702 553 702 c 2
 586 702 l 2xdc
EndSplineSet
Position2: "'cpsp' Capital Spacing lookup 0 subtable" dx=5 dy=0 dh=10 dv=0
EndChar

StartChar: V
Encoding: 86 86 52
Width: 617
GlyphClass: 2
Flags: MW
HStem: -2 21G 682 20G<66 99 99 113.5 517 548 548 569>
VStem: 5 603<677.5 687>
LayerCount: 2
Fore
SplineSet
548 702 m 2
 590 702 608 694 608 680 c 0
 608 675 607 669 605 662 c 2
 389 19 l 2
 384 3 362 -2 333 -2 c 2
 281 -2 l 2
 252 -2 230 3 225 19 c 2
 9 662 l 2
 7 669 5 675 5 680 c 0
 5 694 24 702 66 702 c 2
 99 702 l 2
 128 702 151 695 158 673 c 2
 293 240 l 1
 304 205 l 1
 308 205 l 1
 319 240 l 1
 458 673 l 2
 465 694 488 702 517 702 c 2
 548 702 l 2
EndSplineSet
Position2: "'cpsp' Capital Spacing lookup 0 subtable" dx=5 dy=0 dh=10 dv=0
EndChar

StartChar: W
Encoding: 87 87 53
Width: 882
GlyphClass: 2
Flags: MW
HStem: -2 21G 682 20G<58 84 84 103.5 428 466 466 482 813 824 824 845.5>
VStem: -4 890<674 684>
AnchorPoint: "Anchor-1" 441 700 basechar 0
AnchorPoint: "Anchor-0" 0 0 basechar 0
LayerCount: 2
Fore
SplineSet
824 702 m 2
 867 702 886 692 886 676 c 0
 886 672 885 667 884 661 c 2
 721 19 l 2
 717 5 694 -2 666 -2 c 2
 593 -2 l 2
 565 -2 541 5 538 19 c 2
 456 365 l 1
 440 433 l 1
 423 365 l 1
 338 19 l 2
 334 5 311 -2 283 -2 c 2
 211 -2 l 2
 179 -2 159 5 156 19 c 2
 -2 661 l 2
 -4 667 -4 672 -4 676 c 0
 -4 692 15 702 58 702 c 2
 84 702 l 2
 123 702 146 692 151 671 c 2
 226 349 l 2
 234 315 245 261 257 205 c 1
 266 261 282 315 291 349 c 2
 373 681 l 2
 377 697 396 702 428 702 c 2
 466 702 l 2
 498 702 517 697 521 681 c 2
 600 349 l 2
 609 311 622 254 634 198 c 1
 647 253 659 311 668 349 c 2
 746 671 l 2
 751 692 774 702 813 702 c 2
 824 702 l 2
EndSplineSet
Position2: "'cpsp' Capital Spacing lookup 0 subtable" dx=5 dy=0 dh=10 dv=0
EndChar

StartChar: X
Encoding: 88 88 54
Width: 611
GlyphClass: 2
Flags: MW
HStem: -2 21G<49 71 71 109 486.5 501 501 540> 682 20G<95 136 136 150.5 491 530 530 551.5>
VStem: 8 595<11 20>
LayerCount: 2
Fore
SplineSet
530 702 m 2
 573 702 593 695 593 683 c 0
 593 677 590 668 583 658 c 2
 394 363 l 1
 594 42 l 2
 600 32 603 24 603 17 c 0
 603 5 584 -2 540 -2 c 2
 501 -2 l 2
 472 -2 450 2 441 17 c 2
 308 232 l 1
 170 17 l 2
 158 -1 138 -2 109 -2 c 2
 71 -2 l 2
 27 -2 8 5 8 17 c 0
 8 23 11 31 18 42 c 2
 224 365 l 1
 41 658 l 2
 35 668 31 676 31 683 c 0
 31 694 51 702 95 702 c 2
 136 702 l 2
 165 702 187 698 196 683 c 2
 310 497 l 1
 430 683 l 2
 441 700 462 702 491 702 c 2
 530 702 l 2
EndSplineSet
Position2: "'cpsp' Capital Spacing lookup 0 subtable" dx=5 dy=0 dh=10 dv=0
EndChar

StartChar: Y
Encoding: 89 89 55
Width: 559
GlyphClass: 2
Flags: MW
HStem: -2 21G<242 263 263 297> 682 20G<58 101 101 115.5 466 502 502 524>
VStem: 203 154<30 333>
AnchorPoint: "Anchor-1" 280 700 basechar 0
AnchorPoint: "Anchor-0" 282 0 basechar 0
LayerCount: 2
Fore
SplineSet
466 702 m 2
 502 702 l 2
 546 702 565 694 565 682 c 0
 565 676 562 667 556 657 c 2
 357 333 l 1
 357 30 l 2
 357 9 339 -2 297 -2 c 2
 263 -2 l 2
 221 -2 203 9 203 30 c 2
 203 336 l 1
 4 657 l 2
 -2 667 -6 676 -6 682 c 0
 -6 694 14 702 58 702 c 2
 101 702 l 2
 130 702 152 698 161 683 c 2
 283 469 l 1
 406 683 l 2
 415 698 437 702 466 702 c 2
EndSplineSet
Substitution2: "'ss01' Style Set 1 lookup 17 subtable" Y.loclGUA
Substitution2: "'salt' Stylistic Alternatives lookup 16 subtable" Y.loclGUA
Substitution2: "'aalt' Access All Alternates lookup 0 subtable" Y.loclGUA
Position2: "'cpsp' Capital Spacing lookup 0 subtable" dx=5 dy=0 dh=10 dv=0
EndChar

StartChar: Z
Encoding: 90 90 56
Width: 616
GlyphClass: 2
Flags: MW
HStem: 0 131<245 550 245 550> 569 131<75.5 543 86 364>
VStem: 27 553<75.5 81 32.5 91>
AnchorPoint: "Anchor-1" 308 700 basechar 0
AnchorPoint: "Anchor-0" 299 0 basechar 0
LayerCount: 2
Fore
SplineSet
543 700 m 2
 559 700 580 634 580 608 c 0
 580 604 580 602 579 600 c 2
 245 131 l 1
 550 131 l 2
 571 131 580 116 580 81 c 2
 580 50 l 2
 580 15 571 0 550 0 c 2
 66 0 l 2
 49 0 27 62 27 89 c 0
 27 93 28 97 29 99 c 2
 364 569 l 1
 86 569 l 2
 65 569 56 584 56 619 c 2
 56 650 l 2
 56 685 65 700 86 700 c 2
 543 700 l 2
EndSplineSet
Position2: "'cpsp' Capital Spacing lookup 0 subtable" dx=5 dy=0 dh=10 dv=0
EndChar

StartChar: a
Encoding: 97 97 57
Width: 545
GlyphClass: 2
Flags: MW
HStem: -8 117<222.5 236> -1 21G<361 389.5> 227 97<281.5 329> 414 117<214.5 278.5>
VStem: 42 147<140.5 177 140.5 179> 329 148<172 176 176 227 227 227 324 357 357 364>
AnchorPoint: "Anchor-1" 273 523 basechar 0
AnchorPoint: "Anchor-0" 273 0 basechar 0
LayerCount: 2
Fore
SplineSet
262 531 m 0x7c
 420 531 477 461 477 364 c 2
 477 176 l 2
 477 73 489 52 489 31 c 0
 489 7 402 -1 377 -1 c 0x7c
 345 -1 343 41 337 68 c 1
 330 55 282 -8 190 -8 c 0xbc
 82 -8 42 56 42 138 c 0
 42 220 75 324 329 324 c 1
 329 357 l 2
 329 395 306 414 251 414 c 0
 178 414 135 382 123 382 c 0
 102 382 71 441 71 462 c 0
 71 496 151 531 262 531 c 0x7c
329 227 m 1
 234 227 189 201 189 153 c 0
 189 128 206 109 239 109 c 0
 277 109 313 136 329 172 c 1xbc
 329 227 l 1
EndSplineSet
Substitution2: "Single Substitution lookup 21 subtable" ordfeminine
Substitution2: "'aalt' Access All Alternates lookup 0 subtable" ordfeminine
EndChar

StartChar: aacute
Encoding: 225 225 58
Width: 545
GlyphClass: 2
Flags: MW
HStem: -8 117<222.5 236> -1 21G<361 389.5> 227 97<281.5 329> 414 117<214.5 278.5> 575 159<222 373>
VStem: 42 147<140.5 177 140.5 179> 329 148<172 176 176 227 227 227 324 357 357 364>
AnchorPoint: "Anchor-1" 279 700 basechar 0
AnchorPoint: "Anchor-0" 273 0 basechar 0
LayerCount: 2
Fore
SplineSet
353 734 m 0x7e
 393 734 413 731 413 720 c 0
 413 708 406 706 309 600 c 0
 298 588 281 575 234 575 c 0
 210 575 203 579 203 590 c 0
 203 601 222 626 268 707 c 0
 280 728 313 734 353 734 c 0x7e
262 531 m 0
 420 531 477 461 477 364 c 2
 477 176 l 2
 477 73 489 52 489 31 c 0
 489 7 402 -1 377 -1 c 0x7e
 345 -1 343 41 337 68 c 1
 330 55 282 -8 190 -8 c 0xbe
 82 -8 42 56 42 138 c 0
 42 220 75 324 329 324 c 1
 329 357 l 2
 329 395 306 414 251 414 c 0
 178 414 135 382 123 382 c 0
 102 382 71 441 71 462 c 0
 71 496 151 531 262 531 c 0
329 227 m 1
 234 227 189 201 189 153 c 0
 189 128 206 109 239 109 c 0
 277 109 313 136 329 172 c 1xbe
 329 227 l 1
EndSplineSet
EndChar

StartChar: acircumflex
Encoding: 226 226 59
Width: 545
GlyphClass: 2
Flags: MW
HStem: -8 117<222.5 236> -1 21G<361 389.5> 227 97<281.5 329> 414 117<214.5 278.5> 572 146<149 279 156 279 268 369 268 391>
VStem: 42 147<140.5 177 140.5 179> 329 148<172 176 176 227 227 227 324 357 357 364>
AnchorPoint: "Anchor-1" 423 616 basechar 0
AnchorPoint: "Anchor-0" 273 0 basechar 0
LayerCount: 2
Fore
SplineSet
279 718 m 2x7e
 308 718 329 717 340 699 c 2
 405 597 l 2
 409 591 411 586 411 582 c 0
 411 575 404 572 391 572 c 2
 369 572 l 2
 340 572 314 577 301 596 c 2
 273 636 l 1
 245 597 l 2
 230 576 207 572 178 572 c 2
 156 572 l 2
 142 572 136 575 136 582 c 0
 136 586 138 591 142 597 c 2
 207 699 l 2
 218 717 239 718 268 718 c 2
 279 718 l 2x7e
262 531 m 0
 420 531 477 461 477 364 c 2
 477 176 l 2
 477 73 489 52 489 31 c 0
 489 7 402 -1 377 -1 c 0x7e
 345 -1 343 41 337 68 c 1
 330 55 282 -8 190 -8 c 0xbe
 82 -8 42 56 42 138 c 0
 42 220 75 324 329 324 c 1
 329 357 l 2
 329 395 306 414 251 414 c 0
 178 414 135 382 123 382 c 0
 102 382 71 441 71 462 c 0
 71 496 151 531 262 531 c 0
329 227 m 1
 234 227 189 201 189 153 c 0
 189 128 206 109 239 109 c 0
 277 109 313 136 329 172 c 1xbe
 329 227 l 1
EndSplineSet
EndChar

StartChar: adieresis
Encoding: 228 228 60
Width: 545
GlyphClass: 2
Flags: MW
HStem: -8 117<222.5 236> -1 21G<361 389.5> 227 97<281.5 329> 414 117<214.5 278.5> 578 124<162 204 342 384>
VStem: 42 147<140.5 177 140.5 179> 123 120<610 670 599.5 680.5> 303 120<610 670 599.5 680.5> 329 148<172 176 176 227 227 227 324 357 357 364>
AnchorPoint: "Anchor-1" 279 700 basechar 0
AnchorPoint: "Anchor-0" 273 0 basechar 0
LayerCount: 2
Fore
SplineSet
183 702 m 0x7a80
 225 702 243 691 243 670 c 2
 243 610 l 2
 243 589 225 578 183 578 c 0
 141 578 123 589 123 610 c 2
 123 670 l 2
 123 691 141 702 183 702 c 0x7a80
363 702 m 0x7b
 405 702 423 691 423 670 c 2
 423 610 l 2
 423 589 405 578 363 578 c 0
 321 578 303 589 303 610 c 2
 303 670 l 2
 303 691 321 702 363 702 c 0x7b
262 531 m 0xbc80
 420 531 477 461 477 364 c 2
 477 176 l 2
 477 73 489 52 489 31 c 0
 489 7 402 -1 377 -1 c 0x7a80
 345 -1 343 41 337 68 c 1
 330 55 282 -8 190 -8 c 0
 82 -8 42 56 42 138 c 0
 42 220 75 324 329 324 c 1
 329 357 l 2
 329 395 306 414 251 414 c 0
 178 414 135 382 123 382 c 0
 102 382 71 441 71 462 c 0
 71 496 151 531 262 531 c 0xbc80
329 227 m 1
 234 227 189 201 189 153 c 0
 189 128 206 109 239 109 c 0
 277 109 313 136 329 172 c 1
 329 227 l 1
EndSplineSet
EndChar

StartChar: agrave
Encoding: 224 224 61
Width: 545
GlyphClass: 2
Flags: MW
HStem: -8 117<222.5 236> -1 21G<361 389.5> 227 97<281.5 329> 414 117<214.5 278.5> 575 159<179 330>
VStem: 42 147<140.5 177 140.5 179> 329 148<172 176 176 227 227 227 324 357 357 364>
AnchorPoint: "Anchor-1" 270 700 basechar 0
AnchorPoint: "Anchor-0" 273 0 basechar 0
LayerCount: 2
Fore
SplineSet
199 734 m 0x7e
 239 734 272 728 284 707 c 0
 330 626 349 601 349 590 c 0
 349 579 342 575 318 575 c 0
 271 575 254 588 243 600 c 0
 146 706 139 708 139 720 c 0
 139 731 159 734 199 734 c 0x7e
262 531 m 0
 420 531 477 461 477 364 c 2
 477 176 l 2
 477 73 489 52 489 31 c 0
 489 7 402 -1 377 -1 c 0x7e
 345 -1 343 41 337 68 c 1
 330 55 282 -8 190 -8 c 0xbe
 82 -8 42 56 42 138 c 0
 42 220 75 324 329 324 c 1
 329 357 l 2
 329 395 306 414 251 414 c 0
 178 414 135 382 123 382 c 0
 102 382 71 441 71 462 c 0
 71 496 151 531 262 531 c 0
329 227 m 1
 234 227 189 201 189 153 c 0
 189 128 206 109 239 109 c 0
 277 109 313 136 329 172 c 1xbe
 329 227 l 1
EndSplineSet
EndChar

StartChar: amacron
Encoding: 257 257 62
Width: 545
GlyphClass: 2
Flags: MW
HStem: -8 117<222.5 236> -1 21G<361 389.5> 227 97<281.5 329> 414 117<214.5 278.5> 597 95<155.5 381 166 381>
VStem: 42 147<140.5 177 140.5 179> 329 148<172 176 176 227 227 227 324 357 357 364>
AnchorPoint: "Anchor-1" 272 700 basechar 0
AnchorPoint: "Anchor-0" 273 0 basechar 0
LayerCount: 2
Fore
SplineSet
381 692 m 2x7e
 402 692 411 680 411 652 c 2
 411 637 l 2
 411 609 402 597 381 597 c 2
 166 597 l 2
 145 597 136 609 136 637 c 2
 136 652 l 2
 136 680 145 692 166 692 c 2
 381 692 l 2x7e
262 531 m 0
 420 531 477 461 477 364 c 2
 477 176 l 2
 477 73 489 52 489 31 c 0
 489 7 402 -1 377 -1 c 0x7e
 345 -1 343 41 337 68 c 1
 330 55 282 -8 190 -8 c 0xbe
 82 -8 42 56 42 138 c 0
 42 220 75 324 329 324 c 1
 329 357 l 2
 329 395 306 414 251 414 c 0
 178 414 135 382 123 382 c 0
 102 382 71 441 71 462 c 0
 71 496 151 531 262 531 c 0
329 227 m 1
 234 227 189 201 189 153 c 0
 189 128 206 109 239 109 c 0
 277 109 313 136 329 172 c 1xbe
 329 227 l 1
EndSplineSet
EndChar

StartChar: aring
Encoding: 229 229 63
Width: 545
GlyphClass: 2
Flags: MW
HStem: -8 117<222.5 236> -1 21G<361 389.5> 227 97<281.5 329> 414 117<214.5 278.5> 550 62<263 283 263 301> 685 64<263 283>
VStem: 42 147<140.5 177 140.5 179> 174 63<638 658 638 677> 310 63<638 658> 329 148<172 176 176 227 227 227 324 357 357 364>
AnchorPoint: "Anchor-1" 274 700 basechar 0
AnchorPoint: "Anchor-0" 273 0 basechar 0
LayerCount: 2
Fore
SplineSet
273 749 m 0x7d80
 329 749 373 705 373 649 c 0
 373 593 329 550 273 550 c 0
 217 550 174 593 174 649 c 0
 174 705 217 749 273 749 c 0x7d80
273 685 m 0
 253 685 237 668 237 648 c 0
 237 628 253 612 273 612 c 0
 293 612 310 628 310 648 c 0
 310 668 293 685 273 685 c 0
262 531 m 0xb640
 420 531 477 461 477 364 c 2
 477 176 l 2
 477 73 489 52 489 31 c 0
 489 7 402 -1 377 -1 c 0x7540
 345 -1 343 41 337 68 c 1
 330 55 282 -8 190 -8 c 0
 82 -8 42 56 42 138 c 0
 42 220 75 324 329 324 c 1
 329 357 l 2
 329 395 306 414 251 414 c 0
 178 414 135 382 123 382 c 0
 102 382 71 441 71 462 c 0
 71 496 151 531 262 531 c 0xb640
329 227 m 1
 234 227 189 201 189 153 c 0
 189 128 206 109 239 109 c 0
 277 109 313 136 329 172 c 1
 329 227 l 1
EndSplineSet
EndChar

StartChar: atilde
Encoding: 227 227 64
Width: 545
GlyphClass: 2
Flags: MW
HStem: -8 117<222.5 236> -1 21G<361 389.5> 227 97<281.5 329> 414 117<214.5 278.5> 577.99 116.01 582 116.02
VStem: 42 147<140.5 177 140.5 179> 329 148<172 176 176 227 227 227 324 357 357 364>
AnchorPoint: "Anchor-1" 277 700 basechar 0
AnchorPoint: "Anchor-0" 273 0 basechar 0
LayerCount: 2
Fore
SplineSet
194 694 m 0x79
 228 694 302 667 335 665 c 0
 343 665 355 667 368 681 c 0
 383 700 394 700 408 696 c 2
 419 693 l 2
 443 686 445 666 439 652 c 0
 426 616 387 582 330 582 c 0x75
 296 582 222 609 189 611 c 0
 181 611 168 609 156 595 c 0
 141 576 130 576 116 580 c 2
 105 583 l 2
 80 590 79 610 85 624 c 0
 98 660 137 694 194 694 c 0x79
262 531 m 0xb7
 420 531 477 461 477 364 c 2
 477 176 l 2
 477 73 489 52 489 31 c 0
 489 7 402 -1 377 -1 c 0x75
 345 -1 343 41 337 68 c 1
 330 55 282 -8 190 -8 c 0
 82 -8 42 56 42 138 c 0
 42 220 75 324 329 324 c 1
 329 357 l 2
 329 395 306 414 251 414 c 0
 178 414 135 382 123 382 c 0
 102 382 71 441 71 462 c 0
 71 496 151 531 262 531 c 0xb7
329 227 m 1
 234 227 189 201 189 153 c 0
 189 128 206 109 239 109 c 0
 277 109 313 136 329 172 c 1
 329 227 l 1
EndSplineSet
EndChar

StartChar: ae
Encoding: 230 230 65
Width: 829
GlyphClass: 2
Flags: MW
HStem: -8 117<221.5 253.5 560 610> 224 99<476 636 474 731 476 476> 414 117<219 269.5 547 586>
VStem: 41 147<140.5 176.5 140.5 178.5> 322 154<225 225> 636 144<323 352>
AnchorPoint: "Anchor-1" 415 523 basechar 0
AnchorPoint: "Anchor-0" 0 0 basechar 0
LayerCount: 2
Fore
SplineSet
564 531 m 0
 721 531 780 422 780 283 c 0
 780 266 744 224 731 224 c 2
 476 224 l 1
 476 137 531 109 589 109 c 0
 652 109 696 140 710 140 c 0
 732 140 762 84 762 64 c 0
 762 14 638 -8 582 -8 c 0
 494 -8 430 17 387 60 c 1
 364 37 300 -8 207 -8 c 0
 99 -8 41 56 41 138 c 0
 41 219 74 322 325 323 c 1
 328 347 333 368 340 387 c 1
 324 408 289 414 250 414 c 0
 188 414 138 382 122 382 c 0
 101 382 70 441 70 462 c 0
 70 496 150 531 261 531 c 0
 335 531 388 518 422 495 c 1
 461 519 509 531 564 531 c 0
564 414 m 0
 530 414 486 400 474 323 c 1
 636 323 l 1
 636 381 608 414 564 414 c 0
322 225 m 1
 231 224 188 200 188 153 c 0
 188 128 205 109 238 109 c 0
 273 109 315 125 334 156 c 1
 328 177 324 200 322 225 c 1
EndSplineSet
EndChar

StartChar: b
Encoding: 98 98 66
Width: 569
GlyphClass: 2
Flags: MW
HStem: -8 121<309 323.5 277 394> -2 21G<105 126 126 138> 414 117<292.5 315.5> 734 20G<126 154 154 175>
VStem: 66 148<172 395 500 722> 377 150<213.5 312>
LayerCount: 2
Fore
SplineSet
154 754 m 2x7c
 196 754 214 743 214 722 c 2
 214 500 l 1
 235 515 269 531 316 531 c 0
 451 531 527 425 527 262 c 0
 527 88 448 -8 340 -8 c 0
 278 -8 229 24 206 67 c 1xbc
 203 53 200 38 196 24 c 0
 190 2 170 -2 138 -2 c 2
 126 -2 l 2
 84 -2 66 9 66 30 c 2
 66 722 l 2
 66 743 84 754 126 754 c 2
 154 754 l 2x7c
284 414 m 0
 253 414 230 404 214 395 c 1
 214 172 l 1
 232 141 258 113 296 113 c 0xbc
 351 113 377 165 377 262 c 0
 377 362 347 414 284 414 c 0
EndSplineSet
EndChar

StartChar: c
Encoding: 99 99 67
Width: 485
GlyphClass: 2
Flags: MW
HStem: -8 117<263 310.5> 414 117<267 328>
VStem: 42 152<210.5 313 210.5 347>
AnchorPoint: "Anchor-1" 275 523 basechar 0
AnchorPoint: "Anchor-0" 292 0 basechar 0
LayerCount: 2
Fore
SplineSet
299 531 m 0
 370 531 465 508 465 462 c 0
 465 443 429 385 412 385 c 0
 408 385 402 388 394 392 c 0
 376 401 349 414 307 414 c 0
 227 414 194 364 194 262 c 0
 194 159 225 109 301 109 c 0
 348 109 380 123 399 132 c 0
 407 135 413 138 417 138 c 0
 439 138 469 82 469 62 c 0
 469 6 327 -8 294 -8 c 0
 123 -8 42 79 42 258 c 0
 42 436 120 531 299 531 c 0
EndSplineSet
EndChar

StartChar: ccedilla
Encoding: 231 231 68
Width: 485
GlyphClass: 2
Flags: MW
HStem: -212 73<246 275 245 313.5> -6 21G<324 324> -6 115<324 324> 414 117<267 328>
VStem: 42 152<210.5 313 210.5 347> 290 103<-127.5 -109.5>
AnchorPoint: "Anchor-1" 275 523 basechar 0
AnchorPoint: "Anchor-0" 270 -203 basechar 0
LayerCount: 2
Fore
SplineSet
469 62 m 0xbc
 469 17 377 -1 324 -6 c 1
 316 -36 l 1
 351 -41 393 -61 393 -112 c 0
 393 -180 353 -212 274 -212 c 0
 218 -212 143 -194 143 -162 c 0
 143 -128 168 -118 175 -118 c 0
 198 -118 224 -139 266 -139 c 0
 284 -139 290 -133 290 -122 c 0
 290 -97 237 -98 237 -74 c 0
 237 -70 238 -65 257 -6 c 1
 111 6 42 93 42 258 c 0
 42 436 120 531 299 531 c 0
 370 531 465 508 465 462 c 0
 465 443 429 385 412 385 c 0
 408 385 402 388 394 392 c 0
 376 401 349 414 307 414 c 0
 227 414 194 364 194 262 c 0
 194 159 225 109 301 109 c 0
 348 109 380 123 399 132 c 0
 407 135 413 138 417 138 c 0
 439 138 469 82 469 62 c 0xbc
EndSplineSet
EndChar

StartChar: d
Encoding: 100 100 69
Width: 565
GlyphClass: 2
Flags: MW
HStem: -8 121<245.5 260> -1 21G<387 415.5> 414 117<253.5 276.5 185.5 300.5> 734 20G<415 443 443 464>
VStem: 42 150<213.5 312 213.5 343.5> 355 148<172 176 176 395 395 395 500 722>
AnchorPoint: "Anchor-1" 0 0 basechar 0
AnchorPoint: "Anchor-0" 291 0 basechar 0
LayerCount: 2
Fore
SplineSet
443 754 m 2x7c
 485 754 503 743 503 722 c 2
 503 176 l 2
 503 73 515 52 515 31 c 0
 515 7 428 -1 403 -1 c 0x7c
 371 -1 369 41 363 67 c 1
 340 24 291 -8 229 -8 c 0xbc
 121 -8 42 88 42 262 c 0
 42 425 118 531 253 531 c 0
 300 531 334 515 355 500 c 1
 355 722 l 2
 355 743 373 754 415 754 c 2
 443 754 l 2x7c
285 414 m 0
 222 414 192 362 192 262 c 0
 192 165 218 113 273 113 c 0
 311 113 337 141 355 172 c 1xbc
 355 395 l 1
 339 404 316 414 285 414 c 0
EndSplineSet
EndChar

StartChar: e
Encoding: 101 101 70
Width: 539
GlyphClass: 2
Flags: MW
HStem: -8 117<277.5 331> 214 99<195 357 195 450 195 357> 414 117<264 310>
VStem: 42 153<214 214 214 313 214 356.5> 357 144<313 342>
AnchorPoint: "Anchor-1" 270 523 basechar 0
AnchorPoint: "Anchor-0" 270 0 basechar 0
LayerCount: 2
Fore
SplineSet
285 531 m 0
 442 531 501 412 501 273 c 0
 501 256 463 214 450 214 c 2
 195 214 l 1
 202 134 245 109 310 109 c 0
 373 109 417 140 431 140 c 0
 453 140 483 84 483 64 c 0
 483 14 359 -8 303 -8 c 0
 122 -8 42 97 42 258 c 0
 42 455 142 531 285 531 c 0
285 414 m 0
 243 414 207 390 195 313 c 1
 357 313 l 1
 357 371 335 414 285 414 c 0
EndSplineSet
EndChar

StartChar: eacute
Encoding: 233 233 71
Width: 539
GlyphClass: 2
Flags: MW
HStem: -8 117<277.5 331> 214 99<195 357 195 450 195 357> 414 117<264 310> 575 159<219 370>
VStem: 42 153<214 214 214 313 214 356.5> 357 144<313 342>
AnchorPoint: "Anchor-1" 276 700 basechar 0
AnchorPoint: "Anchor-0" 270 0 basechar 0
LayerCount: 2
Fore
SplineSet
350 734 m 0
 390 734 410 731 410 720 c 0
 410 708 403 706 306 600 c 0
 295 588 278 575 231 575 c 0
 207 575 200 579 200 590 c 0
 200 601 219 626 265 707 c 0
 277 728 310 734 350 734 c 0
285 531 m 0
 442 531 501 412 501 273 c 0
 501 256 463 214 450 214 c 2
 195 214 l 1
 202 134 245 109 310 109 c 0
 373 109 417 140 431 140 c 0
 453 140 483 84 483 64 c 0
 483 14 359 -8 303 -8 c 0
 122 -8 42 97 42 258 c 0
 42 455 142 531 285 531 c 0
285 414 m 0
 243 414 207 390 195 313 c 1
 357 313 l 1
 357 371 335 414 285 414 c 0
EndSplineSet
EndChar

StartChar: ecircumflex
Encoding: 234 234 72
Width: 539
GlyphClass: 2
Flags: MW
HStem: -8 117<277.5 331> 214 99<195 357 195 450 195 357> 414 117<264 310> 572 146<146 276 153 276 265 366 265 388>
VStem: 42 153<214 214 214 313 214 356.5> 357 144<313 342>
AnchorPoint: "Anchor-1" 420 616 basechar 0
AnchorPoint: "Anchor-0" 270 0 basechar 0
LayerCount: 2
Fore
SplineSet
276 718 m 2
 305 718 326 717 337 699 c 2
 402 597 l 2
 406 591 408 586 408 582 c 0
 408 575 401 572 388 572 c 2
 366 572 l 2
 337 572 311 577 298 596 c 2
 270 636 l 1
 242 597 l 2
 227 576 204 572 175 572 c 2
 153 572 l 2
 139 572 133 575 133 582 c 0
 133 586 135 591 139 597 c 2
 204 699 l 2
 215 717 236 718 265 718 c 2
 276 718 l 2
285 531 m 0
 442 531 501 412 501 273 c 0
 501 256 463 214 450 214 c 2
 195 214 l 1
 202 134 245 109 310 109 c 0
 373 109 417 140 431 140 c 0
 453 140 483 84 483 64 c 0
 483 14 359 -8 303 -8 c 0
 122 -8 42 97 42 258 c 0
 42 455 142 531 285 531 c 0
285 414 m 0
 243 414 207 390 195 313 c 1
 357 313 l 1
 357 371 335 414 285 414 c 0
EndSplineSet
EndChar

StartChar: edieresis
Encoding: 235 235 73
Width: 539
GlyphClass: 2
Flags: MW
HStem: -8 117<277.5 331> 214 99<195 357 195 450 195 357> 414 117<264 310> 578 124<159 201 339 381>
VStem: 42 153<214 214 214 313 214 356.5> 120 120<610 670 599.5 680.5> 300 120<610 670 599.5 680.5> 357 144<313 342>
AnchorPoint: "Anchor-1" 276 700 basechar 0
AnchorPoint: "Anchor-0" 270 0 basechar 0
LayerCount: 2
Fore
SplineSet
180 702 m 0xf6
 222 702 240 691 240 670 c 2
 240 610 l 2
 240 589 222 578 180 578 c 0
 138 578 120 589 120 610 c 2
 120 670 l 2
 120 691 138 702 180 702 c 0xf6
360 702 m 0
 402 702 420 691 420 670 c 2
 420 610 l 2
 420 589 402 578 360 578 c 0
 318 578 300 589 300 610 c 2
 300 670 l 2
 300 691 318 702 360 702 c 0
285 531 m 0xf9
 442 531 501 412 501 273 c 0
 501 256 463 214 450 214 c 2
 195 214 l 1
 202 134 245 109 310 109 c 0
 373 109 417 140 431 140 c 0
 453 140 483 84 483 64 c 0
 483 14 359 -8 303 -8 c 0
 122 -8 42 97 42 258 c 0
 42 455 142 531 285 531 c 0xf9
285 414 m 0
 243 414 207 390 195 313 c 1
 357 313 l 1
 357 371 335 414 285 414 c 0
EndSplineSet
EndChar

StartChar: egrave
Encoding: 232 232 74
Width: 539
GlyphClass: 2
Flags: MW
HStem: -8 117<277.5 331> 214 99<195 357 195 450 195 357> 414 117<264 310> 575 159<176 327>
VStem: 42 153<214 214 214 313 214 356.5> 357 144<313 342>
AnchorPoint: "Anchor-1" 267 700 basechar 0
AnchorPoint: "Anchor-0" 270 0 basechar 0
LayerCount: 2
Fore
SplineSet
196 734 m 0
 236 734 269 728 281 707 c 0
 327 626 346 601 346 590 c 0
 346 579 339 575 315 575 c 0
 268 575 251 588 240 600 c 0
 143 706 136 708 136 720 c 0
 136 731 156 734 196 734 c 0
285 531 m 0
 442 531 501 412 501 273 c 0
 501 256 463 214 450 214 c 2
 195 214 l 1
 202 134 245 109 310 109 c 0
 373 109 417 140 431 140 c 0
 453 140 483 84 483 64 c 0
 483 14 359 -8 303 -8 c 0
 122 -8 42 97 42 258 c 0
 42 455 142 531 285 531 c 0
285 414 m 0
 243 414 207 390 195 313 c 1
 357 313 l 1
 357 371 335 414 285 414 c 0
EndSplineSet
EndChar

StartChar: emacron
Encoding: 275 275 75
Width: 539
GlyphClass: 2
Flags: MW
HStem: -8 117<277.5 331> 214 99<195 357 195 450 195 357> 414 117<264 310> 597 95<152.5 378 163 378>
VStem: 42 153<214 214 214 313 214 356.5> 357 144<313 342>
AnchorPoint: "Anchor-1" 269 700 basechar 0
AnchorPoint: "Anchor-0" 270 0 basechar 0
LayerCount: 2
Fore
SplineSet
378 692 m 2
 399 692 408 680 408 652 c 2
 408 637 l 2
 408 609 399 597 378 597 c 2
 163 597 l 2
 142 597 133 609 133 637 c 2
 133 652 l 2
 133 680 142 692 163 692 c 2
 378 692 l 2
285 531 m 0
 442 531 501 412 501 273 c 0
 501 256 463 214 450 214 c 2
 195 214 l 1
 202 134 245 109 310 109 c 0
 373 109 417 140 431 140 c 0
 453 140 483 84 483 64 c 0
 483 14 359 -8 303 -8 c 0
 122 -8 42 97 42 258 c 0
 42 455 142 531 285 531 c 0
285 414 m 0
 243 414 207 390 195 313 c 1
 357 313 l 1
 357 371 335 414 285 414 c 0
EndSplineSet
EndChar

StartChar: uni1EBD
Encoding: 7869 7869 76
Width: 539
GlyphClass: 2
Flags: MW
HStem: -8 117<277.5 331> 214 99<195 357 195 450 195 357> 414 117<264 310> 577.99 116.01 582 116.02
VStem: 42 153<214 214 214 313 214 356.5> 357 144<313 342>
AnchorPoint: "Anchor-1" 274 700 basechar 0
AnchorPoint: "Anchor-0" 270 0 basechar 0
LayerCount: 2
Fore
SplineSet
191 694 m 0xf6
 225 694 299 667 332 665 c 0
 340 665 352 667 365 681 c 0
 380 700 391 700 405 696 c 2
 416 693 l 2
 440 686 442 666 436 652 c 0
 423 616 384 582 327 582 c 0xee
 293 582 219 609 186 611 c 0
 178 611 165 609 153 595 c 0
 138 576 127 576 113 580 c 2
 102 583 l 2
 77 590 76 610 82 624 c 0
 95 660 134 694 191 694 c 0xf6
285 531 m 0
 442 531 501 412 501 273 c 0
 501 256 463 214 450 214 c 2
 195 214 l 1
 202 134 245 109 310 109 c 0
 373 109 417 140 431 140 c 0
 453 140 483 84 483 64 c 0
 483 14 359 -8 303 -8 c 0
 122 -8 42 97 42 258 c 0
 42 455 142 531 285 531 c 0
285 414 m 0
 243 414 207 390 195 313 c 1
 357 313 l 1
 357 371 335 414 285 414 c 0
EndSplineSet
EndChar

StartChar: f
Encoding: 102 102 77
Width: 325
GlyphClass: 2
Flags: MW
HStem: -2 21G<118 139 139 167> 406 117<50.5 79 61 79 227 277> 643 117<178 268>
VStem: 79 148<30 406 523 598 598 600>
LayerCount: 2
Fore
SplineSet
225 760 m 0
 257 760 325 757 325 711 c 0
 325 703 314 639 294 639 c 0
 287 639 273 643 263 643 c 0
 237 643 227 630 227 600 c 2
 227 523 l 1
 277 523 l 2
 298 523 307 508 307 473 c 2
 307 456 l 2
 307 421 298 406 277 406 c 2
 227 406 l 1
 227 30 l 2
 227 9 209 -2 167 -2 c 2
 139 -2 l 2
 97 -2 79 9 79 30 c 2
 79 406 l 1
 61 406 l 2
 40 406 31 421 31 456 c 2
 31 473 l 2
 31 508 40 523 61 523 c 2
 79 523 l 1
 79 598 l 2
 79 709 131 760 225 760 c 0
EndSplineSet
EndChar

StartChar: g
Encoding: 103 103 78
Width: 546
GlyphClass: 2
Flags: MW
HStem: -212 117<236 307.5 236 339.5> 176 107<257.5 287.5 246.5 335> 409 114<466 466 507.5 515.5 344 519> 424 107<246.5 280.5 207.5 287.5>
VStem: 24 144<-63.5 -48> 52 140<328 378 328 417.5> 73 144<132.5 138> 342 140<328 362.5 290.5 378> 376 144<-61 -30.5>
AnchorPoint: "Anchor-1" 273 523 basechar 0
AnchorPoint: "Anchor-0" 0 0 basechar 0
LayerCount: 2
Fore
SplineSet
267 531 m 0xd480
 294 531 320 528 344 523 c 1
 505 523 l 2
 526 523 535 508 535 473 c 2
 535 456 l 2
 535 423 527 409 511 409 c 0
 504 409 477 411 468 413 c 1
 466 409 l 1
 475 397 482 372 482 353 c 0
 482 228 392 176 278 176 c 0
 237 176 217 167 217 149 c 0xe3
 217 116 290 116 365 103 c 0
 442 88 520 58 520 -42 c 0
 520 -145 417 -212 262 -212 c 0
 101 -212 24 -165 24 -74 c 0xe880
 24 -22 56 19 115 42 c 1
 116 46 l 1
 88 60 73 88 73 121 c 0xe280
 73 155 95 184 133 204 c 1
 84 231 52 279 52 353 c 0
 52 482 148 531 267 531 c 0xd480
267 424 m 0xd5
 226 424 192 403 192 353 c 0
 192 303 226 283 267 283 c 0
 308 283 342 303 342 353 c 0
 342 403 308 424 267 424 c 0xd5
222 4 m 1xe880
 187 -8 168 -30 168 -50 c 0
 168 -77 199 -95 273 -95 c 0
 342 -95 376 -76 376 -46 c 0
 376 -15 336 -4 222 4 c 1xe880
EndSplineSet
Substitution2: "'ss01' Style Set 1 lookup 17 subtable" g.ss01
Substitution2: "'salt' Stylistic Alternatives lookup 16 subtable" g.ss01
Substitution2: "'aalt' Access All Alternates lookup 0 subtable" g.ss01
EndChar

StartChar: h
Encoding: 104 104 79
Width: 565
GlyphClass: 2
Flags: MW
HStem: -2 21G<105 126 126 154 397 418 418 446> 409 122<273.5 405> 734 20G<126 154 154 175>
VStem: 66 148<30 351 463 722> 358 148<30 347 347 366.5>
AnchorPoint: "Anchor-1" 141 732 basechar 0
AnchorPoint: "Anchor-0" 281 0 basechar 0
LayerCount: 2
Fore
SplineSet
154 754 m 2
 196 754 214 743 214 722 c 2
 214 463 l 1
 245 500 295 531 355 531 c 0
 455 531 506 480 506 369 c 2
 506 30 l 2
 506 9 488 -2 446 -2 c 2
 418 -2 l 2
 376 -2 358 9 358 30 c 2
 358 347 l 2
 358 386 338 409 294 409 c 0
 253 409 226 374 214 351 c 1
 214 30 l 2
 214 9 196 -2 154 -2 c 2
 126 -2 l 2
 84 -2 66 9 66 30 c 2
 66 722 l 2
 66 743 84 754 126 754 c 2
 154 754 l 2
EndSplineSet
EndChar

StartChar: i
Encoding: 105 105 80
Width: 265
GlyphClass: 2
Flags: MW
HStem: -2 21G<98 119 119 147> 505 20G<119 147 147 168> 609 145<98 147 119 147>
VStem: 59 148<30 493 641 722>
AnchorPoint: "Anchor-1" 0 0 basechar 0
AnchorPoint: "Anchor-0" 131 0 basechar 0
LayerCount: 2
Fore
SplineSet
147 754 m 2
 189 754 207 743 207 722 c 2
 207 641 l 2
 207 620 189 609 147 609 c 2
 119 609 l 2
 77 609 59 620 59 641 c 2
 59 722 l 2
 59 743 77 754 119 754 c 2
 147 754 l 2
147 525 m 2
 189 525 207 514 207 493 c 2
 207 30 l 2
 207 9 189 -2 147 -2 c 2
 119 -2 l 2
 77 -2 59 9 59 30 c 2
 59 493 l 2
 59 514 77 525 119 525 c 2
 147 525 l 2
EndSplineSet
Substitution2: "'locl' Localized Forms in Latin lookup 8 subtable" i.loclTRK
Substitution2: "'locl' Localized Forms in Latin lookup 6 subtable" i.loclTRK
Substitution2: "'locl' Localized Forms in Latin lookup 5 subtable" i.loclTRK
Substitution2: "'locl' Localized Forms in Latin lookup 3 subtable" i.loclTRK
Substitution2: "'locl' Localized Forms in Latin lookup 2 subtable" i.loclTRK
Substitution2: "'aalt' Access All Alternates lookup 0 subtable" i.loclTRK
EndChar

StartChar: icircumflex
Encoding: 238 238 81
Width: 265
GlyphClass: 2
Flags: MW
HStem: -2 21G<98 119 119 147> 505 20G<119 147 147 168> 572 146<8 138 15 138 127 228 127 250>
VStem: 59 148<30 493>
AnchorPoint: "Anchor-1" 282 616 basechar 0
AnchorPoint: "Anchor-0" 131 0 basechar 0
LayerCount: 2
Fore
SplineSet
138 718 m 2
 167 718 188 717 199 699 c 2
 264 597 l 2
 268 591 270 586 270 582 c 0
 270 575 263 572 250 572 c 2
 228 572 l 2
 199 572 173 577 160 596 c 2
 132 636 l 1
 104 597 l 2
 89 576 66 572 37 572 c 2
 15 572 l 2
 1 572 -5 575 -5 582 c 0
 -5 586 -3 591 1 597 c 2
 66 699 l 2
 77 717 98 718 127 718 c 2
 138 718 l 2
147 525 m 2
 189 525 207 514 207 493 c 2
 207 30 l 2
 207 9 189 -2 147 -2 c 2
 119 -2 l 2
 77 -2 59 9 59 30 c 2
 59 493 l 2
 59 514 77 525 119 525 c 2
 147 525 l 2
EndSplineSet
EndChar

StartChar: idieresis
Encoding: 239 239 82
Width: 265
GlyphClass: 2
Flags: MW
HStem: -2 21G<98 119 119 147> 505 20G<119 147 147 168> 578 124<22 64 202 244>
VStem: -17 120<610 670 599.5 680.5> 59 148<30 493> 163 120<610 670 599.5 680.5>
AnchorPoint: "Anchor-1" 139 700 basechar 0
AnchorPoint: "Anchor-0" 131 0 basechar 0
LayerCount: 2
Fore
SplineSet
43 702 m 0xf4
 85 702 103 691 103 670 c 2
 103 610 l 2
 103 589 85 578 43 578 c 0
 1 578 -17 589 -17 610 c 2
 -17 670 l 2
 -17 691 1 702 43 702 c 0xf4
223 702 m 0
 265 702 283 691 283 670 c 2
 283 610 l 2
 283 589 265 578 223 578 c 0
 181 578 163 589 163 610 c 2
 163 670 l 2
 163 691 181 702 223 702 c 0
147 525 m 2xe8
 189 525 207 514 207 493 c 2
 207 30 l 2
 207 9 189 -2 147 -2 c 2
 119 -2 l 2
 77 -2 59 9 59 30 c 2
 59 493 l 2
 59 514 77 525 119 525 c 2
 147 525 l 2xe8
EndSplineSet
EndChar

StartChar: imacron
Encoding: 299 299 83
Width: 265
GlyphClass: 2
Flags: MW
HStem: -2 21G<98 119 119 147> 505 20G<119 147 147 168> 597 95<14.5 240 25 240>
VStem: 59 148<30 493>
AnchorPoint: "Anchor-1" 131 700 basechar 0
AnchorPoint: "Anchor-0" 131 0 basechar 0
LayerCount: 2
Fore
SplineSet
240 692 m 2
 261 692 270 680 270 652 c 2
 270 637 l 2
 270 609 261 597 240 597 c 2
 25 597 l 2
 4 597 -5 609 -5 637 c 2
 -5 652 l 2
 -5 680 4 692 25 692 c 2
 240 692 l 2
147 525 m 2
 189 525 207 514 207 493 c 2
 207 30 l 2
 207 9 189 -2 147 -2 c 2
 119 -2 l 2
 77 -2 59 9 59 30 c 2
 59 493 l 2
 59 514 77 525 119 525 c 2
 147 525 l 2
EndSplineSet
EndChar

StartChar: j
Encoding: 106 106 84
Width: 276
GlyphClass: 2
Flags: MW
HStem: -212 117<32.5 47 28.5 113.5> 505 20G<130 158 158 179> 609 145<109 158 130 158>
VStem: 70 148<-52 -50 -50 493 641 722>
LayerCount: 2
Fore
SplineSet
158 754 m 2
 200 754 218 743 218 722 c 2
 218 641 l 2
 218 620 200 609 158 609 c 2
 130 609 l 2
 88 609 70 620 70 641 c 2
 70 722 l 2
 70 743 88 754 130 754 c 2
 158 754 l 2
158 525 m 2
 200 525 218 514 218 493 c 2
 218 -50 l 2
 218 -159 155 -212 72 -212 c 0
 -7 -212 -32 -199 -32 -160 c 0
 -32 -137 -17 -91 4 -91 c 0
 10 -91 23 -95 34 -95 c 0
 60 -95 70 -82 70 -52 c 2
 70 493 l 2
 70 514 88 525 130 525 c 2
 158 525 l 2
EndSplineSet
EndChar

StartChar: k
Encoding: 107 107 85
Width: 521
GlyphClass: 2
Flags: MW
HStem: -2 21G<105 126 126 154 402.5 417 417 459> 505 20G<400 437 437 456> 734 20G<126 154 154 175>
VStem: 66 148<30 246 326 722>
AnchorPoint: "Anchor-1" 0 0 basechar 0
AnchorPoint: "Anchor-0" 261 0 basechar 0
LayerCount: 2
Fore
SplineSet
154 754 m 2
 196 754 214 743 214 722 c 2
 214 326 l 1
 218 325 l 1
 339 506 l 2
 351 523 371 525 400 525 c 2
 437 525 l 2
 475 525 493 519 493 510 c 0
 493 505 490 498 484 490 c 2
 345 292 l 1
 508 34 l 2
 513 25 516 19 516 13 c 0
 516 4 498 -2 459 -2 c 2
 417 -2 l 2
 388 -2 366 2 357 17 c 2
 218 247 l 1
 214 246 l 1
 214 30 l 2
 214 9 196 -2 154 -2 c 2
 126 -2 l 2
 84 -2 66 9 66 30 c 2
 66 722 l 2
 66 743 84 754 126 754 c 2
 154 754 l 2
EndSplineSet
EndChar

StartChar: l
Encoding: 108 108 86
Width: 297
GlyphClass: 2
Flags: MW
HStem: -8 117<162 251.5> 734 20G<123 151 151 172>
VStem: 63 148<154 722>
AnchorPoint: "Anchor-1" 136 720 basechar 0
AnchorPoint: "Anchor-0" 183 0 basechar 0
LayerCount: 2
Fore
SplineSet
151 754 m 2
 193 754 211 743 211 722 c 2
 211 152 l 2
 211 122 221 109 247 109 c 0
 256 109 268 113 274 113 c 0
 294 113 305 49 305 41 c 0
 305 -5 240 -8 209 -8 c 0
 115 -8 63 43 63 154 c 2
 63 722 l 2
 63 743 81 754 123 754 c 2
 151 754 l 2
EndSplineSet
EndChar

StartChar: m
Encoding: 109 109 87
Width: 848
GlyphClass: 2
Flags: MW
HStem: -2 21G<101 122 122 150 387 408 408 436 673 694 694 722> 409 122<268.5 384.5>
VStem: 62 148<30 347 347 351> 348 148<30 347 347 352> 634 148<30 347 347 366.5>
LayerCount: 2
Fore
SplineSet
636 531 m 0
 736 531 782 480 782 369 c 2
 782 30 l 2
 782 9 764 -2 722 -2 c 2
 694 -2 l 2
 652 -2 634 9 634 30 c 2
 634 347 l 2
 634 386 619 409 575 409 c 0
 532 409 508 373 496 352 c 1
 496 30 l 2
 496 9 478 -2 436 -2 c 2
 408 -2 l 2
 366 -2 348 9 348 30 c 2
 348 347 l 2
 348 386 333 409 289 409 c 0
 248 409 222 374 210 351 c 1
 210 30 l 2
 210 9 192 -2 150 -2 c 2
 122 -2 l 2
 80 -2 62 9 62 30 c 2
 62 347 l 2
 62 447 50 468 50 488 c 0
 50 512 137 520 162 520 c 0
 194 520 196 480 202 455 c 1
 231 493 285 531 350 531 c 0
 419 531 462 507 482 455 c 1
 512 493 569 531 636 531 c 0
EndSplineSet
EndChar

StartChar: n
Encoding: 110 110 88
Width: 557
GlyphClass: 2
Flags: MW
HStem: -2 21G<101 122 122 150 389 410 410 438> 409 122<269.5 401>
VStem: 62 148<30 347 347 351> 350 148<30 347 347 366.5>
AnchorPoint: "Anchor-1" 279 523 basechar 0
AnchorPoint: "Anchor-0" 279 0 basechar 0
LayerCount: 2
Fore
SplineSet
351 531 m 0
 451 531 498 480 498 369 c 2
 498 30 l 2
 498 9 480 -2 438 -2 c 2
 410 -2 l 2
 368 -2 350 9 350 30 c 2
 350 347 l 2
 350 386 334 409 290 409 c 0
 249 409 222 374 210 351 c 1
 210 30 l 2
 210 9 192 -2 150 -2 c 2
 122 -2 l 2
 80 -2 62 9 62 30 c 2
 62 347 l 2
 62 447 50 468 50 488 c 0
 50 512 137 520 162 520 c 0
 194 520 196 480 202 455 c 1
 231 493 286 531 351 531 c 0
EndSplineSet
EndChar

StartChar: ntilde
Encoding: 241 241 89
Width: 557
GlyphClass: 2
Flags: MW
HStem: -2 21G<101 122 122 150 389 410 410 438> 409 122<269.5 401> 577.99 116.01 582 116.02
VStem: 62 148<30 347 347 351> 350 148<30 347 347 366.5>
AnchorPoint: "Anchor-1" 283 700 basechar 0
AnchorPoint: "Anchor-0" 279 0 basechar 0
LayerCount: 2
Fore
SplineSet
200 694 m 0xec
 234 694 308 667 341 665 c 0
 349 665 361 667 374 681 c 0
 389 700 400 700 414 696 c 2
 425 693 l 2
 449 686 451 666 445 652 c 0
 432 616 393 582 336 582 c 0xdc
 302 582 228 609 195 611 c 0
 187 611 174 609 162 595 c 0
 147 576 136 576 122 580 c 2
 111 583 l 2
 86 590 85 610 91 624 c 0
 104 660 143 694 200 694 c 0xec
351 531 m 0xdc
 451 531 498 480 498 369 c 2
 498 30 l 2
 498 9 480 -2 438 -2 c 2
 410 -2 l 2
 368 -2 350 9 350 30 c 2
 350 347 l 2
 350 386 334 409 290 409 c 0
 249 409 222 374 210 351 c 1
 210 30 l 2
 210 9 192 -2 150 -2 c 2
 122 -2 l 2
 80 -2 62 9 62 30 c 2
 62 347 l 2
 62 447 50 468 50 488 c 0
 50 512 137 520 162 520 c 0
 194 520 196 480 202 455 c 1
 231 493 286 531 351 531 c 0xdc
EndSplineSet
EndChar

StartChar: o
Encoding: 111 111 90
Width: 569
GlyphClass: 2
Flags: MW
HStem: -8 117<253 317 253 364.5> 414 117<253 317>
VStem: 42 150<212 312 212 349> 377 150<212 312>
AnchorPoint: "Anchor-1" 285 523 basechar 0
AnchorPoint: "Anchor-0" 291 0 basechar 0
LayerCount: 2
Fore
SplineSet
285 531 m 0
 444 531 527 436 527 262 c 0
 527 88 444 -8 285 -8 c 0
 126 -8 42 88 42 262 c 0
 42 436 126 531 285 531 c 0
285 414 m 0
 221 414 192 362 192 262 c 0
 192 162 221 109 285 109 c 0
 349 109 377 162 377 262 c 0
 377 362 349 414 285 414 c 0
EndSplineSet
Substitution2: "Single Substitution lookup 21 subtable" ordmasculine
Substitution2: "'aalt' Access All Alternates lookup 0 subtable" ordmasculine
EndChar

StartChar: oacute
Encoding: 243 243 91
Width: 569
GlyphClass: 2
Flags: MW
HStem: -8 117<253 317 253 364.5> 414 117<253 317> 575 159<234 385>
VStem: 42 150<212 312 212 349> 377 150<212 312>
AnchorPoint: "Anchor-1" 291 700 basechar 0
AnchorPoint: "Anchor-0" 291 0 basechar 0
LayerCount: 2
Fore
SplineSet
365 734 m 0
 405 734 425 731 425 720 c 0
 425 708 418 706 321 600 c 0
 310 588 293 575 246 575 c 0
 222 575 215 579 215 590 c 0
 215 601 234 626 280 707 c 0
 292 728 325 734 365 734 c 0
285 531 m 0
 444 531 527 436 527 262 c 0
 527 88 444 -8 285 -8 c 0
 126 -8 42 88 42 262 c 0
 42 436 126 531 285 531 c 0
285 414 m 0
 221 414 192 362 192 262 c 0
 192 162 221 109 285 109 c 0
 349 109 377 162 377 262 c 0
 377 362 349 414 285 414 c 0
EndSplineSet
Substitution2: "'locl' Localized Forms in Latin lookup 11 subtable" oacute.loclPLK
Substitution2: "'aalt' Access All Alternates lookup 0 subtable" oacute.loclPLK
EndChar

StartChar: ocircumflex
Encoding: 244 244 92
Width: 569
GlyphClass: 2
Flags: MW
HStem: -8 117<253 317 253 364.5> 414 117<253 317> 572 146<161 291 168 291 280 381 280 403>
VStem: 42 150<212 312 212 349> 377 150<212 312>
AnchorPoint: "Anchor-1" 435 616 basechar 0
AnchorPoint: "Anchor-0" 291 0 basechar 0
LayerCount: 2
Fore
SplineSet
291 718 m 2
 320 718 341 717 352 699 c 2
 417 597 l 2
 421 591 423 586 423 582 c 0
 423 575 416 572 403 572 c 2
 381 572 l 2
 352 572 326 577 313 596 c 2
 285 636 l 1
 257 597 l 2
 242 576 219 572 190 572 c 2
 168 572 l 2
 154 572 148 575 148 582 c 0
 148 586 150 591 154 597 c 2
 219 699 l 2
 230 717 251 718 280 718 c 2
 291 718 l 2
285 531 m 0
 444 531 527 436 527 262 c 0
 527 88 444 -8 285 -8 c 0
 126 -8 42 88 42 262 c 0
 42 436 126 531 285 531 c 0
285 414 m 0
 221 414 192 362 192 262 c 0
 192 162 221 109 285 109 c 0
 349 109 377 162 377 262 c 0
 377 362 349 414 285 414 c 0
EndSplineSet
EndChar

StartChar: odieresis
Encoding: 246 246 93
Width: 569
GlyphClass: 2
Flags: MW
HStem: -8 117<253 317 253 364.5> 414 117<253 317> 578 124<174 216 354 396>
VStem: 42 150<212 312 212 349> 135 120<610 670 599.5 680.5> 315 120<610 670 599.5 680.5> 377 150<212 312>
AnchorPoint: "Anchor-1" 291 700 basechar 0
AnchorPoint: "Anchor-0" 291 0 basechar 0
LayerCount: 2
Fore
SplineSet
195 702 m 0xec
 237 702 255 691 255 670 c 2
 255 610 l 2
 255 589 237 578 195 578 c 0
 153 578 135 589 135 610 c 2
 135 670 l 2
 135 691 153 702 195 702 c 0xec
375 702 m 0
 417 702 435 691 435 670 c 2
 435 610 l 2
 435 589 417 578 375 578 c 0
 333 578 315 589 315 610 c 2
 315 670 l 2
 315 691 333 702 375 702 c 0
285 531 m 0xf2
 444 531 527 436 527 262 c 0
 527 88 444 -8 285 -8 c 0
 126 -8 42 88 42 262 c 0
 42 436 126 531 285 531 c 0xf2
285 414 m 0
 221 414 192 362 192 262 c 0
 192 162 221 109 285 109 c 0
 349 109 377 162 377 262 c 0
 377 362 349 414 285 414 c 0
EndSplineSet
EndChar

StartChar: ograve
Encoding: 242 242 94
Width: 569
GlyphClass: 2
Flags: MW
HStem: -8 117<253 317 253 364.5> 414 117<253 317> 575 159<191 342>
VStem: 42 150<212 312 212 349> 377 150<212 312>
AnchorPoint: "Anchor-1" 282 700 basechar 0
AnchorPoint: "Anchor-0" 291 0 basechar 0
LayerCount: 2
Fore
SplineSet
211 734 m 0
 251 734 284 728 296 707 c 0
 342 626 361 601 361 590 c 0
 361 579 354 575 330 575 c 0
 283 575 266 588 255 600 c 0
 158 706 151 708 151 720 c 0
 151 731 171 734 211 734 c 0
285 531 m 0
 444 531 527 436 527 262 c 0
 527 88 444 -8 285 -8 c 0
 126 -8 42 88 42 262 c 0
 42 436 126 531 285 531 c 0
285 414 m 0
 221 414 192 362 192 262 c 0
 192 162 221 109 285 109 c 0
 349 109 377 162 377 262 c 0
 377 362 349 414 285 414 c 0
EndSplineSet
EndChar

StartChar: omacron
Encoding: 333 333 95
Width: 569
GlyphClass: 2
Flags: MW
HStem: -8 117<253 317 253 364.5> 414 117<253 317> 597 95<167.5 393 178 393>
VStem: 42 150<212 312 212 349> 377 150<212 312>
AnchorPoint: "Anchor-1" 284 700 basechar 0
AnchorPoint: "Anchor-0" 291 0 basechar 0
LayerCount: 2
Fore
SplineSet
393 692 m 2
 414 692 423 680 423 652 c 2
 423 637 l 2
 423 609 414 597 393 597 c 2
 178 597 l 2
 157 597 148 609 148 637 c 2
 148 652 l 2
 148 680 157 692 178 692 c 2
 393 692 l 2
285 531 m 0
 444 531 527 436 527 262 c 0
 527 88 444 -8 285 -8 c 0
 126 -8 42 88 42 262 c 0
 42 436 126 531 285 531 c 0
285 414 m 0
 221 414 192 362 192 262 c 0
 192 162 221 109 285 109 c 0
 349 109 377 162 377 262 c 0
 377 362 349 414 285 414 c 0
EndSplineSet
EndChar

StartChar: oslash
Encoding: 248 248 96
Width: 569
GlyphClass: 2
Flags: MW
HStem: -8 117<272 317 272 364.5> 414 117<253 296.5>
VStem: 42 150<254.5 312 254.5 349> 377 150<212 270.5>
AnchorPoint: "Anchor-1" 285 523 basechar 0
AnchorPoint: "Anchor-0" 0 0 basechar 0
LayerCount: 2
Fore
SplineSet
285 531 m 0
 343 531 391 518 428 494 c 1
 460 531 l 2
 467 539 475 544 482 544 c 0
 498 544 530 517 530 500 c 0
 530 493 526 486 520 479 c 2
 484 437 l 1
 512 393 527 334 527 262 c 0
 527 88 444 -8 285 -8 c 0
 224 -8 174 6 136 33 c 1
 108 1 l 2
 101 -8 94 -12 87 -12 c 0
 71 -12 39 13 39 32 c 0
 39 39 42 45 49 53 c 2
 82 91 l 1
 55 135 42 192 42 262 c 0
 42 436 126 531 285 531 c 0
285 414 m 0
 221 414 192 362 192 262 c 0
 192 247 193 234 194 221 c 1
 341 393 l 1
 327 407 308 414 285 414 c 0
374 310 m 1
 224 135 l 1
 239 118 259 109 285 109 c 0
 349 109 377 162 377 262 c 0
 377 279 376 295 374 310 c 1
EndSplineSet
EndChar

StartChar: otilde
Encoding: 245 245 97
Width: 569
GlyphClass: 2
Flags: MW
HStem: -8 117<253 317 253 364.5> 414 117<253 317> 577.99 116.01 582 116.02
VStem: 42 150<212 312 212 349> 377 150<212 312>
AnchorPoint: "Anchor-1" 289 700 basechar 0
AnchorPoint: "Anchor-0" 291 0 basechar 0
LayerCount: 2
Fore
SplineSet
206 694 m 0xec
 240 694 314 667 347 665 c 0
 355 665 367 667 380 681 c 0
 395 700 406 700 420 696 c 2
 431 693 l 2
 455 686 457 666 451 652 c 0
 438 616 399 582 342 582 c 0xdc
 308 582 234 609 201 611 c 0
 193 611 180 609 168 595 c 0
 153 576 142 576 128 580 c 2
 117 583 l 2
 92 590 91 610 97 624 c 0
 110 660 149 694 206 694 c 0xec
285 531 m 0xdc
 444 531 527 436 527 262 c 0
 527 88 444 -8 285 -8 c 0
 126 -8 42 88 42 262 c 0
 42 436 126 531 285 531 c 0xdc
285 414 m 0
 221 414 192 362 192 262 c 0
 192 162 221 109 285 109 c 0
 349 109 377 162 377 262 c 0
 377 362 349 414 285 414 c 0
EndSplineSet
EndChar

StartChar: oe
Encoding: 339 339 98
Width: 871
GlyphClass: 2
Flags: MW
HStem: -8 117<252 316 252 320 612.5 666> 214 99<530 692 530 785 530 692> 414 117<252 316 599 645>
VStem: 41 150<212 312 212 349> 376 154<214 214 214 312> 692 144<313 342>
AnchorPoint: "Anchor-1" 436 523 basechar 0
AnchorPoint: "Anchor-0" 605 0 basechar 0
LayerCount: 2
Fore
SplineSet
766 140 m 0
 788 140 818 84 818 64 c 0
 818 14 694 -8 638 -8 c 0
 556 -8 495 14 452 52 c 1
 411 15 356 -8 284 -8 c 0
 125 -8 41 88 41 262 c 0
 41 436 125 531 284 531 c 0
 354 531 409 508 449 472 c 1
 491 513 551 531 620 531 c 0
 777 531 836 412 836 273 c 0
 836 256 798 214 785 214 c 2
 530 214 l 1
 537 134 580 109 645 109 c 0
 708 109 752 140 766 140 c 0
284 109 m 0
 348 109 376 162 376 262 c 0
 376 362 348 414 284 414 c 0
 220 414 191 362 191 262 c 0
 191 162 220 109 284 109 c 0
620 414 m 0
 578 414 542 390 530 313 c 1
 692 313 l 1
 692 371 670 414 620 414 c 0
EndSplineSet
EndChar

StartChar: p
Encoding: 112 112 99
Width: 573
GlyphClass: 2
Flags: MW
HStem: -8 117<296.5 319.5 272.5 387.5> 410 121<313 327.5>
VStem: 70 148<-174 23 128 347 347 351> 381 150<211 309.5>
LayerCount: 2
Fore
SplineSet
344 531 m 0
 452 531 531 435 531 261 c 0
 531 98 455 -8 320 -8 c 0
 273 -8 239 8 218 23 c 1
 218 -174 l 2
 218 -195 200 -206 158 -206 c 2
 130 -206 l 2
 88 -206 70 -195 70 -174 c 2
 70 347 l 2
 70 447 58 468 58 488 c 0
 58 512 145 520 170 520 c 0
 202 520 204 480 210 456 c 1
 233 499 282 531 344 531 c 0
300 410 m 0
 262 410 236 382 218 351 c 1
 218 128 l 1
 234 119 257 109 288 109 c 0
 351 109 381 161 381 261 c 0
 381 358 355 410 300 410 c 0
EndSplineSet
EndChar

StartChar: q
Encoding: 113 113 100
Width: 566
GlyphClass: 2
Flags: MW
HStem: -8 117<257 281.5> 410 121<249 265 178.5 297> 505 20G<436 448 448 469>
VStem: 42 150<211 309.5 211 348> 360 148<-174 23 23 23 128 351 351 351>
LayerCount: 2
Fore
SplineSet
234 531 m 0xd8
 296 531 345 499 368 456 c 1xd8
 378 499 l 2
 383 521 404 525 436 525 c 2
 448 525 l 2
 490 525 508 514 508 493 c 2xb8
 508 -174 l 2
 508 -195 490 -206 448 -206 c 2
 420 -206 l 2
 378 -206 360 -195 360 -174 c 2
 360 23 l 1
 339 8 305 -8 258 -8 c 0
 120 -8 42 98 42 261 c 0
 42 435 123 531 234 531 c 0xd8
278 410 m 0
 220 410 192 358 192 261 c 0
 192 161 224 109 290 109 c 0
 321 109 344 119 360 128 c 1
 360 351 l 1
 342 382 316 410 278 410 c 0
EndSplineSet
EndChar

StartChar: r
Encoding: 114 114 101
Width: 366
GlyphClass: 2
Flags: MW
HStem: -2 21G<101 122 122 150> 401 130<282 300> 511 20G<282 335.5>
VStem: 62 148<30 347 347 351>
AnchorPoint: "Anchor-1" 133 523 basechar 0
AnchorPoint: "Anchor-0" 150 -2 basechar 0
LayerCount: 2
Fore
SplineSet
311 531 m 0xb0
 360 531 368 497 368 477 c 0
 368 458 357 393 337 393 c 0
 323 393 310 401 290 401 c 0
 249 401 222 371 210 351 c 1xd0
 210 30 l 2
 210 9 192 -2 150 -2 c 2
 122 -2 l 2
 80 -2 62 9 62 30 c 2
 62 347 l 2
 62 447 50 468 50 488 c 0
 50 512 137 520 162 520 c 0
 194 520 196 480 202 455 c 1
 223 493 253 531 311 531 c 0xb0
EndSplineSet
EndChar

StartChar: s
Encoding: 115 115 102
Width: 413
GlyphClass: 2
Flags: MW
HStem: -8 117<159.5 204 158.5 259.5> 415 116<229.5 254 169.5 269.5>
VStem: 43 150<358 392.5 358 419> 243 150<137.5 170>
AnchorPoint: "Anchor-1" 207 523 basechar 0
AnchorPoint: "Anchor-0" 207 0 basechar 0
LayerCount: 2
Fore
SplineSet
225 531 m 0
 283 531 375 515 375 473 c 0
 375 451 351 394 332 394 c 0
 321 394 293 415 246 415 c 0
 213 415 193 405 193 380 c 0
 193 336 253 326 306 301 c 0
 351 279 393 242 393 163 c 0
 393 61 322 -8 197 -8 c 0
 122 -8 31 17 31 60 c 0
 31 86 64 137 84 137 c 0
 99 137 132 109 185 109 c 0
 223 109 243 124 243 151 c 0
 243 189 202 199 157 217 c 0
 108 236 43 267 43 367 c 0
 43 471 114 531 225 531 c 0
EndSplineSet
EndChar

StartChar: t
Encoding: 116 116 103
Width: 342
GlyphClass: 2
Flags: MW
HStem: -8 117<176 265.5> 406 117<50.5 77 61 77 225 274>
VStem: 77 148<154 406>
AnchorPoint: "Anchor-1" 0 0 basechar 0
AnchorPoint: "Anchor-0" 201 0 basechar 0
LayerCount: 2
Fore
SplineSet
175 650 m 2
 210 650 225 639 225 618 c 2
 225 523 l 1
 274 523 l 2
 295 523 304 508 304 473 c 2
 304 456 l 2
 304 421 295 406 274 406 c 2
 225 406 l 1
 225 152 l 2
 225 122 235 109 261 109 c 0
 270 109 282 113 288 113 c 0
 308 113 319 49 319 41 c 0
 319 -5 254 -8 223 -8 c 0
 129 -8 77 43 77 154 c 2
 77 406 l 1
 61 406 l 2
 40 406 31 421 31 456 c 2
 31 473 l 2
 31 508 40 523 61 523 c 2
 77 523 l 1
 90 618 l 2
 93 639 111 650 144 650 c 2
 175 650 l 2
EndSplineSet
EndChar

StartChar: u
Encoding: 117 117 104
Width: 557
GlyphClass: 2
Flags: MW
HStem: -8 122<156 287.5> -1 21G<379 407.5> 505 20G<119 147 147 168 407 435 435 456>
VStem: 59 148<156.5 176 176 493> 347 148<172 176 176 493>
AnchorPoint: "Anchor-1" 279 523 basechar 0
AnchorPoint: "Anchor-0" 251 0 basechar 0
LayerCount: 2
Fore
SplineSet
435 525 m 2x78
 477 525 495 514 495 493 c 2
 495 176 l 2
 495 73 507 52 507 31 c 0
 507 7 420 -1 395 -1 c 0x78
 363 -1 361 41 355 68 c 1
 326 30 271 -8 206 -8 c 0
 106 -8 59 43 59 154 c 2
 59 493 l 2
 59 514 77 525 119 525 c 2
 147 525 l 2
 189 525 207 514 207 493 c 2
 207 176 l 2
 207 137 223 114 267 114 c 0
 308 114 335 149 347 172 c 1xb8
 347 493 l 2
 347 514 365 525 407 525 c 2
 435 525 l 2x78
EndSplineSet
EndChar

StartChar: uacute
Encoding: 250 250 105
Width: 557
GlyphClass: 2
Flags: MW
HStem: -8 122<156 287.5> -1 21G<379 407.5> 505 20G<119 147 147 168 407 435 435 456> 575 159<228 379>
VStem: 59 148<156.5 176 176 493> 347 148<172 176 176 493>
AnchorPoint: "Anchor-1" 285 700 basechar 0
AnchorPoint: "Anchor-0" 251 0 basechar 0
LayerCount: 2
Fore
SplineSet
359 734 m 0x7c
 399 734 419 731 419 720 c 0
 419 708 412 706 315 600 c 0
 304 588 287 575 240 575 c 0
 216 575 209 579 209 590 c 0
 209 601 228 626 274 707 c 0
 286 728 319 734 359 734 c 0x7c
435 525 m 2
 477 525 495 514 495 493 c 2
 495 176 l 2
 495 73 507 52 507 31 c 0
 507 7 420 -1 395 -1 c 0x7c
 363 -1 361 41 355 68 c 1
 326 30 271 -8 206 -8 c 0
 106 -8 59 43 59 154 c 2
 59 493 l 2
 59 514 77 525 119 525 c 2
 147 525 l 2
 189 525 207 514 207 493 c 2
 207 176 l 2
 207 137 223 114 267 114 c 0
 308 114 335 149 347 172 c 1xbc
 347 493 l 2
 347 514 365 525 407 525 c 2
 435 525 l 2
EndSplineSet
EndChar

StartChar: ucircumflex
Encoding: 251 251 106
Width: 557
GlyphClass: 2
Flags: MW
HStem: -8 122<156 287.5> -1 21G<379 407.5> 505 20G<119 147 147 168 407 435 435 456> 572 146<155 285 162 285 274 375 274 397>
VStem: 59 148<156.5 176 176 493> 347 148<172 176 176 493>
AnchorPoint: "Anchor-1" 429 616 basechar 0
AnchorPoint: "Anchor-0" 251 0 basechar 0
LayerCount: 2
Fore
SplineSet
285 718 m 2x7c
 314 718 335 717 346 699 c 2
 411 597 l 2
 415 591 417 586 417 582 c 0
 417 575 410 572 397 572 c 2
 375 572 l 2
 346 572 320 577 307 596 c 2
 279 636 l 1
 251 597 l 2
 236 576 213 572 184 572 c 2
 162 572 l 2
 148 572 142 575 142 582 c 0
 142 586 144 591 148 597 c 2
 213 699 l 2
 224 717 245 718 274 718 c 2
 285 718 l 2x7c
435 525 m 2
 477 525 495 514 495 493 c 2
 495 176 l 2
 495 73 507 52 507 31 c 0
 507 7 420 -1 395 -1 c 0x7c
 363 -1 361 41 355 68 c 1
 326 30 271 -8 206 -8 c 0
 106 -8 59 43 59 154 c 2
 59 493 l 2
 59 514 77 525 119 525 c 2
 147 525 l 2
 189 525 207 514 207 493 c 2
 207 176 l 2
 207 137 223 114 267 114 c 0
 308 114 335 149 347 172 c 1xbc
 347 493 l 2
 347 514 365 525 407 525 c 2
 435 525 l 2
EndSplineSet
EndChar

StartChar: udieresis
Encoding: 252 252 107
Width: 557
GlyphClass: 2
Flags: MW
HStem: -8 122<156 287.5> -1 21G<379 407.5> 505 20G<119 147 147 168 407 435 435 456> 578 124<168 210 348 390>
VStem: 59 148<156.5 176 176 493> 129 120<610 670 599.5 680.5> 309 120<610 670 599.5 680.5> 347 148<172 176 176 493>
AnchorPoint: "Anchor-1" 285 700 basechar 0
AnchorPoint: "Anchor-0" 251 0 basechar 0
LayerCount: 2
Fore
SplineSet
189 702 m 0x76
 231 702 249 691 249 670 c 2
 249 610 l 2
 249 589 231 578 189 578 c 0
 147 578 129 589 129 610 c 2
 129 670 l 2
 129 691 147 702 189 702 c 0x76
369 702 m 0
 411 702 429 691 429 670 c 2
 429 610 l 2
 429 589 411 578 369 578 c 0
 327 578 309 589 309 610 c 2
 309 670 l 2
 309 691 327 702 369 702 c 0
435 525 m 2xb9
 477 525 495 514 495 493 c 2
 495 176 l 2
 495 73 507 52 507 31 c 0
 507 7 420 -1 395 -1 c 0x79
 363 -1 361 41 355 68 c 1
 326 30 271 -8 206 -8 c 0
 106 -8 59 43 59 154 c 2
 59 493 l 2
 59 514 77 525 119 525 c 2
 147 525 l 2
 189 525 207 514 207 493 c 2
 207 176 l 2
 207 137 223 114 267 114 c 0
 308 114 335 149 347 172 c 1
 347 493 l 2
 347 514 365 525 407 525 c 2
 435 525 l 2xb9
EndSplineSet
EndChar

StartChar: ugrave
Encoding: 249 249 108
Width: 557
GlyphClass: 2
Flags: MW
HStem: -8 122<156 287.5> -1 21G<379 407.5> 505 20G<119 147 147 168 407 435 435 456> 575 159<185 336>
VStem: 59 148<156.5 176 176 493> 347 148<172 176 176 493>
AnchorPoint: "Anchor-1" 276 700 basechar 0
AnchorPoint: "Anchor-0" 251 0 basechar 0
LayerCount: 2
Fore
SplineSet
205 734 m 0x7c
 245 734 278 728 290 707 c 0
 336 626 355 601 355 590 c 0
 355 579 348 575 324 575 c 0
 277 575 260 588 249 600 c 0
 152 706 145 708 145 720 c 0
 145 731 165 734 205 734 c 0x7c
435 525 m 2
 477 525 495 514 495 493 c 2
 495 176 l 2
 495 73 507 52 507 31 c 0
 507 7 420 -1 395 -1 c 0x7c
 363 -1 361 41 355 68 c 1
 326 30 271 -8 206 -8 c 0
 106 -8 59 43 59 154 c 2
 59 493 l 2
 59 514 77 525 119 525 c 2
 147 525 l 2
 189 525 207 514 207 493 c 2
 207 176 l 2
 207 137 223 114 267 114 c 0
 308 114 335 149 347 172 c 1xbc
 347 493 l 2
 347 514 365 525 407 525 c 2
 435 525 l 2
EndSplineSet
EndChar

StartChar: umacron
Encoding: 363 363 109
Width: 557
GlyphClass: 2
Flags: MW
HStem: -8 122<156 287.5> -1 21G<379 407.5> 505 20G<119 147 147 168 407 435 435 456> 597 95<161.5 387 172 387>
VStem: 59 148<156.5 176 176 493> 347 148<172 176 176 493>
AnchorPoint: "Anchor-1" 278 700 basechar 0
AnchorPoint: "Anchor-0" 251 0 basechar 0
LayerCount: 2
Fore
SplineSet
387 692 m 2x7c
 408 692 417 680 417 652 c 2
 417 637 l 2
 417 609 408 597 387 597 c 2
 172 597 l 2
 151 597 142 609 142 637 c 2
 142 652 l 2
 142 680 151 692 172 692 c 2
 387 692 l 2x7c
435 525 m 2
 477 525 495 514 495 493 c 2
 495 176 l 2
 495 73 507 52 507 31 c 0
 507 7 420 -1 395 -1 c 0x7c
 363 -1 361 41 355 68 c 1
 326 30 271 -8 206 -8 c 0
 106 -8 59 43 59 154 c 2
 59 493 l 2
 59 514 77 525 119 525 c 2
 147 525 l 2
 189 525 207 514 207 493 c 2
 207 176 l 2
 207 137 223 114 267 114 c 0
 308 114 335 149 347 172 c 1xbc
 347 493 l 2
 347 514 365 525 407 525 c 2
 435 525 l 2
EndSplineSet
EndChar

StartChar: uring
Encoding: 367 367 110
Width: 557
GlyphClass: 2
Flags: MW
HStem: -8 122<156 287.5> -1 21G<379 407.5> 505 20G<119 147 147 168 407 435 435 456> 550 62<269 289 269 307> 685 64<269 289>
VStem: 59 148<156.5 176 176 493> 180 63<638 658 638 677> 316 63<638 658> 347 148<172 176 176 493>
AnchorPoint: "Anchor-1" 280 700 basechar 0
AnchorPoint: "Anchor-0" 251 0 basechar 0
LayerCount: 2
Fore
SplineSet
279 749 m 0x7b
 335 749 379 705 379 649 c 0
 379 593 335 550 279 550 c 0
 223 550 180 593 180 649 c 0
 180 705 223 749 279 749 c 0x7b
279 685 m 0
 259 685 243 668 243 648 c 0
 243 628 259 612 279 612 c 0
 299 612 316 628 316 648 c 0
 316 668 299 685 279 685 c 0
435 525 m 2xac80
 477 525 495 514 495 493 c 2
 495 176 l 2
 495 73 507 52 507 31 c 0
 507 7 420 -1 395 -1 c 0x6c80
 363 -1 361 41 355 68 c 1
 326 30 271 -8 206 -8 c 0
 106 -8 59 43 59 154 c 2
 59 493 l 2
 59 514 77 525 119 525 c 2
 147 525 l 2
 189 525 207 514 207 493 c 2
 207 176 l 2
 207 137 223 114 267 114 c 0
 308 114 335 149 347 172 c 1
 347 493 l 2
 347 514 365 525 407 525 c 2
 435 525 l 2xac80
EndSplineSet
EndChar

StartChar: utilde
Encoding: 361 361 111
Width: 557
GlyphClass: 2
Flags: MW
HStem: -8 122<156 287.5> -1 21G<379 407.5> 505 20G<119 147 147 168 407 435 435 456> 577.99 116.01 582 116.02
VStem: 59 148<156.5 176 176 493> 347 148<172 176 176 493>
AnchorPoint: "Anchor-1" 283 700 basechar 0
AnchorPoint: "Anchor-0" 251 0 basechar 0
LayerCount: 2
Fore
SplineSet
200 694 m 0x76
 234 694 308 667 341 665 c 0
 349 665 361 667 374 681 c 0
 389 700 400 700 414 696 c 2
 425 693 l 2
 449 686 451 666 445 652 c 0
 432 616 393 582 336 582 c 0x6e
 302 582 228 609 195 611 c 0
 187 611 174 609 162 595 c 0
 147 576 136 576 122 580 c 2
 111 583 l 2
 86 590 85 610 91 624 c 0
 104 660 143 694 200 694 c 0x76
435 525 m 2xae
 477 525 495 514 495 493 c 2
 495 176 l 2
 495 73 507 52 507 31 c 0
 507 7 420 -1 395 -1 c 0x6e
 363 -1 361 41 355 68 c 1
 326 30 271 -8 206 -8 c 0
 106 -8 59 43 59 154 c 2
 59 493 l 2
 59 514 77 525 119 525 c 2
 147 525 l 2
 189 525 207 514 207 493 c 2
 207 176 l 2
 207 137 223 114 267 114 c 0
 308 114 335 149 347 172 c 1
 347 493 l 2
 347 514 365 525 407 525 c 2
 435 525 l 2xae
EndSplineSet
EndChar

StartChar: v
Encoding: 118 118 112
Width: 485
GlyphClass: 2
Flags: MW
HStem: -2 21G 505 20G<68 101 101 115.5 391 416 416 437>
VStem: 7 469<500.5 510>
LayerCount: 2
Fore
SplineSet
416 525 m 2
 458 525 476 517 476 503 c 0
 476 498 475 492 473 485 c 2
 314 19 l 2
 309 3 287 -2 258 -2 c 2
 226 -2 l 2
 197 -2 175 3 170 19 c 2
 11 485 l 2
 9 492 7 498 7 503 c 0
 7 517 26 525 68 525 c 2
 101 525 l 2
 130 525 152 520 157 504 c 2
 216 319 l 2
 223 295 234 242 244 198 c 1
 248 198 l 1
 257 242 269 296 276 319 c 2
 335 504 l 2
 340 520 362 525 391 525 c 2
 416 525 l 2
EndSplineSet
EndChar

StartChar: w
Encoding: 119 119 113
Width: 747
GlyphClass: 2
Flags: MW
HStem: -2 21G 505 20G<58.5 107 369 393 393 407 644 683.5>
VStem: 18 706<497 507>
AnchorPoint: "Anchor-1" 374 523 basechar 0
AnchorPoint: "Anchor-0" 0 0 basechar 0
LayerCount: 2
Fore
SplineSet
662 525 m 0
 705 525 724 515 724 499 c 0
 724 495 723 490 722 484 c 2
 604 19 l 2
 600 5 577 -2 549 -2 c 2
 500 -2 l 2
 468 -2 449 5 445 19 c 2
 384 257 l 2
 380 271 377 286 373 300 c 1
 362 256 l 1
 305 19 l 2
 302 5 278 -2 250 -2 c 2
 201 -2 l 2
 168 -2 150 5 146 19 c 2
 20 484 l 2
 18 490 18 495 18 499 c 0
 18 515 37 525 80 525 c 0
 134 525 155 519 159 504 c 2
 227 240 l 1
 238 196 l 1
 242 212 246 227 250 243 c 2
 314 504 l 2
 317 518 337 525 369 525 c 2
 393 525 l 2
 421 525 445 518 448 504 c 2
 512 237 l 2
 515 223 519 210 522 196 c 1
 534 240 l 1
 603 504 l 2
 607 518 626 525 662 525 c 0
EndSplineSet
EndChar

StartChar: x
Encoding: 120 120 114
Width: 485
GlyphClass: 2
Flags: MW
HStem: -2 21G<46.5 68 68 98 370.5 385 385 417> 505 20G<77 109 109 123.5 386 415 415 436.5>
VStem: 5 475<10.5 19>
LayerCount: 2
Fore
SplineSet
415 525 m 2
 458 525 478 518 478 507 c 0
 478 501 474 493 467 482 c 2
 321 266 l 1
 469 42 l 2
 476 31 480 23 480 16 c 0
 480 5 460 -2 417 -2 c 2
 385 -2 l 2
 356 -2 335 -1 324 17 c 2
 255 127 l 1
 242 148 l 1
 238 141 233 134 229 127 c 2
 159 17 l 2
 148 -1 127 -2 98 -2 c 2
 68 -2 l 2
 25 -2 5 5 5 16 c 0
 5 22 9 30 16 41 c 2
 167 265 l 1
 25 481 l 2
 18 492 14 500 14 507 c 0
 14 518 34 525 77 525 c 2
 109 525 l 2
 138 525 159 524 170 506 c 2
 231 407 l 1
 246 383 l 1
 252 392 257 400 263 409 c 2
 325 506 l 2
 336 524 357 525 386 525 c 2
 415 525 l 2
EndSplineSet
EndChar

StartChar: y
Encoding: 121 121 115
Width: 481
GlyphClass: 2
Flags: MW
HStem: 505 20G<71 103 103 117.5 393 417 417 438>
VStem: 10 467<500.5 510>
AnchorPoint: "Anchor-1" 241 523 basechar 0
AnchorPoint: "Anchor-0" 361 -36 basechar 0
LayerCount: 2
Fore
SplineSet
417 525 m 2
 459 525 477 517 477 503 c 0
 477 498 476 492 474 485 c 2
 245 -185 l 2
 239 -201 218 -206 189 -206 c 2
 172 -206 l 2
 131 -206 112 -198 112 -185 c 0
 112 -180 113 -174 116 -167 c 2
 179 0 l 1
 14 485 l 2
 12 492 10 498 10 503 c 0
 10 517 29 525 71 525 c 2
 103 525 l 2
 132 525 154 520 159 504 c 2
 218 319 l 2
 225 296 237 241 246 198 c 1
 250 198 l 1
 259 241 271 297 278 319 c 2
 337 504 l 2
 342 520 364 525 393 525 c 2
 417 525 l 2
EndSplineSet
Substitution2: "'ss01' Style Set 1 lookup 17 subtable" y.loclGUA
Substitution2: "'salt' Stylistic Alternatives lookup 16 subtable" y.loclGUA
Substitution2: "'aalt' Access All Alternates lookup 0 subtable" y.loclGUA
EndChar

StartChar: z
Encoding: 122 122 116
Width: 489
GlyphClass: 2
Flags: MW
HStem: 0 117<225 430 225 430> 406 117<62.5 427 73 259>
VStem: 27 433<63 67 32.5 79>
AnchorPoint: "Anchor-1" 245 523 basechar 0
AnchorPoint: "Anchor-0" 241 0 basechar 0
LayerCount: 2
Fore
SplineSet
427 523 m 2
 438 523 456 474 456 446 c 0
 456 439 455 434 453 431 c 2
 225 117 l 1
 430 117 l 2
 451 117 460 102 460 67 c 2
 460 50 l 2
 460 15 451 0 430 0 c 2
 56 0 l 2
 43 0 27 50 27 76 c 0
 27 82 28 87 30 90 c 2
 259 406 l 1
 73 406 l 2
 52 406 43 421 43 456 c 2
 43 473 l 2
 43 508 52 523 73 523 c 2
 427 523 l 2
EndSplineSet
EndChar

StartChar: uniFB01
Encoding: 64257 64257 117
Width: 563
GlyphClass: 3
Flags: MW
HStem: -2 21G<104 125 125 153 396 417 417 445> 406 117<36.5 65 47 65 213 263> 609 145<396 445 417 445> 643 117<164 254>
VStem: 65 148<30 406 523 598 598 600> 357 148<30 493 641 722>
LayerCount: 2
Fore
SplineSet
211 760 m 0xdc
 243 760 311 757 311 711 c 0
 311 703 300 639 280 639 c 0
 273 639 259 643 249 643 c 0
 223 643 213 630 213 600 c 2
 213 523 l 1
 263 523 l 2
 284 523 293 508 293 473 c 2
 293 456 l 2
 293 421 284 406 263 406 c 2
 213 406 l 1
 213 30 l 2
 213 9 195 -2 153 -2 c 2
 125 -2 l 2
 83 -2 65 9 65 30 c 2
 65 406 l 1
 47 406 l 2
 26 406 17 421 17 456 c 2
 17 473 l 2
 17 508 26 523 47 523 c 2
 65 523 l 1
 65 598 l 2
 65 709 117 760 211 760 c 0xdc
445 754 m 2xec
 487 754 505 743 505 722 c 2
 505 641 l 2
 505 620 487 609 445 609 c 2
 417 609 l 2
 375 609 357 620 357 641 c 2
 357 722 l 2
 357 743 375 754 417 754 c 2
 445 754 l 2xec
445 525 m 2
 487 525 505 514 505 493 c 2
 505 30 l 2
 505 9 487 -2 445 -2 c 2
 417 -2 l 2
 375 -2 357 9 357 30 c 2
 357 493 l 2
 357 514 375 525 417 525 c 2
 445 525 l 2
EndSplineSet
Ligature2: "'liga' Standard Ligatures lookup 15 subtable" f i
EndChar

StartChar: uniFB02
Encoding: 64258 64258 118
Width: 591
GlyphClass: 3
Flags: MW
HStem: -8 117<456 545.5> -2 21G<104 125 125 153> 406 117<36.5 65 47 65 213 263> 643 117<164 254> 734 20G<417 445 445 466>
VStem: 65 148<30 406 523 598 598 600> 357 148<154 722>
LayerCount: 2
Fore
SplineSet
211 760 m 0x76
 243 760 311 757 311 711 c 0
 311 703 300 639 280 639 c 0
 273 639 259 643 249 643 c 0
 223 643 213 630 213 600 c 2
 213 523 l 1
 263 523 l 2
 284 523 293 508 293 473 c 2
 293 456 l 2
 293 421 284 406 263 406 c 2
 213 406 l 1
 213 30 l 2
 213 9 195 -2 153 -2 c 2
 125 -2 l 2
 83 -2 65 9 65 30 c 2
 65 406 l 1
 47 406 l 2
 26 406 17 421 17 456 c 2
 17 473 l 2
 17 508 26 523 47 523 c 2
 65 523 l 1
 65 598 l 2
 65 709 117 760 211 760 c 0x76
445 754 m 2xae
 487 754 505 743 505 722 c 2
 505 152 l 2
 505 122 515 109 541 109 c 0
 550 109 562 113 568 113 c 0
 588 113 599 49 599 41 c 0
 599 -5 534 -8 503 -8 c 0
 409 -8 357 43 357 154 c 2
 357 722 l 2
 357 743 375 754 417 754 c 2
 445 754 l 2xae
EndSplineSet
Ligature2: "'liga' Standard Ligatures lookup 15 subtable" f l
EndChar

StartChar: ordmasculine
Encoding: 186 186 119
Width: 337
GlyphClass: 2
Flags: MW
HStem: 441 58<152 184 152 207.5> 650 58<152 184>
VStem: 47 75<550 599.5 550 618> 213 75<550 599.5>
LayerCount: 2
Fore
SplineSet
168 708 m 0
 247 708 288 661 288 575 c 0
 288 488 247 441 168 441 c 0
 89 441 47 488 47 575 c 0
 47 661 89 708 168 708 c 0
168 650 m 0
 136 650 122 624 122 575 c 0
 122 525 136 499 168 499 c 0
 200 499 213 525 213 575 c 0
 213 624 200 650 168 650 c 0
EndSplineSet
EndChar

StartChar: mu
Encoding: 956 956 120
Width: 566
GlyphClass: 2
Flags: MW
HStem: -8 122<201 281.5> -1 21G<373 401.5> 505 20G<113 141 141 162 401 429 429 450>
VStem: 53 148<-174 -8 156.5 176 176 493> 341 148<172 176 176 493>
LayerCount: 2
Fore
SplineSet
489 176 m 2x78
 489 73 501 52 501 31 c 0
 501 7 414 -1 389 -1 c 0x78
 357 -1 355 41 349 68 c 1
 320 29 265 -7 201 -8 c 1
 201 -174 l 2
 201 -195 183 -206 141 -206 c 2
 113 -206 l 2
 71 -206 53 -195 53 -174 c 2
 53 493 l 2
 53 514 71 525 113 525 c 2
 141 525 l 2
 183 525 201 514 201 493 c 2
 201 176 l 2
 201 137 217 114 261 114 c 0
 302 114 329 149 341 172 c 1xb8
 341 493 l 2
 341 514 359 525 401 525 c 2
 429 525 l 2
 471 525 489 514 489 493 c 2
 489 176 l 2x78
EndSplineSet
Substitution2: "'mgrk' Mathematical Greek lookup 18 subtable" uni00B5
Substitution2: "'aalt' Access All Alternates lookup 0 subtable" uni00B5
EndChar

StartChar: zero
Encoding: 48 48 121
Width: 535
Flags: MW
HStem: -8 117<239 295 239 341> 591 117<239 295>
VStem: 30 150<270.5 429.5 270.5 462.5> 354 150<270.5 429.5>
LayerCount: 2
Fore
SplineSet
267 708 m 0
 415 708 504 575 504 350 c 0
 504 125 415 -8 267 -8 c 0
 119 -8 30 125 30 350 c 0
 30 575 119 708 267 708 c 0
267 591 m 0
 211 591 180 509 180 350 c 0
 180 191 211 109 267 109 c 0
 323 109 354 191 354 350 c 0
 354 509 323 591 267 591 c 0
EndSplineSet
EndChar

StartChar: one
Encoding: 49 49 122
Width: 535
Flags: MW
HStem: 0 117<61.5 205 72 205 353 460> 684 20G<312 320>
VStem: 205 148<117 566 566 566>
LayerCount: 2
Fore
SplineSet
312 704 m 2
 328 704 353 692 353 680 c 2
 353 117 l 1
 460 117 l 2
 481 117 490 102 490 67 c 2
 490 50 l 2
 490 15 481 0 460 0 c 2
 72 0 l 2
 51 0 42 15 42 50 c 2
 42 67 l 2
 42 102 51 117 72 117 c 2
 205 117 l 1
 205 566 l 1
 69 546 l 2
 43 546 37 602 37 630 c 0
 37 645 46 655 63 658 c 2
 312 704 l 2
EndSplineSet
Substitution2: "'sups' Superscript lookup 12 subtable" uni00B9
Substitution2: "'aalt' Access All Alternates lookup 0 subtable" uni00B9
EndChar

StartChar: two
Encoding: 50 50 123
Width: 535
Flags: MW
HStem: 0 117<228 459 228 459> 590 118<212 260.5>
VStem: 327 150<490.5 536>
LayerCount: 2
Fore
SplineSet
259 708 m 0
 400 708 477 626 477 512 c 0
 477 448 452 393 416 349 c 2
 228 117 l 1
 459 117 l 2
 480 117 489 102 489 67 c 2
 489 50 l 2
 489 15 480 0 459 0 c 2
 61 0 l 2
 46 0 33 59 33 88 c 0
 33 95 34 100 36 103 c 2
 289 413 l 2
 311 440 327 472 327 509 c 0
 327 563 287 590 234 590 c 0
 170 590 135 547 117 547 c 0
 86 547 60 590 60 616 c 0
 60 675 165 708 259 708 c 0
EndSplineSet
Substitution2: "'sups' Superscript lookup 12 subtable" uni00B2
Substitution2: "'aalt' Access All Alternates lookup 0 subtable" uni00B2
EndChar

StartChar: three
Encoding: 51 51 124
Width: 535
Flags: MW
HStem: -8 117<215.5 259.5 189.5 319.5> 308 118<173.5 203 184 203 203 212> 590 118<201.5 252>
VStem: 306 150<498.5 533.5> 329 150<175 239>
LayerCount: 2
Fore
SplineSet
251 708 m 0xf0
 376 708 456 640 456 533 c 0xf0
 456 464 420 411 363 387 c 1
 363 383 l 1
 442 353 479 286 479 204 c 0
 479 71 386 -8 253 -8 c 0
 178 -8 36 12 36 74 c 0
 36 93 62 150 85 150 c 0
 103 150 149 109 230 109 c 0
 289 109 329 144 329 206 c 0xe8
 329 272 296 308 212 308 c 2
 184 308 l 2
 163 308 154 323 154 358 c 2
 154 376 l 2
 154 411 163 426 184 426 c 2
 203 426 l 2
 268 426 306 459 306 509 c 0
 306 558 279 590 225 590 c 0
 149 590 125 559 107 559 c 0
 87 559 57 608 57 635 c 0
 57 685 152 708 251 708 c 0xf0
EndSplineSet
Substitution2: "'sups' Superscript lookup 12 subtable" uni00B3
Substitution2: "'aalt' Access All Alternates lookup 0 subtable" uni00B3
EndChar

StartChar: four
Encoding: 52 52 125
Width: 535
Flags: MW
HStem: -2 21G<349 370 370 398> 142 117<39.5 310 160 310 160 310 458 496> 682 20G<371 398 398 419>
VStem: 310 148<30 142 19.5 142 259 488 488 488>
LayerCount: 2
Fore
SplineSet
398 702 m 2
 440 702 458 691 458 670 c 2
 458 259 l 1
 496 259 l 2
 517 259 526 244 526 209 c 2
 526 192 l 2
 526 157 517 142 496 142 c 2
 458 142 l 1
 458 30 l 2
 458 9 440 -2 398 -2 c 2
 370 -2 l 2
 328 -2 310 9 310 30 c 2
 310 142 l 1
 48 142 l 2
 31 142 11 208 11 235 c 0
 11 240 12 244 13 246 c 2
 310 683 l 2
 322 700 342 702 371 702 c 2
 398 702 l 2
306 489 m 1
 160 259 l 1
 310 259 l 1
 310 488 l 1
 306 489 l 1
EndSplineSet
EndChar

StartChar: five
Encoding: 53 53 126
Width: 535
Flags: MW
HStem: -8 117<193 265.5 193 294.5> 323 117<91.5 239 213 215> 583 117<223 425 223 223>
VStem: 69 149 340 150<179.5 247>
LayerCount: 2
Fore
SplineSet
425 700 m 2
 446 700 455 685 455 650 c 2
 455 623 l 2
 455 595 446 583 425 583 c 2
 223 583 l 1
 213 440 l 1
 239 440 l 2
 390 440 490 388 490 216 c 0
 490 47 355 -8 234 -8 c 0
 121 -8 38 24 38 64 c 0
 38 82 69 143 92 143 c 0
 103 143 153 109 233 109 c 0
 298 109 340 147 340 212 c 0
 340 282 307 323 215 323 c 2
 106 323 l 2
 77 323 69 335 69 363 c 2
 88 660 l 2
 90 688 101 700 130 700 c 2
 425 700 l 2
EndSplineSet
EndChar

StartChar: six
Encoding: 54 54 127
Width: 535
Flags: MW
HStem: -8 117<246.5 293.5 246.5 325.5> 311 117<292.5 293> 684 20G<380 404>
VStem: 33 151<191.5 249 191.5 445> 355 149<181.5 242.5>
LayerCount: 2
Fore
SplineSet
387 704 m 0
 421 704 437 641 437 621 c 0
 437 607 435 603 424 600 c 0
 327 571 240 502 207 403 c 1
 246 424 278 428 307 428 c 0
 381 428 504 378 504 216 c 0
 504 54 382 -8 269 -8 c 0
 156 -8 33 60 33 253 c 0
 33 637 373 704 387 704 c 0
264 311 m 0
 237 311 210 301 185 287 c 1
 184 272 184 257 184 241 c 0
 184 142 223 109 270 109 c 0
 317 109 355 151 355 212 c 0
 355 273 322 311 264 311 c 0
EndSplineSet
EndChar

StartChar: seven
Encoding: 55 55 128
Width: 535
Flags: MW
HStem: -2 21G<114 134 134 171> 583 117<57.5 464 68 329>
VStem: 38 456<607.5 650 607.5 667.5>
LayerCount: 2
Fore
SplineSet
464 700 m 2
 475 700 494 641 494 610 c 0
 494 605 493 600 492 597 c 2
 229 18 l 2
 222 2 200 -2 171 -2 c 2
 134 -2 l 2
 94 -2 75 5 75 17 c 0
 75 22 77 28 81 36 c 2
 329 583 l 1
 68 583 l 2
 47 583 38 598 38 633 c 2
 38 650 l 2
 38 685 47 700 68 700 c 2
 464 700 l 2
EndSplineSet
EndChar

StartChar: eight
Encoding: 56 56 129
Width: 535
Flags: MW
HStem: -8 117<240 298 240 356.5> 591 117<253 289>
VStem: 29 149<180 238.5 180 248> 56 146<498.5 546 498.5 568> 339 144<506 545> 356 150<179 239.5>
LayerCount: 2
Fore
SplineSet
276 708 m 0xd8
 406 708 483 628 483 534 c 0xe8
 483 450 446 412 396 385 c 1
 458 357 506 302 506 192 c 0
 506 100 442 -8 271 -8 c 0
 100 -8 29 90 29 201 c 0xe4
 29 295 75 354 130 375 c 1
 87 404 56 446 56 519 c 0
 56 617 127 708 276 708 c 0xd8
271 591 m 0
 235 591 202 568 202 524 c 0
 202 473 238 451 285 432 c 1
 321 456 339 488 339 524 c 0
 339 566 307 591 271 591 c 0
233 326 m 1xe4
 199 301 178 267 178 210 c 0
 178 150 211 109 269 109 c 0
 327 109 356 158 356 200 c 0
 356 279 298 302 233 326 c 1xe4
EndSplineSet
EndChar

StartChar: nine
Encoding: 57 57 130
Width: 535
Flags: MW
HStem: -5 21G<129 153> 271 117<240 240.5> 590 117<239.5 286.5>
VStem: 29 149<456.5 517.5 456.5 564> 349 151<450 507.5>
LayerCount: 2
Fore
SplineSet
264 707 m 0
 377 707 500 639 500 446 c 0
 500 62 160 -5 146 -5 c 0
 112 -5 96 58 96 78 c 0
 96 92 98 96 109 99 c 0
 206 128 293 197 326 296 c 1
 287 275 255 271 226 271 c 0
 152 271 29 321 29 483 c 0
 29 645 151 707 264 707 c 0
263 590 m 0
 216 590 178 548 178 487 c 0
 178 426 211 388 269 388 c 0
 296 388 323 398 348 412 c 1
 349 427 349 442 349 458 c 0
 349 557 310 590 263 590 c 0
EndSplineSet
EndChar

StartChar: fraction
Encoding: 8260 8260 131
Width: 264
Flags: MW
HStem: 0 21G<-75 -68 -68 -51> 680 20G<321 338 338 345>
VStem: -89 448
LayerCount: 2
Fore
SplineSet
338 700 m 2
 352 700 359 696 359 689 c 0
 359 685 357 680 353 674 c 2
 -6 26 l 2
 -17 7 -31 0 -51 0 c 2
 -68 0 l 2
 -82 0 -89 3 -89 11 c 0
 -89 15 -87 20 -83 26 c 2
 276 674 l 2
 286 692 301 700 321 700 c 2
 338 700 l 2
EndSplineSet
EndChar

StartChar: onehalf
Encoding: 189 189 132
Width: 746
Flags: MW
HStem: 0 68<549 683 549 683> 345 69<539 567> 680 20G<522 539 539 546> 684 20G<176 180>
VStem: 113 86<312 624 624 624> 606 88<287 314>
LayerCount: 2
Fore
SplineSet
176 704 m 2xd8
 184 704 199 697 199 690 c 2
 199 312 l 2
 199 300 188 293 164 293 c 2
 148 293 l 2
 124 293 113 300 113 312 c 2
 113 624 l 1
 34 611 l 2
 19 611 15 645 15 661 c 0
 15 670 20 676 30 678 c 2
 176 704 l 2xd8
539 700 m 2xec
 553 700 560 696 560 689 c 0
 560 685 558 680 554 674 c 2
 195 26 l 2
 184 7 170 0 150 0 c 2
 133 0 l 2
 119 0 112 3 112 11 c 0
 112 15 114 20 118 26 c 2
 477 674 l 2
 487 692 502 700 522 700 c 2
 539 700 l 2xec
567 414 m 0
 648 414 694 366 694 300 c 0
 694 262 679 230 658 204 c 2
 549 68 l 1
 683 68 l 2
 696 68 701 60 701 40 c 2
 701 30 l 2
 701 9 696 0 683 0 c 2
 451 0 l 2
 442 0 434 35 434 52 c 0
 434 56 435 59 436 61 c 2
 584 241 l 2
 597 257 606 276 606 298 c 0
 606 330 582 345 552 345 c 0
 514 345 492 321 484 321 c 0
 466 321 450 345 450 361 c 0
 450 395 511 414 567 414 c 0
EndSplineSet
Ligature2: "'frac' Diagonal Fractions lookup 13 subtable" one slash two
EndChar

StartChar: uni2153
Encoding: 8531 8531 133
Width: 746
Flags: MW
HStem: -7 69<546 572.5 531 607.5> 0 21G<126 133 133 150> 179 69<522 539 528 539 539 544> 345 69<538 568> 680 20G<522 539 539 546> 684 20G<176 180>
VStem: 113 86<312 624 624 624> 600 88<291 311.5> 613 88<101 138.5>
LayerCount: 2
Fore
SplineSet
176 704 m 2xb6
 184 704 199 697 199 690 c 2
 199 312 l 2
 199 300 188 293 164 293 c 2
 148 293 l 2
 124 293 113 300 113 312 c 2
 113 624 l 1
 34 611 l 2
 19 611 15 645 15 661 c 0
 15 670 20 676 30 678 c 2
 176 704 l 2xb6
539 700 m 2x7b
 553 700 560 696 560 689 c 0
 560 685 558 680 554 674 c 2
 195 26 l 2
 184 7 170 0 150 0 c 2
 133 0 l 2
 119 0 112 3 112 11 c 0
 112 15 114 20 118 26 c 2
 477 674 l 2
 487 692 502 700 522 700 c 2
 539 700 l 2x7b
567 414 m 0
 641 414 688 374 688 311 c 0xb7
 688 271 667 241 633 226 c 1
 633 222 l 1
 679 204 701 166 701 118 c 0
 701 40 647 -7 568 -7 c 0
 524 -7 441 5 441 42 c 0
 441 53 456 86 470 86 c 0
 480 86 507 62 555 62 c 0
 590 62 613 83 613 119 c 0
 613 158 594 179 544 179 c 2
 528 179 l 2xb680
 516 179 510 188 510 208 c 2
 510 219 l 2
 510 240 516 248 528 248 c 2
 539 248 l 2
 577 248 600 268 600 297 c 0
 600 326 584 345 552 345 c 0
 507 345 493 326 483 326 c 0
 471 326 453 355 453 371 c 0
 453 400 509 414 567 414 c 0
EndSplineSet
Ligature2: "'frac' Diagonal Fractions lookup 13 subtable" one slash three
EndChar

StartChar: uni2154
Encoding: 8532 8532 134
Width: 826
Flags: MW
HStem: -7 69<626 652.5 611 687.5> 0 21G<206 213 213 230> 179 69<602 619 608 619 619 624> 293 68<139 273 139 273> 345 69<618 648> 638 69<129 157> 680 20G<602 619 619 626>
VStem: 196 88<580 607> 680 88<291 311.5> 693 88<101 138.5>
LayerCount: 2
Fore
SplineSet
157 707 m 0xb540
 238 707 284 659 284 593 c 0
 284 555 269 523 248 497 c 2
 139 361 l 1
 273 361 l 2
 286 361 291 353 291 333 c 2
 291 323 l 2
 291 302 286 293 273 293 c 2
 41 293 l 2
 32 293 24 328 24 345 c 0
 24 349 25 352 26 354 c 2
 174 534 l 2
 187 550 196 569 196 591 c 0
 196 623 172 638 142 638 c 0
 104 638 82 614 74 614 c 0
 56 614 40 638 40 654 c 0
 40 688 101 707 157 707 c 0xb540
619 700 m 2x6b80
 633 700 640 696 640 689 c 0
 640 685 638 680 634 674 c 2
 275 26 l 2
 264 7 250 0 230 0 c 2
 213 0 l 2
 199 0 192 3 192 11 c 0
 192 15 194 20 198 26 c 2
 557 674 l 2
 567 692 582 700 602 700 c 2
 619 700 l 2x6b80
647 414 m 0
 721 414 768 374 768 311 c 0xb580
 768 271 747 241 713 226 c 1
 713 222 l 1
 759 204 781 166 781 118 c 0
 781 40 727 -7 648 -7 c 0
 604 -7 521 5 521 42 c 0
 521 53 536 86 550 86 c 0
 560 86 587 62 635 62 c 0
 670 62 693 83 693 119 c 0
 693 158 674 179 624 179 c 2
 608 179 l 2xb540
 596 179 590 188 590 208 c 2
 590 219 l 2
 590 240 596 248 608 248 c 2
 619 248 l 2
 657 248 680 268 680 297 c 0
 680 326 664 345 632 345 c 0
 587 345 573 326 563 326 c 0
 551 326 533 355 533 371 c 0
 533 400 589 414 647 414 c 0
EndSplineSet
Ligature2: "'frac' Diagonal Fractions lookup 13 subtable" two slash three
EndChar

StartChar: onequarter
Encoding: 188 188 135
Width: 671
Flags: MW
HStem: -2 21G<545 557 557 573> 0 21G<126 133 133 150> 82 68<364 522 435 522 435 522 608 631> 293 117<525 573 525 573> 680 20G<522 539 539 546> 684 20G<176 180>
VStem: 113 86<312 624 624 624> 522 86<17 82 10.5 82 150 240 240 240>
LayerCount: 2
Fore
SplineSet
176 704 m 2x77
 184 704 199 697 199 690 c 2
 199 312 l 2
 199 300 188 293 164 293 c 2
 148 293 l 2
 124 293 113 300 113 312 c 2
 113 624 l 1
 34 611 l 2
 19 611 15 645 15 661 c 0
 15 670 20 676 30 678 c 2
 176 704 l 2x77
539 700 m 2x7b
 553 700 560 696 560 689 c 0
 560 685 558 680 554 674 c 2
 195 26 l 2
 184 7 170 0 150 0 c 2
 133 0 l 2
 119 0 112 3 112 11 c 0
 112 15 114 20 118 26 c 2
 477 674 l 2
 487 692 502 700 522 700 c 2
 539 700 l 2x7b
573 410 m 2
 598 410 608 403 608 391 c 2
 608 150 l 1
 631 150 l 2
 643 150 648 141 648 121 c 2
 648 111 l 2
 648 91 643 82 631 82 c 2
 608 82 l 1
 608 17 l 2
 608 4 598 -2 573 -2 c 2
 557 -2 l 2
 533 -2 522 4 522 17 c 2xb7
 522 82 l 1
 369 82 l 2
 359 82 348 120 348 136 c 0
 348 139 348 141 349 143 c 2
 522 399 l 2
 529 408 541 410 558 410 c 2
 573 410 l 2
529 293 m 1
 525 293 l 1
 435 150 l 1
 522 150 l 1
 522 240 l 1
 529 293 l 1
EndSplineSet
Ligature2: "'frac' Diagonal Fractions lookup 13 subtable" one slash four
EndChar

StartChar: threequarters
Encoding: 190 190 136
Width: 738
Flags: MW
HStem: -2 21G<583 595 595 611> 0 21G<164 171 171 188> 82 68<402 560 473 560 473 560 646 669> 287 69<132 158.5 117 193.5> 473 69<108 125 114 125 125 130> 639 69<124 154> 680 20G<560 577 577 584>
VStem: 186 88<585 605.5> 199 88<395 432.5> 560 86<17 82 10.5 82 150 240 240 240>
LayerCount: 2
Fore
SplineSet
153 708 m 0x7d40
 227 708 274 668 274 605 c 0x7d40
 274 565 253 535 219 520 c 1
 219 516 l 1
 265 498 287 460 287 412 c 0
 287 334 233 287 154 287 c 0
 110 287 27 299 27 336 c 0
 27 347 42 380 56 380 c 0
 66 380 93 356 141 356 c 0
 176 356 199 377 199 413 c 0
 199 452 180 473 130 473 c 2
 114 473 l 2x7cc0
 102 473 96 482 96 502 c 2
 96 513 l 2
 96 534 102 542 114 542 c 2
 125 542 l 2
 163 542 186 562 186 591 c 0
 186 620 170 639 138 639 c 0
 93 639 79 620 69 620 c 0
 57 620 39 649 39 665 c 0
 39 694 95 708 153 708 c 0x7d40
577 700 m 2x7b40
 591 700 598 696 598 689 c 0
 598 685 596 680 592 674 c 2
 233 26 l 2
 222 7 208 0 188 0 c 2
 171 0 l 2
 157 0 150 3 150 11 c 0
 150 15 152 20 156 26 c 2
 515 674 l 2
 525 692 540 700 560 700 c 2
 577 700 l 2x7b40
611 410 m 2
 636 410 646 403 646 391 c 2
 646 150 l 1
 669 150 l 2
 681 150 686 141 686 121 c 2
 686 111 l 2
 686 91 681 82 669 82 c 2
 646 82 l 1
 646 17 l 2
 646 4 636 -2 611 -2 c 2
 595 -2 l 2
 571 -2 560 4 560 17 c 2xbd40
 560 82 l 1
 407 82 l 2
 397 82 386 120 386 136 c 0
 386 139 386 141 387 143 c 2
 560 399 l 2
 567 408 579 410 596 410 c 2
 611 410 l 2
567 293 m 1
 563 293 l 1
 473 150 l 1
 560 150 l 1
 560 240 l 1
 567 293 l 1
EndSplineSet
Ligature2: "'frac' Diagonal Fractions lookup 13 subtable" three slash four
EndChar

StartChar: oneeighth
Encoding: 8539 8539 137
Width: 746
Flags: MW
HStem: -5 69<546.5 581 546.5 615.5> 0 21G<126 133 133 150> 349 69<554.5 575.5> 680 20G<522 539 539 546> 684 20G<176 180>
VStem: 113 86<312 624 624 624> 422 88<106 141 106 146.5> 438 86<294 322 294 335> 605 85<298.5 321.5> 615 89<105.5 141.5>
LayerCount: 2
Fore
SplineSet
176 704 m 2xac
 184 704 199 697 199 690 c 2
 199 312 l 2
 199 300 188 293 164 293 c 2
 148 293 l 2
 124 293 113 300 113 312 c 2
 113 624 l 1
 34 611 l 2
 19 611 15 645 15 661 c 0
 15 670 20 676 30 678 c 2
 176 704 l 2xac
539 700 m 2x7580
 553 700 560 696 560 689 c 0
 560 685 558 680 554 674 c 2
 195 26 l 2
 184 7 170 0 150 0 c 2
 133 0 l 2
 119 0 112 3 112 11 c 0
 112 15 114 20 118 26 c 2
 477 674 l 2
 487 692 502 700 522 700 c 2
 539 700 l 2x7580
568 418 m 0
 645 418 690 371 690 315 c 0xac80
 690 265 668 243 639 227 c 1
 675 211 704 178 704 113 c 0
 704 59 666 -5 565 -5 c 0
 464 -5 422 53 422 119 c 0xae40
 422 174 449 209 482 221 c 1
 456 238 438 263 438 306 c 0
 438 364 480 418 568 418 c 0
565 349 m 0
 544 349 524 335 524 309 c 0
 524 279 545 266 573 255 c 1
 594 269 605 288 605 309 c 0
 605 334 586 349 565 349 c 0
542 192 m 1xae40
 522 178 510 158 510 124 c 0
 510 88 529 64 564 64 c 0
 598 64 615 93 615 118 c 0
 615 165 581 178 542 192 c 1xae40
EndSplineSet
Ligature2: "'frac' Diagonal Fractions lookup 13 subtable" one slash eight
EndChar

StartChar: uni00B9
Encoding: 185 185 138
Width: 217
Flags: MW
HStem: 684 20G<176 180>
VStem: 113 86<312 624 624 624>
LayerCount: 2
Fore
SplineSet
176 704 m 2
 184 704 199 697 199 690 c 2
 199 312 l 2
 199 300 188 293 164 293 c 2
 148 293 l 2
 124 293 113 300 113 312 c 2
 113 624 l 1
 34 611 l 2
 19 611 15 645 15 661 c 0
 15 670 20 676 30 678 c 2
 176 704 l 2
EndSplineSet
EndChar

StartChar: uni00B2
Encoding: 178 178 139
Width: 320
Flags: MW
HStem: 292 68<131 265 131 265> 637 69<121 149>
VStem: 188 88<579 606>
LayerCount: 2
Fore
SplineSet
149 706 m 0
 230 706 276 658 276 592 c 0
 276 554 261 522 240 496 c 2
 131 360 l 1
 265 360 l 2
 278 360 283 352 283 332 c 2
 283 322 l 2
 283 301 278 292 265 292 c 2
 33 292 l 2
 24 292 16 327 16 344 c 0
 16 348 17 351 18 353 c 2
 166 533 l 2
 179 549 188 568 188 590 c 0
 188 622 164 637 134 637 c 0
 96 637 74 613 66 613 c 0
 48 613 32 637 32 653 c 0
 32 687 93 706 149 706 c 0
EndSplineSet
EndChar

StartChar: uni00B3
Encoding: 179 179 140
Width: 320
Flags: MW
HStem: 287 69<126 152.5 111 187.5> 473 69<102 119 108 119 119 124> 639 69<118 148>
VStem: 180 88<585 605.5> 193 88<395 432.5>
LayerCount: 2
Fore
SplineSet
147 708 m 0xf0
 221 708 268 668 268 605 c 0xf0
 268 565 247 535 213 520 c 1
 213 516 l 1
 259 498 281 460 281 412 c 0
 281 334 227 287 148 287 c 0
 104 287 21 299 21 336 c 0
 21 347 36 380 50 380 c 0
 60 380 87 356 135 356 c 0
 170 356 193 377 193 413 c 0
 193 452 174 473 124 473 c 2
 108 473 l 2xe8
 96 473 90 482 90 502 c 2
 90 513 l 2
 90 534 96 542 108 542 c 2
 119 542 l 2
 157 542 180 562 180 591 c 0
 180 620 164 639 132 639 c 0
 87 639 73 620 63 620 c 0
 51 620 33 649 33 665 c 0
 33 694 89 708 147 708 c 0xf0
EndSplineSet
EndChar

StartChar: asterisk
Encoding: 42 42 141
Width: 373
Flags: MW
HStem: 688 20G<171.5 192.5>
VStem: 152 60<596 678 596 688.5>
LayerCount: 2
Fore
SplineSet
182 708 m 0
 203 708 212 699 212 678 c 2
 212 596 l 1
 287 621 l 2
 292 622 296 623 300 623 c 0
 313 623 329 610 329 586 c 0
 329 574 322 568 307 563 c 2
 231 539 l 1
 288 460 l 2
 294 453 296 446 296 440 c 0
 296 428 276 411 263 411 c 0
 255 411 247 416 240 426 c 2
 181 509 l 1
 122 426 l 2
 114 415 106 411 99 411 c 0
 85 411 65 428 65 440 c 0
 65 446 68 453 74 460 c 2
 130 539 l 1
 55 563 l 2
 40 568 33 575 33 586 c 0
 33 600 40 623 61 623 c 0
 65 623 70 622 75 621 c 2
 152 596 l 1
 152 678 l 2
 152 699 161 708 182 708 c 0
EndSplineSet
EndChar

StartChar: backslash
Encoding: 92 92 142
Width: 361
Flags: MW
HStem: 682 20G<45 68 68 83.5>
VStem: 2 360
LayerCount: 2
Fore
SplineSet
68 702 m 2
 99 702 121 694 128 672 c 2
 359 8 l 2
 361 3 362 -2 362 -6 c 0
 362 -16 348 -22 319 -22 c 2
 295 -22 l 2
 264 -22 242 -13 235 8 c 2
 5 672 l 2
 3 677 2 681 2 685 c 0
 2 695 15 702 45 702 c 2
 68 702 l 2
EndSplineSet
EndChar

StartChar: periodcentered
Encoding: 183 183 143
Width: 267
Flags: MW
HStem: 289 140<121.5 160.5>
VStem: 71 140<339.5 378.5>
LayerCount: 2
Fore
SplineSet
141 429 m 0
 180 429 211 398 211 359 c 0
 211 320 180 289 141 289 c 0
 102 289 71 320 71 359 c 0
 71 398 102 429 141 429 c 0
EndSplineSet
EndChar

StartChar: bullet
Encoding: 8226 8226 144
Width: 336
Flags: MW
HStem: 194 265<131.5 204.5>
VStem: 36 265<289.5 362.5>
LayerCount: 2
Fore
SplineSet
168 459 m 0
 241 459 301 399 301 326 c 0
 301 253 241 194 168 194 c 0
 95 194 36 253 36 326 c 0
 36 399 95 459 168 459 c 0
EndSplineSet
EndChar

StartChar: colon
Encoding: 58 58 145
Width: 198
Flags: MW
HStem: -2 156<61 114 82 114> 369 156<61 114 82 114>
VStem: 22 152<30 122 19.5 132.5 401 493>
LayerCount: 2
Fore
SplineSet
114 525 m 2
 156 525 174 514 174 493 c 2
 174 401 l 2
 174 380 156 369 114 369 c 2
 82 369 l 2
 40 369 22 380 22 401 c 2
 22 493 l 2
 22 514 40 525 82 525 c 2
 114 525 l 2
114 154 m 2
 156 154 174 143 174 122 c 2
 174 30 l 2
 174 9 156 -2 114 -2 c 2
 82 -2 l 2
 40 -2 22 9 22 30 c 2
 22 122 l 2
 22 143 40 154 82 154 c 2
 114 154 l 2
EndSplineSet
EndChar

StartChar: comma
Encoding: 44 44 146
Width: 198
Flags: MW
HStem: -125 279<27 114>
VStem: 35 139<61 122.5 54 123.5>
LayerCount: 2
Fore
SplineSet
114 154 m 2
 156 154 174 135 174 110 c 0
 174 -2 80 -125 36 -125 c 0
 18 -125 -9 -119 -9 -103 c 0
 -9 -94 -5 -83 0 -70 c 0
 13 -38 35 12 35 110 c 0
 35 137 53 154 95 154 c 2
 114 154 l 2
EndSplineSet
EndChar

StartChar: ellipsis
Encoding: 8230 8230 147
Width: 617
Flags: MW
HStem: -2 156<63 116 84 116 294 326 504 536>
VStem: 24 152<30 122 19.5 132.5> 234 152<30 122 19.5 132.5> 444 152<30 122 19.5 132.5>
LayerCount: 2
Fore
SplineSet
116 154 m 2
 158 154 176 143 176 122 c 2
 176 30 l 2
 176 9 158 -2 116 -2 c 2
 84 -2 l 2
 42 -2 24 9 24 30 c 2
 24 122 l 2
 24 143 42 154 84 154 c 2
 116 154 l 2
326 154 m 2
 368 154 386 143 386 122 c 2
 386 30 l 2
 386 9 368 -2 326 -2 c 2
 294 -2 l 2
 252 -2 234 9 234 30 c 2
 234 122 l 2
 234 143 252 154 294 154 c 2
 326 154 l 2
536 154 m 2
 578 154 596 143 596 122 c 2
 596 30 l 2
 596 9 578 -2 536 -2 c 2
 504 -2 l 2
 462 -2 444 9 444 30 c 2
 444 122 l 2
 444 143 462 154 504 154 c 2
 536 154 l 2
EndSplineSet
EndChar

StartChar: exclam
Encoding: 33 33 148
Width: 294
Flags: MW
HStem: -2 156<113 166 134 166> 682 20G<154 197 197 216.5>
VStem: 74 152<30 122 19.5 132.5> 94 113<254 254>
LayerCount: 2
Fore
SplineSet
197 702 m 2xd0
 236 702 257 692 257 674 c 0
 240 534 224 394 207 254 c 0xd0
 204 233 197 222 156 222 c 2
 145 222 l 2
 104 222 94 233 94 254 c 2
 94 670 l 2
 94 691 112 702 154 702 c 2xe0
 197 702 l 2xd0
166 154 m 2xe0
 208 154 226 143 226 122 c 2
 226 30 l 2
 226 9 208 -2 166 -2 c 2
 134 -2 l 2
 92 -2 74 9 74 30 c 2
 74 122 l 2
 74 143 92 154 134 154 c 2
 166 154 l 2xe0
EndSplineSet
EndChar

StartChar: numbersign
Encoding: 35 35 149
Width: 534
Flags: MW
HStem: -2 21G<81 97 97 110 288 304 304 317> 183 110<27.5 101 38 81 214 288 38 194 421 463> 403 110<63.5 142 74 122 74 235 255 329 462 495>
VStem: 8 517<233 453 243 453>
LayerCount: 2
Fore
SplineSet
444 686 m 2
 475 686 489 678 489 664 c 2
 462 513 l 1
 495 513 l 2
 516 513 525 498 525 463 c 2
 525 453 l 2
 525 418 516 403 495 403 c 2
 442 403 l 1
 421 293 l 1
 463 293 l 2
 484 293 493 278 493 243 c 2
 493 233 l 2
 493 198 484 183 463 183 c 2
 401 183 l 1
 372 29 l 2
 368 8 350 -2 317 -2 c 2
 304 -2 l 2
 272 -2 258 4 258 21 c 0
 258 27 262 42 288 183 c 1
 194 183 l 1
 165 29 l 2
 161 8 143 -2 110 -2 c 2
 97 -2 l 2
 65 -2 51 4 51 21 c 0
 51 27 55 42 81 183 c 1
 38 183 l 2
 17 183 8 198 8 233 c 2
 8 243 l 2
 8 278 17 293 38 293 c 2
 101 293 l 1
 122 403 l 1
 74 403 l 2
 53 403 44 418 44 453 c 2
 44 463 l 2
 44 498 53 513 74 513 c 2
 142 513 l 1
 168 655 l 2
 172 676 191 686 224 686 c 2
 237 686 l 2
 268 686 282 678 282 664 c 2
 255 513 l 1
 349 513 l 1
 375 655 l 2
 379 676 398 686 431 686 c 2
 444 686 l 2
329 403 m 1
 235 403 l 1
 214 293 l 1
 308 293 l 1
 329 403 l 1
EndSplineSet
EndChar

StartChar: period
Encoding: 46 46 150
Width: 198
Flags: MW
HStem: -2 156<61 114 82 114>
VStem: 22 152<30 122 19.5 132.5>
LayerCount: 2
Fore
SplineSet
114 154 m 2
 156 154 174 143 174 122 c 2
 174 30 l 2
 174 9 156 -2 114 -2 c 2
 82 -2 l 2
 40 -2 22 9 22 30 c 2
 22 122 l 2
 22 143 40 154 82 154 c 2
 114 154 l 2
EndSplineSet
EndChar

StartChar: question
Encoding: 63 63 151
Width: 445
Flags: MW
HStem: -2 156<149 202 170 202> 576 132<181 232.5>
VStem: 110 152<30 122 19.5 132.5> 281 156<503.5 537.5>
LayerCount: 2
Fore
SplineSet
220 708 m 0
 354 708 437 640 437 530 c 0
 437 377 269 345 251 249 c 0
 245 228 231 222 198 222 c 2
 175 222 l 2
 140 222 126 230 126 251 c 0
 126 309 159 357 194 399 c 0
 236 448 281 487 281 520 c 0
 281 555 258 576 207 576 c 0
 149 576 109 545 95 545 c 0
 67 545 32 606 32 627 c 0
 32 686 142 708 220 708 c 0
202 154 m 2xe0
 244 154 262 143 262 122 c 2
 262 30 l 2
 262 9 244 -2 202 -2 c 2
 170 -2 l 2
 128 -2 110 9 110 30 c 2
 110 122 l 2
 110 143 128 154 170 154 c 2
 202 154 l 2xe0
EndSplineSet
EndChar

StartChar: quotedbl
Encoding: 34 34 152
Width: 319
Flags: MW
HStem: 464 238<64.5 89 79 89 89 93 79 226 230 240 240 244> 682 20G<79 89 89 110 230 240 240 261>
VStem: 19 130<666 670 670 680.5> 170 130<666 670 670 680.5>
LayerCount: 2
Fore
SplineSet
89 702 m 2x60
 131 702 149 691 149 670 c 0
 149 662 134 553 127 494 c 0
 124 473 114 464 93 464 c 2
 75 464 l 2
 54 464 44 473 41 494 c 2xa0
 19 665 l 1
 19 670 l 2
 19 691 37 702 79 702 c 2
 89 702 l 2x60
240 702 m 2x50
 282 702 300 691 300 670 c 0
 300 662 285 553 278 494 c 0
 275 473 265 464 244 464 c 2
 226 464 l 2
 205 464 195 473 192 494 c 2x90
 170 665 l 1
 170 670 l 2
 170 691 188 702 230 702 c 2
 240 702 l 2x50
EndSplineSet
EndChar

StartChar: quotesingle
Encoding: 39 39 153
Width: 183
Flags: MW
HStem: 682 20G<90 100 100 121>
VStem: 30 130<666 670 670 680.5>
LayerCount: 2
Fore
SplineSet
100 702 m 2
 142 702 160 691 160 670 c 0
 160 662 145 553 138 494 c 0
 135 473 125 464 104 464 c 2
 86 464 l 2
 65 464 55 473 52 494 c 2
 30 665 l 1
 30 670 l 2
 30 691 48 702 90 702 c 2
 100 702 l 2
EndSplineSet
EndChar

StartChar: semicolon
Encoding: 59 59 154
Width: 198
Flags: MW
HStem: 369 156<61 114 82 114>
VStem: 22 152<401 493> 35 139<61 122.5 54 123.5>
LayerCount: 2
Fore
SplineSet
114 525 m 2xc0
 156 525 174 514 174 493 c 2
 174 401 l 2
 174 380 156 369 114 369 c 2
 82 369 l 2
 40 369 22 380 22 401 c 2
 22 493 l 2
 22 514 40 525 82 525 c 2
 114 525 l 2xc0
114 154 m 2xa0
 156 154 174 135 174 110 c 0
 174 -2 80 -125 36 -125 c 0
 18 -125 -9 -119 -9 -103 c 0
 -9 -94 -5 -83 0 -70 c 0
 13 -38 35 12 35 110 c 0
 35 137 53 154 95 154 c 2
 114 154 l 2xa0
EndSplineSet
EndChar

StartChar: slash
Encoding: 47 47 155
Width: 370
Flags: MW
HStem: 682 20G<326 350 350 364.5>
VStem: -30 422
LayerCount: 2
Fore
SplineSet
350 702 m 2
 379 702 392 696 392 686 c 0
 392 682 391 678 389 672 c 2
 98 -49 l 2
 89 -71 68 -79 37 -79 c 2
 13 -79 l 2
 -16 -79 -30 -73 -30 -63 c 0
 -30 -60 -28 -55 -26 -49 c 2
 265 672 l 2
 274 694 295 702 326 702 c 2
 350 702 l 2
EndSplineSet
EndChar

StartChar: underscore
Encoding: 95 95 156
Width: 534
Flags: MW
HStem: -143 107<-0.5 525 10 525>
VStem: -20 575<-93 -86 -110.5 -68.5>
LayerCount: 2
Fore
SplineSet
525 -36 m 2
 546 -36 555 -51 555 -86 c 2
 555 -93 l 2
 555 -128 546 -143 525 -143 c 2
 10 -143 l 2
 -11 -143 -20 -128 -20 -93 c 2
 -20 -86 l 2
 -20 -51 -11 -36 10 -36 c 2
 525 -36 l 2
EndSplineSet
EndChar

StartChar: braceleft
Encoding: 123 123 157
Width: 274
Flags: MW
HStem: -138 94<164 234 193 234> 674 94<227.5 232 232 238 236 238>
VStem: 94 115<-20 -8 -8 146 146 162 484 638>
LayerCount: 2
Fore
SplineSet
232 768 m 2
 253 768 262 756 262 728 c 2
 262 714 l 2
 262 688 254 675 236 674 c 1
 238 674 l 1
 217 674 209 664 209 638 c 2
 209 468 l 2
 209 394 185 340 141 315 c 1
 185 290 209 236 209 162 c 2
 209 -8 l 2
 209 -32 216 -44 233 -44 c 2
 234 -44 l 2
 253 -45 262 -57 262 -84 c 2
 262 -98 l 2
 262 -126 253 -138 232 -138 c 2
 193 -138 l 2
 135 -138 94 -90 94 -22 c 2
 94 146 l 2
 94 211 82 244 47 259 c 0
 28 270 18 283 18 309 c 2
 18 321 l 2
 18 347 28 360 47 371 c 0
 82 386 94 419 94 484 c 2
 94 652 l 2
 94 720 135 768 193 768 c 2
 232 768 l 2
EndSplineSet
EndChar

StartChar: braceright
Encoding: 125 125 158
Width: 274
Flags: MW
HStem: -138 94<47 48 48 49 49 56.5 47 88> 674 94<35 88 44 88>
VStem: 72 115<-8 146 468 484 484 638 638 651>
LayerCount: 2
Fore
SplineSet
88 768 m 2
 146 768 187 720 187 652 c 2
 187 484 l 2
 187 419 199 386 234 371 c 0
 253 360 263 347 263 321 c 2
 263 309 l 2
 263 283 253 270 234 259 c 0
 199 244 187 211 187 146 c 2
 187 -22 l 2
 187 -90 146 -138 88 -138 c 2
 49 -138 l 2
 28 -138 19 -126 19 -98 c 2
 19 -84 l 2
 19 -56 27 -44 47 -44 c 2
 48 -44 l 2
 65 -44 72 -31 72 -8 c 2
 72 162 l 2
 72 236 96 290 140 315 c 1
 96 340 72 394 72 468 c 2
 72 638 l 2
 72 664 66 674 45 674 c 2
 44 674 l 2
 26 674 19 688 19 714 c 2
 19 728 l 2
 19 756 28 768 49 768 c 2
 88 768 l 2
EndSplineSet
EndChar

StartChar: bracketleft
Encoding: 91 91 159
Width: 291
Flags: MW
HStem: -138 95<91 231 180 231 180 231> 673 95<180 231 180 180>
VStem: 65 115<-43 673 -43 728 -43 742>
LayerCount: 2
Fore
SplineSet
231 768 m 2
 252 768 261 756 261 728 c 2
 261 713 l 2
 261 685 252 673 231 673 c 2
 180 673 l 1
 180 -43 l 1
 231 -43 l 2
 252 -43 261 -55 261 -83 c 2
 261 -98 l 2
 261 -126 252 -138 231 -138 c 2
 105 -138 l 2
 77 -138 65 -126 65 -98 c 2
 65 728 l 2
 65 756 77 768 105 768 c 2
 231 768 l 2
EndSplineSet
EndChar

StartChar: bracketright
Encoding: 93 93 160
Width: 291
Flags: MW
HStem: -138 95<50.5 112 61 112 61 187> 673 95<50.5 187 61 112>
VStem: 112 115<-43 673 673 673>
LayerCount: 2
Fore
SplineSet
187 768 m 2
 215 768 227 756 227 728 c 2
 227 -98 l 2
 227 -126 215 -138 187 -138 c 2
 61 -138 l 2
 40 -138 31 -126 31 -98 c 2
 31 -83 l 2
 31 -55 40 -43 61 -43 c 2
 112 -43 l 1
 112 673 l 1
 61 673 l 2
 40 673 31 685 31 713 c 2
 31 728 l 2
 31 756 40 768 61 768 c 2
 187 768 l 2
EndSplineSet
EndChar

StartChar: parenleft
Encoding: 40 40 161
Width: 301
Flags: MW
HStem: -208 991<223 238>
VStem: 51 117<212.5 362 212.5 374>
LayerCount: 2
Fore
SplineSet
228 783 m 0
 248 783 285 760 285 737 c 0
 285 731 284 724 280 717 c 0
 199 565 168 437 168 287 c 0
 168 138 199 10 280 -142 c 0
 284 -149 285 -156 285 -162 c 0
 285 -185 248 -208 228 -208 c 0
 218 -208 209 -203 201 -192 c 0
 104 -53 51 113 51 287 c 0
 51 461 104 628 201 767 c 0
 209 778 218 783 228 783 c 0
EndSplineSet
EndChar

StartChar: parenright
Encoding: 41 41 162
Width: 301
Flags: MW
HStem: -208 991<60 75>
VStem: 130 117<212.5 362>
LayerCount: 2
Fore
SplineSet
70 783 m 0
 80 783 89 778 97 767 c 0
 194 628 247 461 247 287 c 0
 247 113 194 -53 97 -192 c 0
 89 -203 80 -208 70 -208 c 0
 50 -208 13 -185 13 -162 c 0
 13 -156 14 -149 18 -142 c 0
 99 10 130 138 130 287 c 0
 130 437 99 565 18 717 c 0
 14 724 13 731 13 737 c 0
 13 760 50 783 70 783 c 0
EndSplineSet
EndChar

StartChar: emdash
Encoding: 8212 8212 163
Width: 1000
Flags: MW
HStem: 212 107<19.5 970 30 970>
VStem: 0 1000<262 269 244.5 286.5>
LayerCount: 2
Fore
SplineSet
970 319 m 2
 991 319 1000 304 1000 269 c 2
 1000 262 l 2
 1000 227 991 212 970 212 c 2
 30 212 l 2
 9 212 0 227 0 262 c 2
 0 269 l 2
 0 304 9 319 30 319 c 2
 970 319 l 2
EndSplineSet
EndChar

StartChar: endash
Encoding: 8211 8211 164
Width: 500
Flags: MW
HStem: 212 107<19.5 470 30 470>
VStem: 0 500<262 269 244.5 286.5>
LayerCount: 2
Fore
SplineSet
470 319 m 2
 491 319 500 304 500 269 c 2
 500 262 l 2
 500 227 491 212 470 212 c 2
 30 212 l 2
 9 212 0 227 0 262 c 2
 0 269 l 2
 0 304 9 319 30 319 c 2
 470 319 l 2
EndSplineSet
EndChar

StartChar: hyphen
Encoding: 45 45 165
Width: 320
Flags: MW
HStem: 212 107<47.5 262 58 262>
VStem: 28 264<262 269 244.5 286.5>
LayerCount: 2
Fore
SplineSet
262 319 m 2
 283 319 292 304 292 269 c 2
 292 262 l 2
 292 227 283 212 262 212 c 2
 58 212 l 2
 37 212 28 227 28 262 c 2
 28 269 l 2
 28 304 37 319 58 319 c 2
 262 319 l 2
EndSplineSet
EndChar

StartChar: uni00AD
Encoding: 173 173 166
Width: 320
Flags: MW
HStem: 212 107<49.5 255 60 255>
VStem: 30 255<262 269 244.5 286.5>
LayerCount: 2
Fore
SplineSet
255 319 m 2
 276 319 285 304 285 269 c 2
 285 262 l 2
 285 227 276 212 255 212 c 2
 60 212 l 2
 39 212 30 227 30 262 c 2
 30 269 l 2
 30 304 39 319 60 319 c 2
 255 319 l 2
EndSplineSet
EndChar

StartChar: guillemotleft
Encoding: 171 171 167
Width: 471
Flags: MW
HStem: 46 423<192.5 206.5 192 208 391.5 405.5 192 407>
VStem: 27 428<85 267>
LayerCount: 2
Fore
SplineSet
197 469 m 0
 216 469 256 443 256 420 c 0
 256 413 253 406 247 398 c 2
 137 258 l 1
 247 118 l 2
 253 110 256 103 256 95 c 0
 256 75 219 46 197 46 c 0
 188 46 179 51 170 61 c 2
 43 214 l 2
 31 228 27 240 27 258 c 0
 27 276 31 288 43 302 c 2
 170 455 l 2
 179 465 187 469 197 469 c 0
396 469 m 0
 415 469 455 443 455 420 c 0
 455 413 452 406 446 398 c 2
 336 258 l 1
 446 118 l 2
 452 110 455 103 455 95 c 0
 455 75 418 46 396 46 c 0
 387 46 378 51 369 61 c 2
 242 214 l 2
 230 228 226 240 226 258 c 0
 226 276 230 288 242 302 c 2
 369 455 l 2
 378 465 386 469 396 469 c 0
EndSplineSet
EndChar

StartChar: guillemotright
Encoding: 187 187 168
Width: 471
Flags: MW
HStem: 46 423<91.5 105.5 290.5 304.5>
VStem: 42 428<85 267 249 431.5>
LayerCount: 2
Fore
SplineSet
101 469 m 0
 111 469 119 465 128 455 c 2
 255 302 l 2
 267 288 271 276 271 258 c 0
 271 240 267 228 255 214 c 2
 128 61 l 2
 119 51 110 46 101 46 c 0
 79 46 42 75 42 95 c 0
 42 103 45 110 51 118 c 2
 161 258 l 1
 51 398 l 2
 45 406 42 413 42 420 c 0
 42 443 82 469 101 469 c 0
300 469 m 0
 310 469 318 465 327 455 c 2
 454 302 l 2
 466 288 470 276 470 258 c 0
 470 240 466 228 454 214 c 2
 327 61 l 2
 318 51 309 46 300 46 c 0
 278 46 241 75 241 95 c 0
 241 103 244 110 250 118 c 2
 360 258 l 1
 250 398 l 2
 244 406 241 413 241 420 c 0
 241 443 281 469 300 469 c 0
EndSplineSet
EndChar

StartChar: guilsinglleft
Encoding: 8249 8249 169
Width: 300
Flags: MW
HStem: 46 423<192.5 206.5 192 208>
VStem: 27 229<85 267>
LayerCount: 2
Fore
SplineSet
197 469 m 0
 216 469 256 443 256 420 c 0
 256 413 253 406 247 398 c 2
 137 258 l 1
 247 118 l 2
 253 110 256 103 256 95 c 0
 256 75 219 46 197 46 c 0
 188 46 179 51 170 61 c 2
 43 214 l 2
 31 228 27 240 27 258 c 0
 27 276 31 288 43 302 c 2
 170 455 l 2
 179 465 187 469 197 469 c 0
EndSplineSet
EndChar

StartChar: guilsinglright
Encoding: 8250 8250 170
Width: 300
Flags: MW
HStem: 46 423<89.5 103.5>
VStem: 40 229<85 267 249 431.5>
LayerCount: 2
Fore
SplineSet
99 469 m 0
 109 469 117 465 126 455 c 2
 253 302 l 2
 265 288 269 276 269 258 c 0
 269 240 265 228 253 214 c 2
 126 61 l 2
 117 51 108 46 99 46 c 0
 77 46 40 75 40 95 c 0
 40 103 43 110 49 118 c 2
 159 258 l 1
 49 398 l 2
 43 406 40 413 40 420 c 0
 40 443 80 469 99 469 c 0
EndSplineSet
EndChar

StartChar: quotedblbase
Encoding: 8222 8222 171
Width: 336
Flags: MW
HStem: -125 279<29 116 97 237>
VStem: 37 139<61 122.5 54 123.5> 214 139<61 122.5 54 123.5>
LayerCount: 2
Fore
SplineSet
116 154 m 2
 158 154 176 135 176 110 c 0
 176 -2 82 -125 38 -125 c 0
 20 -125 -7 -119 -7 -103 c 0
 -7 -94 -3 -83 2 -70 c 0
 15 -38 37 12 37 110 c 0
 37 137 55 154 97 154 c 2
 116 154 l 2
293 154 m 2
 335 154 353 135 353 110 c 0
 353 -2 259 -125 215 -125 c 0
 197 -125 170 -119 170 -103 c 0
 170 -94 174 -83 179 -70 c 0
 192 -38 214 12 214 110 c 0
 214 137 232 154 274 154 c 2
 293 154 l 2
EndSplineSet
EndChar

StartChar: quotedblleft
Encoding: 8220 8220 172
Width: 350
Flags: MW
HStem: 737 20G<107 138 284 315>
VStem: -9 139<509.5 574.5 508.5 578> 168 139<509.5 574.5 508.5 578>
LayerCount: 2
Fore
SplineSet
129 757 m 0
 147 757 174 751 174 735 c 0
 174 727 172 719 168 709 c 0
 156 677 130 627 130 522 c 0
 130 495 112 478 70 478 c 2
 51 478 l 2
 9 478 -9 497 -9 522 c 0
 -9 634 85 757 129 757 c 0
306 757 m 0
 324 757 351 751 351 735 c 0
 351 727 349 719 345 709 c 0
 333 677 307 627 307 522 c 0
 307 495 289 478 247 478 c 2
 228 478 l 2
 186 478 168 497 168 522 c 0
 168 634 262 757 306 757 c 0
EndSplineSet
EndChar

StartChar: quotedblright
Encoding: 8221 8221 173
Width: 350
Flags: MW
HStem: 737 20G<104 123 123 144 282 301 301 322>
VStem: 44 139<662 725.5 657 726.5> 222 139<662 725.5 657 726.5>
LayerCount: 2
Fore
SplineSet
123 757 m 2
 165 757 183 738 183 713 c 0
 183 601 89 478 45 478 c 0
 27 478 0 484 0 500 c 0
 0 508 3 517 7 529 c 0
 20 561 44 611 44 713 c 0
 44 740 62 757 104 757 c 2
 123 757 l 2
301 757 m 2
 343 757 361 738 361 713 c 0
 361 601 267 478 223 478 c 0
 205 478 178 484 178 500 c 0
 178 508 181 517 185 529 c 0
 198 561 222 611 222 713 c 0
 222 740 240 757 282 757 c 2
 301 757 l 2
EndSplineSet
EndChar

StartChar: quoteleft
Encoding: 8216 8216 174
Width: 212
Flags: MW
HStem: 737 20G<127 158>
VStem: 11 139<509.5 574.5 508.5 578>
LayerCount: 2
Fore
SplineSet
149 757 m 0
 167 757 194 751 194 735 c 0
 194 727 192 719 188 709 c 0
 176 677 150 627 150 522 c 0
 150 495 132 478 90 478 c 2
 71 478 l 2
 29 478 11 497 11 522 c 0
 11 634 105 757 149 757 c 0
EndSplineSet
EndChar

StartChar: quoteright
Encoding: 8217 8217 175
Width: 212
Flags: MW
HStem: 737 20G<123 142 142 163>
VStem: 63 139<662 725.5 657 726.5>
LayerCount: 2
Fore
SplineSet
142 757 m 2
 184 757 202 738 202 713 c 0
 202 601 108 478 64 478 c 0
 46 478 19 484 19 500 c 0
 19 508 22 517 26 529 c 0
 39 561 63 611 63 713 c 0
 63 740 81 757 123 757 c 2
 142 757 l 2
EndSplineSet
EndChar

StartChar: quotesinglbase
Encoding: 8218 8218 176
Width: 198
Flags: MW
HStem: -125 279<48 135>
VStem: 56 139<61 122.5 54 123.5>
LayerCount: 2
Fore
SplineSet
135 154 m 2
 177 154 195 135 195 110 c 0
 195 -2 101 -125 57 -125 c 0
 39 -125 12 -119 12 -103 c 0
 12 -94 16 -83 21 -70 c 0
 34 -38 56 12 56 110 c 0
 56 137 74 154 116 154 c 2
 135 154 l 2
EndSplineSet
EndChar

StartChar: dollar
Encoding: 36 36 183
Width: 496
Flags: MW
HStem: -7 130<193.5 233> 686 20G<233 233> 687 20G<290 290>
VStem: 33 148<502 525.5 502 568.5> 233 57<-51 -7 -7 -7 134 261 450 570 570 570 707 738> 333 147<179.5 210>
LayerCount: 2
Fore
SplineSet
260 768 m 0xdc
 281 768 290 759 290 738 c 2xc8
 290 707 l 1
 385 703 450 669 450 638 c 0xac
 450 611 419 551 395 551 c 0
 382 551 353 574 290 576 c 1
 290 424 l 1
 375 387 480 345 480 214 c 0
 480 66 387 5 290 -6 c 1
 290 -51 l 2
 290 -72 281 -81 263 -81 c 0
 242 -81 233 -72 233 -51 c 2
 233 -7 l 1
 94 -3 19 47 19 80 c 0
 19 111 60 169 81 169 c 0
 99 169 154 123 233 123 c 1
 233 288 l 1
 144 321 33 360 33 503 c 0
 33 634 129 695 233 706 c 1
 233 738 l 2
 233 759 242 768 260 768 c 0xdc
233 570 m 1
 189 559 181 534 181 517 c 0
 181 487 202 467 233 450 c 1
 233 570 l 1
290 261 m 1
 290 134 l 1
 314 144 333 163 333 196 c 0
 333 224 316 246 290 261 c 1
EndSplineSet
EndChar

StartChar: Euro
Encoding: 8364 8364 184
Width: 600
Flags: MW
HStem: -8 131<329 400> 233 75<19.5 59 30 59 30 67 228 465 228 228> 384 75<19.5 66 30 59 225 465> 576 132<328.5 407>
VStem: 59 156<308 308 308 384>
LayerCount: 2
Fore
SplineSet
369 708 m 0
 449 708 558 680 558 638 c 0
 558 610 518 544 493 544 c 0
 483 544 448 576 366 576 c 0
 291 576 245 537 225 459 c 1
 465 459 l 2
 486 459 495 449 495 425 c 2
 495 418 l 2
 495 394 486 384 465 384 c 2
 215 384 l 1
 214 373 214 362 214 351 c 0
 214 336 214 321 215 308 c 1
 465 308 l 2
 486 308 495 298 495 274 c 2
 495 267 l 2
 495 243 486 233 465 233 c 2
 228 233 l 1
 249 160 294 123 364 123 c 0
 447 123 495 163 508 163 c 0
 541 163 567 93 567 76 c 0
 567 16 436 -8 364 -8 c 0
 194 -8 96 68 67 233 c 1
 30 233 l 2
 9 233 0 243 0 267 c 2
 0 274 l 2
 0 298 9 308 30 308 c 2
 59 308 l 1
 58 322 58 337 58 352 c 0
 58 363 58 373 59 384 c 1
 30 384 l 2
 9 384 0 394 0 418 c 2
 0 425 l 2
 0 449 9 459 30 459 c 2
 66 459 l 1
 95 625 197 708 369 708 c 0
EndSplineSet
EndChar

StartChar: asciitilde
Encoding: 126 126 185
Width: 547
Flags: MW
HStem: 217 83<350 355.5 350 379> 246 83<173.5 179>
VStem: 52.13 424.74
LayerCount: 2
Fore
SplineSet
184 329 m 0x60
 224 329 311 302 350 300 c 0
 361 300 375 302 389 316 c 0
 408 335 421 335 438 331 c 2
 451 328 l 2
 479 321 480 301 474 287 c 0
 458 251 413 217 345 217 c 0xa0
 305 217 218 244 179 246 c 0
 168 246 154 244 140 230 c 0
 122 211 109 211 92 215 c 2
 79 218 l 2
 50 225 49 245 55 259 c 0
 71 295 116 329 184 329 c 0x60
EndSplineSet
EndChar

StartChar: uni2219
Encoding: 8729 8729 186
Width: 282
Flags: MW
HStem: 289 140<121.5 160.5>
VStem: 71 140<339.5 378.5>
LayerCount: 2
Fore
SplineSet
141 429 m 0
 180 429 211 398 211 359 c 0
 211 320 180 289 141 289 c 0
 102 289 71 320 71 359 c 0
 71 398 102 429 141 429 c 0
EndSplineSet
EndChar

StartChar: uni2215
Encoding: 8725 8725 187
Width: 276
Flags: MW
HStem: 682 20G<286 310 310 324.5>
VStem: -70 422
LayerCount: 2
Fore
SplineSet
310 702 m 2
 339 702 352 696 352 686 c 0
 352 682 351 678 349 672 c 2
 58 -49 l 2
 49 -71 28 -79 -3 -79 c 2
 -27 -79 l 2
 -56 -79 -70 -73 -70 -63 c 0
 -70 -60 -68 -55 -66 -49 c 2
 225 672 l 2
 234 694 255 702 286 702 c 2
 310 702 l 2
EndSplineSet
EndChar

StartChar: equal
Encoding: 61 61 188
Width: 560
Flags: MW
HStem: 86 107<60.5 489 71 489> 267 107<60.5 489 71 489>
VStem: 41 478<136 143 118.5 160.5 317 324 118.5 341.5>
LayerCount: 2
Fore
SplineSet
489 374 m 2
 510 374 519 359 519 324 c 2
 519 317 l 2
 519 282 510 267 489 267 c 2
 71 267 l 2
 50 267 41 282 41 317 c 2
 41 324 l 2
 41 359 50 374 71 374 c 2
 489 374 l 2
489 193 m 2
 510 193 519 178 519 143 c 2
 519 136 l 2
 519 101 510 86 489 86 c 2
 71 86 l 2
 50 86 41 101 41 136 c 2
 41 143 l 2
 41 178 50 193 71 193 c 2
 489 193 l 2
EndSplineSet
EndChar

StartChar: greater
Encoding: 62 62 189
Width: 560
Flags: MW
HStem: 10 469<49.5 55>
VStem: 38 478<52 236 68 236>
LayerCount: 2
Fore
SplineSet
54 479 m 0
 58 479 63 478 69 476 c 2
 488 297 l 2
 508 288 516 276 516 255 c 2
 516 236 l 2
 516 214 508 202 488 194 c 2
 68 14 l 2
 62 11 57 10 53 10 c 0
 44 10 38 23 38 52 c 2
 38 68 l 2
 38 99 46 120 68 129 c 2
 361 245 l 1
 69 361 l 2
 47 370 39 391 39 422 c 2
 39 438 l 2
 39 467 45 479 54 479 c 0
EndSplineSet
EndChar

StartChar: infinity
Encoding: 8734 8734 190
Width: 788
Flags: MW
HStem: 111 114<214 243 214 243 541 574.5> 337 111<209.5 243.5 546.5 579>
VStem: 47 127<265.5 298.5 265.5 331> 615 127<265.5 298.5>
LayerCount: 2
Fore
SplineSet
569 448 m 0
 669 448 742 380 742 282 c 0
 742 184 669 111 577 111 c 0
 497 111 440 157 392 209 c 1
 322 136 274 111 212 111 c 0
 120 111 47 184 47 282 c 0
 47 380 120 448 220 448 c 0
 295 448 348 403 392 352 c 1
 457 420 510 448 569 448 c 0
225 337 m 0
 194 337 174 315 174 282 c 0
 174 249 198 225 230 225 c 0
 256 225 287 241 325 276 c 1
 293 311 262 337 225 337 c 0
564 337 m 0
 529 337 502 321 466 278 c 1
 494 247 523 225 559 225 c 0
 590 225 615 249 615 282 c 0
 615 315 594 337 564 337 c 0
EndSplineSet
EndChar

StartChar: less
Encoding: 60 60 191
Width: 560
Flags: MW
HStem: 10 469<499 504.5 498 505.5>
VStem: 38 478<37.5 255 37.5 265.5>
LayerCount: 2
Fore
SplineSet
500 479 m 0
 509 479 515 467 515 438 c 2
 515 422 l 2
 515 391 507 370 485 361 c 2
 193 245 l 1
 486 129 l 2
 508 120 516 99 516 68 c 2
 516 52 l 2
 516 23 510 10 501 10 c 0
 497 10 492 11 486 14 c 2
 66 194 l 2
 46 202 38 214 38 236 c 2
 38 255 l 2
 38 276 46 288 66 297 c 2
 485 476 l 2
 491 478 496 479 500 479 c 0
EndSplineSet
EndChar

StartChar: uni00B5
Encoding: 181 181 192
Width: 566
Flags: MW
HStem: -8 122<201 281.5> -1 21G<373 401.5> 505 20G<113 141 141 162 401 429 429 450>
VStem: 53 148<-174 -8 156.5 176 176 493> 341 148<172 176 176 493>
LayerCount: 2
Fore
SplineSet
489 176 m 2x78
 489 73 501 52 501 31 c 0
 501 7 414 -1 389 -1 c 0x78
 357 -1 355 41 349 68 c 1
 320 29 265 -7 201 -8 c 1
 201 -174 l 2
 201 -195 183 -206 141 -206 c 2
 113 -206 l 2
 71 -206 53 -195 53 -174 c 2
 53 493 l 2
 53 514 71 525 113 525 c 2
 141 525 l 2
 183 525 201 514 201 493 c 2
 201 176 l 2
 201 137 217 114 261 114 c 0
 302 114 329 149 341 172 c 1xb8
 341 493 l 2
 341 514 359 525 401 525 c 2
 429 525 l 2
 471 525 489 514 489 493 c 2
 489 176 l 2x78
EndSplineSet
EndChar

StartChar: minus
Encoding: 8722 8722 193
Width: 560
Flags: MW
HStem: 172 107<47.5 502 58 502>
VStem: 28 504<222 229 204.5 246.5>
LayerCount: 2
Fore
SplineSet
502 279 m 2
 523 279 532 264 532 229 c 2
 532 222 l 2
 532 187 523 172 502 172 c 2
 58 172 l 2
 37 172 28 187 28 222 c 2
 28 229 l 2
 28 264 37 279 58 279 c 2
 502 279 l 2
EndSplineSet
EndChar

StartChar: percent
Encoding: 37 37 194
Width: 765
Flags: MW
HStem: -8 82<562.5 601.5 562.5 617> -2 21G<167 174 174 218> 242 86<562.5 601.5> 372 82<175.5 214.5 175.5 230> 622 86<175.5 214.5> 682 20G<559 603 603 610>
VStem: 45 102<520.5 559.5 520.5 609.5> 242 103<520.5 559.5> 432 102<140.5 179.5 140.5 229.5> 629 103<140.5 179.5>
LayerCount: 2
Fore
SplineSet
195 708 m 0xbbc0
 265 708 345 679 345 540 c 0
 345 401 265 372 195 372 c 0
 125 372 45 401 45 540 c 0
 45 679 125 708 195 708 c 0xbbc0
603 702 m 2x77c0
 617 702 624 696 624 688 c 0
 624 685 622 680 619 674 c 2
 262 26 l 2
 252 8 239 -2 218 -2 c 2
 174 -2 l 2
 160 -2 153 4 153 11 c 0
 153 15 155 20 158 26 c 2
 515 674 l 2
 525 692 538 702 559 702 c 2
 603 702 l 2x77c0
195 622 m 0xbbc0
 156 622 147 579 147 540 c 0
 147 501 156 454 195 454 c 0
 234 454 242 501 242 540 c 0
 242 579 234 622 195 622 c 0xbbc0
582 328 m 0
 652 328 732 299 732 160 c 0
 732 21 652 -8 582 -8 c 0
 512 -8 432 21 432 160 c 0
 432 299 512 328 582 328 c 0
582 242 m 0
 543 242 534 199 534 160 c 0
 534 121 543 74 582 74 c 0
 621 74 629 121 629 160 c 0
 629 199 621 242 582 242 c 0
EndSplineSet
EndChar

StartChar: plus
Encoding: 43 43 195
Width: 560
Flags: MW
HStem: 0 21G<254.5 272 272 286> 182 107<60.5 222 71 222 336 489>
VStem: 222 114<30 182 289 443>
LayerCount: 2
Fore
SplineSet
286 473 m 2
 321 473 336 464 336 443 c 2
 336 289 l 1
 489 289 l 2
 510 289 519 274 519 239 c 2
 519 232 l 2
 519 197 510 182 489 182 c 2
 336 182 l 1
 336 30 l 2
 336 9 321 0 286 0 c 2
 272 0 l 2
 237 0 222 9 222 30 c 2
 222 182 l 1
 71 182 l 2
 50 182 41 197 41 232 c 2
 41 239 l 2
 41 274 50 289 71 289 c 2
 222 289 l 1
 222 443 l 2
 222 464 237 473 272 473 c 2
 286 473 l 2
EndSplineSet
EndChar

StartChar: plusminus
Encoding: 177 177 196
Width: 560
Flags: MW
HStem: 0 107<60.5 489 71 489> 312 107<60.5 222 71 222 336 489>
VStem: 222 114<160 312 419 573>
LayerCount: 2
Fore
SplineSet
286 603 m 2
 321 603 336 594 336 573 c 2
 336 419 l 1
 489 419 l 2
 510 419 519 404 519 369 c 2
 519 362 l 2
 519 327 510 312 489 312 c 2
 336 312 l 1
 336 160 l 2
 336 139 321 130 286 130 c 2
 272 130 l 2
 237 130 222 139 222 160 c 2
 222 312 l 1
 71 312 l 2
 50 312 41 327 41 362 c 2
 41 369 l 2
 41 404 50 419 71 419 c 2
 222 419 l 1
 222 573 l 2
 222 594 237 603 272 603 c 2
 286 603 l 2
489 107 m 2
 510 107 519 92 519 57 c 2
 519 50 l 2
 519 15 510 0 489 0 c 2
 71 0 l 2
 50 0 41 15 41 50 c 2
 41 57 l 2
 41 92 50 107 71 107 c 2
 489 107 l 2
EndSplineSet
EndChar

StartChar: bar
Encoding: 124 124 197
Width: 250
Flags: MW
HStem: -138 906<100.5 133 118 133>
VStem: 68 115<-108 738>
LayerCount: 2
Fore
SplineSet
133 768 m 2
 168 768 183 759 183 738 c 2
 183 -108 l 2
 183 -129 168 -138 133 -138 c 2
 118 -138 l 2
 83 -138 68 -129 68 -108 c 2
 68 738 l 2
 68 759 83 768 118 768 c 2
 133 768 l 2
EndSplineSet
EndChar

StartChar: at
Encoding: 64 64 198
Width: 974
Flags: MW
HStem: -123 54<332 435.5> 58 83<662 699.5> 58 101<366.5 467.5> 410 98<458 481 402.5 497.5> 654 54<426 614.5>
VStem: 84 64<148 356 148 371.5> 272 125<218 300.5 218 319.5> 519 120 803 64<317.5 464.5>
LayerCount: 2
Fore
SplineSet
534 708 m 0xdf80
 735 708 867 579 867 383 c 0
 867 202 765 58 634 58 c 0xdf80
 571 58 532 90 520 123 c 1
 498 85 457 58 407 58 c 0xbf80
 326 58 272 121 272 239 c 0
 272 400 348 508 457 508 c 0
 505 508 542 480 559 463 c 1
 566 491 574 503 611 503 c 2
 623 503 l 2
 657 503 670 493 670 477 c 0
 670 472 639 195 639 177 c 0
 639 153 650 141 674 141 c 0
 744 141 803 252 803 383 c 0
 803 546 695 654 534 654 c 0
 318 654 148 472 148 240 c 0
 148 56 254 -69 410 -69 c 0
 507 -69 540 -40 564 -40 c 0
 573 -40 578 -50 578 -73 c 0
 578 -112 461 -123 410 -123 c 0
 216 -123 84 24 84 240 c 0
 84 503 281 708 534 708 c 0xdf80
519 207 m 1xbf80
 523 267 527 327 540 387 c 1
 526 400 509 410 486 410 c 0
 430 410 397 354 397 247 c 0
 397 189 416 159 454 159 c 0
 481 159 502 181 519 207 c 1xbf80
EndSplineSet
EndChar

StartChar: ampersand
Encoding: 38 38 199
Width: 624
Flags: MW
HStem: -8 117<242.5 288.5> 309 117<248 393 299 393 299 393 541 590> 591 117<250 274 188.5 288.5>
VStem: 23 150<175 239 175 245> 46 150<498.5 533.5 484 586.5> 393 148<137 152 152 309>
LayerCount: 2
Fore
SplineSet
604 113 m 0xf4
 624 113 635 49 635 41 c 0
 635 -5 570 -8 539 -8 c 0
 491 -8 455 5 430 32 c 1
 374 4 328 -8 249 -8 c 0
 116 -8 23 71 23 204 c 0xf4
 23 286 60 353 139 383 c 1
 139 387 l 1
 82 411 46 464 46 533 c 0
 46 640 126 708 251 708 c 0
 297 708 361 705 361 666 c 0
 361 618 343 584 326 584 c 0
 321 584 300 591 277 591 c 0
 223 591 196 558 196 509 c 0xec
 196 459 234 426 299 426 c 2
 393 426 l 1
 406 521 l 2
 409 542 427 553 460 553 c 2
 491 553 l 2
 526 553 541 542 541 521 c 2
 541 426 l 1
 590 426 l 2
 611 426 620 411 620 376 c 2
 620 359 l 2
 620 324 611 309 590 309 c 2
 541 309 l 1
 541 152 l 2
 541 122 551 109 577 109 c 0
 586 109 598 113 604 113 c 0xf4
173 206 m 0
 173 144 213 109 272 109 c 0
 308 109 345 115 393 136 c 1
 393 309 l 1
 290 309 l 2
 206 309 173 272 173 206 c 0
EndSplineSet
EndChar

StartChar: paragraph
Encoding: 182 182 200
Width: 515
Flags: MW
HStem: 638 62<305 383 305 305 445 471 445 445>
VStem: 243 62<-141 247 247 247> 383 62<-141 638>
LayerCount: 2
Fore
SplineSet
471 700 m 2
 492 700 501 691 501 668 c 2
 501 667 l 2
 501 647 492 638 471 638 c 2
 445 638 l 1
 445 -141 l 2
 445 -161 437 -171 415 -171 c 2
 413 -171 l 2
 392 -171 383 -162 383 -141 c 2
 383 638 l 1
 305 638 l 1
 305 -141 l 2
 305 -161 297 -171 275 -171 c 2
 273 -171 l 2
 252 -171 243 -162 243 -141 c 2
 243 247 l 1
 130 260 41 356 41 473 c 0
 41 609 143 700 268 700 c 2
 471 700 l 2
EndSplineSet
EndChar

StartChar: copyright
Encoding: 169 169 201
Width: 739
Flags: MW
HStem: -8 64<287 449 287 467> 152 73<348.5 403> 478 74<349 408 321 408.5> 644 64<287 449>
VStem: 10 64<269 431 269 449> 197 88<311 394.5 311 419.5> 662 64<269 431>
LayerCount: 2
Fore
SplineSet
368 708 m 0
 566 708 726 548 726 350 c 0
 726 152 566 -8 368 -8 c 0
 170 -8 10 152 10 350 c 0
 10 548 170 708 368 708 c 0
368 644 m 0
 206 644 74 512 74 350 c 0
 74 188 206 56 368 56 c 0
 530 56 662 188 662 350 c 0
 662 512 530 644 368 644 c 0
383 552 m 0
 433 552 500 536 500 513 c 0
 500 497 478 460 464 460 c 0
 457 460 435 478 382 478 c 0
 316 478 285 436 285 353 c 0
 285 269 316 225 381 225 c 0
 434 225 464 248 472 248 c 0
 490 248 505 208 505 199 c 0
 505 165 425 152 381 152 c 0
 256 152 197 215 197 353 c 0
 197 486 259 552 383 552 c 0
EndSplineSet
EndChar

StartChar: section
Encoding: 167 167 202
Width: 429
Flags: MW
HStem: -7 116<191.5 206 165.5 264.5> 592 116<227 241.5 168.5 267.5>
VStem: 41 150<531 571.5 527.5 602> 42 130<344.5 371.5> 242 150<129.5 169.5 99 173.5> 261 130<329 356.5>
LayerCount: 2
Fore
SplineSet
225 708 m 0xe8
 258 708 373 701 373 645 c 0
 373 632 350 571 330 571 c 0
 320 571 290 592 245 592 c 0
 209 592 191 582 191 561 c 0
 191 494 391 526 391 351 c 0xe4
 391 307 378 270 354 242 c 1
 376 221 392 192 392 147 c 0
 392 51 321 -7 208 -7 c 0
 175 -7 60 0 60 56 c 0
 60 69 83 130 103 130 c 0
 113 130 143 109 188 109 c 0
 224 109 242 119 242 140 c 0
 242 207 42 175 42 350 c 0xd8
 42 393 55 430 79 459 c 1
 56 479 41 508 41 554 c 0
 41 650 112 708 225 708 c 0xe8
181 409 m 1xd4
 174 396 172 380 172 366 c 0
 172 323 208 307 252 292 c 1
 258 305 261 320 261 335 c 0
 261 378 224 394 181 409 c 1xd4
EndSplineSet
EndChar

StartChar: degree
Encoding: 176 176 203
Width: 345
Flags: MW
HStem: 443 62<151.5 188.5 151.5 206.5> 646 62<151.5 188.5>
VStem: 38 65<555.5 594.5 555.5 611.5> 238 65<555.5 594.5>
LayerCount: 2
Fore
SplineSet
170 708 m 0
 243 708 303 648 303 575 c 0
 303 502 243 443 170 443 c 0
 97 443 38 502 38 575 c 0
 38 648 97 708 170 708 c 0
170 646 m 0
 133 646 103 614 103 575 c 0
 103 536 133 505 170 505 c 0
 207 505 238 536 238 575 c 0
 238 614 207 646 170 646 c 0
EndSplineSet
EndChar

StartChar: asciicircum
Encoding: 94 94 204
Width: 450
Flags: MW
HStem: 318 368<56 241 67 241 210 363 210 384>
VStem: 35 381<328.5 335>
LayerCount: 2
Fore
SplineSet
241 686 m 2
 261 686 274 676 283 656 c 2
 412 348 l 2
 415 342 416 337 416 333 c 0
 416 324 406 318 384 318 c 2
 363 318 l 2
 337 318 320 327 311 348 c 2
 225 555 l 1
 139 348 l 2
 130 327 114 318 88 318 c 2
 67 318 l 2
 45 318 35 324 35 333 c 0
 35 337 36 342 39 348 c 2
 168 656 l 2
 176 676 189 686 210 686 c 2
 241 686 l 2
EndSplineSet
EndChar

StartChar: dagger
Encoding: 8224 8224 205
Width: 535
Flags: MW
HStem: 410 107<65.5 210 76 210 325 459> 682 20G<260 275 275 292.5>
VStem: 210 115<-108 410 517 670>
LayerCount: 2
Fore
SplineSet
275 702 m 2
 310 702 325 691 325 670 c 2
 325 517 l 1
 459 517 l 2
 480 517 489 502 489 467 c 2
 489 460 l 2
 489 425 480 410 459 410 c 2
 325 410 l 1
 325 -108 l 2
 325 -129 310 -140 275 -140 c 2
 260 -140 l 2
 225 -140 210 -129 210 -108 c 2
 210 410 l 1
 76 410 l 2
 55 410 46 425 46 460 c 2
 46 467 l 2
 46 502 55 517 76 517 c 2
 210 517 l 1
 210 670 l 2
 210 691 225 702 260 702 c 2
 275 702 l 2
EndSplineSet
EndChar

StartChar: daggerdbl
Encoding: 8225 8225 206
Width: 535
Flags: MW
HStem: 42 107<65.5 210 76 210 325 459> 410 107<65.5 210 76 210 325 459> 682 20G<260 275 275 292.5>
VStem: 210 115<-108 42 149 410 517 670>
LayerCount: 2
Fore
SplineSet
275 702 m 2
 310 702 325 691 325 670 c 2
 325 517 l 1
 459 517 l 2
 480 517 489 502 489 467 c 2
 489 460 l 2
 489 425 480 410 459 410 c 2
 325 410 l 1
 325 149 l 1
 459 149 l 2
 480 149 489 134 489 99 c 2
 489 92 l 2
 489 57 480 42 459 42 c 2
 325 42 l 1
 325 -108 l 2
 325 -129 310 -140 275 -140 c 2
 260 -140 l 2
 225 -140 210 -129 210 -108 c 2
 210 42 l 1
 76 42 l 2
 55 42 46 57 46 92 c 2
 46 99 l 2
 46 134 55 149 76 149 c 2
 210 149 l 1
 210 410 l 1
 76 410 l 2
 55 410 46 425 46 460 c 2
 46 467 l 2
 46 502 55 517 76 517 c 2
 210 517 l 1
 210 670 l 2
 210 691 225 702 260 702 c 2
 275 702 l 2
EndSplineSet
EndChar

StartChar: acute
Encoding: 180 180 207
Width: 320
Flags: MW
HStem: 575 159<73 224>
VStem: 54 210<584.5 725.5>
LayerCount: 2
Fore
SplineSet
204 734 m 0
 244 734 264 731 264 720 c 0
 264 708 257 706 160 600 c 0
 149 588 132 575 85 575 c 0
 61 575 54 579 54 590 c 0
 54 601 73 626 119 707 c 0
 131 728 164 734 204 734 c 0
EndSplineSet
Substitution2: "'locl' Localized Forms in Latin lookup 11 subtable" acute.loclPLK
Substitution2: "'aalt' Access All Alternates lookup 0 subtable" acute.loclPLK
EndChar

StartChar: grave
Encoding: 96 96 208
Width: 320
Flags: MW
HStem: 575 159<94 245>
VStem: 54 210<584.5 725.5>
LayerCount: 2
Fore
SplineSet
114 734 m 0
 154 734 187 728 199 707 c 0
 245 626 264 601 264 590 c 0
 264 579 257 575 233 575 c 0
 186 575 169 588 158 600 c 0
 61 706 54 708 54 720 c 0
 54 731 74 734 114 734 c 0
EndSplineSet
EndChar

StartChar: hungarumlaut
Encoding: 733 733 209
Width: 384
Flags: MW
HStem: 575 159<11 162 122 229.5>
VStem: -8 393<584.5 725.5>
LayerCount: 2
Fore
SplineSet
142 734 m 0
 182 734 202 731 202 720 c 0
 202 708 195 706 98 600 c 0
 87 588 70 575 23 575 c 0
 -1 575 -8 579 -8 590 c 0
 -8 601 11 626 57 707 c 0
 69 728 102 734 142 734 c 0
325 734 m 0
 365 734 385 731 385 720 c 0
 385 708 378 706 281 600 c 0
 270 588 253 575 206 575 c 0
 182 575 175 579 175 590 c 0
 175 601 194 626 240 707 c 0
 252 728 285 734 325 734 c 0
EndSplineSet
EndChar

StartChar: ring
Encoding: 730 730 210
Width: 320
Flags: MW
HStem: 550 62<150 170 150 188> 685 64<150 170>
VStem: 61 63<638 658 638 677> 197 63<638 658>
LayerCount: 2
Fore
SplineSet
160 749 m 0
 216 749 260 705 260 649 c 0
 260 593 216 550 160 550 c 0
 104 550 61 593 61 649 c 0
 61 705 104 749 160 749 c 0
160 685 m 0
 140 685 124 668 124 648 c 0
 124 628 140 612 160 612 c 0
 180 612 197 628 197 648 c 0
 197 668 180 685 160 685 c 0
EndSplineSet
EndChar

StartChar: tilde
Encoding: 732 732 211
Width: 365
Flags: MW
HStem: 577.99 116.01 582 116.02
VStem: -7.92999 359.71
LayerCount: 2
Fore
SplineSet
104 694 m 0xa0
 138 694 212 667 245 665 c 0
 253 665 265 667 278 681 c 0
 293 700 304 700 318 696 c 2
 329 693 l 2
 353 686 355 666 349 652 c 0
 336 616 297 582 240 582 c 0x60
 206 582 132 609 99 611 c 0
 91 611 78 609 66 595 c 0
 51 576 40 576 26 580 c 2
 15 583 l 2
 -10 590 -11 610 -5 624 c 0
 8 660 47 694 104 694 c 0xa0
EndSplineSet
EndChar

StartChar: caron.alt
Encoding: 65573 -1 212
Width: 293
Flags: MW
HStem: 680 20G<124 143 143 160.5>
VStem: 60 133<525 668.5>
LayerCount: 2
Fore
SplineSet
143 700 m 2
 178 700 193 681 193 656 c 0
 193 589 134 513 105 511 c 0
 87 511 60 517 60 533 c 0
 60 584 64 621 64 656 c 0
 64 683 82 700 124 700 c 2
 143 700 l 2
EndSplineSet
EndChar

StartChar: acute.loclPLK
Encoding: 65574 -1 213
Width: 320
Flags: MW
HStem: 575 159<83 204>
VStem: 64 180<584.5 725.5>
LayerCount: 2
Fore
SplineSet
184 734 m 0
 224 734 244 731 244 720 c 0
 244 708 230 694 170 600 c 0
 161 586 142 575 95 575 c 0
 71 575 64 579 64 590 c 0
 64 601 73 632 99 707 c 0
 107 730 144 734 184 734 c 0
EndSplineSet
EndChar

StartChar: uni02BC
Encoding: 700 700 214
Width: 200
GlyphClass: 4
Flags: MW
HStem: 532 189<66 133>
VStem: 54 129<643.5 689.5 643.5 690.5>
LayerCount: 2
Fore
SplineSet
133 721 m 2
 168 721 183 702 183 677 c 0
 183 610 110 532 75 532 c 0
 57 532 30 538 30 554 c 0
 30 572 54 597 54 677 c 0
 54 704 72 721 114 721 c 2
 133 721 l 2
EndSplineSet
EndChar
